{"glyphs":{"0":{"ha":825,"x_min":106,"x_max":742,"o":"m 488 975 q 722 856 664 975 q 742 475 779 738 q 617 98 704 213 q 360 -17 531 -17 q 126 102 183 -17 q 106 483 68 221 q 228 860 142 746 q 488 975 315 975 m 486 896 q 290 799 356 896 q 193 475 225 701 q 198 157 163 251 q 358 63 233 63 q 555 160 489 63 q 653 483 621 257 q 649 801 685 707 q 486 896 613 896 z "},"1":{"ha":538,"x_min":99,"x_max":454,"o":"m 319 0 l 228 0 l 339 797 q 356 874 347 847 l 101 793 l 99 858 l 363 958 l 454 958 l 319 0 z "},"2":{"ha":769,"x_min":21,"x_max":710,"o":"m 161 868 l 157 939 q 444 975 318 975 q 658 933 590 975 q 710 769 725 890 q 649 602 699 681 q 485 413 599 524 l 149 83 q 303 86 199 86 l 653 86 l 640 0 l 21 0 l 28 58 q 46 99 33 86 l 392 438 q 557 625 503 546 q 618 778 611 704 q 584 873 626 851 q 442 894 542 894 q 161 868 307 894 z "},"3":{"ha":761,"x_min":22,"x_max":692,"o":"m 171 882 l 165 951 q 426 975 315 975 q 646 923 586 975 q 692 750 706 871 q 638 590 681 658 q 515 508 596 521 l 513 503 q 633 426 599 490 q 651 263 667 361 q 550 67 633 143 q 299 -17 467 -10 q 22 7 167 -24 l 36 76 q 292 64 196 58 q 563 279 531 81 q 385 469 592 468 l 204 472 l 214 540 l 390 542 q 492 560 450 543 q 556 609 533 578 q 588 671 578 640 q 603 740 599 701 q 576 863 614 832 q 410 894 538 894 q 171 882 290 894 z "},"4":{"ha":838,"x_min":58,"x_max":763,"o":"m 753 258 l 632 249 l 597 0 l 510 0 l 544 249 l 143 249 q 59 294 83 249 q 67 390 35 340 l 429 958 l 522 958 l 158 382 q 149 340 142 356 q 182 324 157 324 l 556 324 l 596 617 l 636 776 l 706 776 l 642 324 l 763 324 l 753 258 z "},"5":{"ha":736,"x_min":28,"x_max":706,"o":"m 690 881 l 276 881 l 219 582 l 310 576 q 577 507 497 568 q 638 288 657 446 q 613 190 631 235 q 559 97 596 144 q 453 18 522 49 q 290 -17 385 -12 q 28 19 158 -22 l 46 92 q 271 64 161 60 q 550 296 519 76 q 499 459 567 421 q 238 501 432 497 l 172 507 q 143 520 154 507 q 135 553 132 533 l 213 958 l 706 958 l 690 881 z "},"6":{"ha":788,"x_min":89,"x_max":719,"o":"m 719 956 l 706 889 q 536 897 636 897 q 370 868 429 897 q 269 751 311 839 q 200 492 228 664 q 471 621 310 617 q 663 552 608 625 q 693 304 718 479 q 593 63 669 143 q 356 -17 517 -17 q 160 35 222 -17 q 90 194 97 86 q 107 471 82 303 q 165 735 131 633 q 255 888 200 836 q 372 958 310 940 q 531 975 433 975 q 719 956 628 975 m 451 546 q 322 514 382 543 q 188 407 261 485 q 192 135 160 210 q 360 61 224 61 q 532 124 476 61 q 606 314 588 188 q 592 497 624 443 q 451 546 561 550 z "},"7":{"ha":703,"x_min":122,"x_max":717,"o":"m 129 958 l 664 958 q 717 938 704 958 q 711 882 729 918 l 285 0 l 192 0 l 588 818 q 624 881 601 849 l 122 881 l 129 958 z "},"8":{"ha":844,"x_min":79,"x_max":764,"o":"m 271 496 l 274 501 q 168 724 140 518 q 257 915 188 858 q 496 971 326 972 q 726 912 669 971 q 764 715 782 853 q 597 500 736 515 l 594 494 q 706 420 678 485 q 717 235 733 356 q 625 44 697 99 q 368 -12 553 -11 q 125 46 190 -14 q 79 243 60 106 q 140 426 97 364 q 271 496 183 488 m 658 858 q 639 877 658 858 q 490 896 621 896 q 313 856 360 896 q 250 708 265 817 q 272 567 235 599 q 443 535 308 535 q 619 569 575 535 q 678 717 663 604 q 658 858 694 821 m 431 460 q 236 421 286 458 q 168 251 186 383 q 194 105 153 144 q 375 65 236 65 q 565 108 511 65 q 632 260 618 150 q 612 423 650 386 q 431 460 574 460 z "},"9":{"ha":788,"x_min":69,"x_max":701,"o":"m 69 3 l 86 69 q 265 61 160 61 q 500 143 433 64 q 610 472 567 222 q 487 370 549 400 q 344 338 425 340 q 147 414 199 333 q 118 654 96 494 q 219 898 139 821 q 460 975 300 975 q 694 866 644 975 q 701 488 744 757 q 644 229 676 328 q 558 76 611 131 q 440 2 504 21 q 275 -17 376 -17 q 69 3 165 -17 m 360 411 q 492 444 433 414 q 622 553 550 475 q 617 822 650 746 q 454 897 585 897 q 276 838 332 897 q 203 644 221 778 q 221 462 185 515 q 360 411 257 408 z "}," ":{"ha":314,"x_min":0,"x_max":0,"o":""},"!":{"ha":367,"x_min":85,"x_max":306,"o":"m 243 524 l 203 289 l 132 289 l 156 524 l 218 965 l 306 965 l 243 524 m 133 149 l 158 149 q 189 113 196 149 l 178 32 q 142 0 176 0 l 117 0 q 85 36 81 0 l 97 115 q 133 149 101 149 z "},"\"":{"ha":472,"x_min":144,"x_max":446,"o":"m 207 664 l 144 664 l 181 958 l 254 958 l 207 664 m 399 664 l 336 664 l 371 958 l 446 958 l 399 664 z "},"#":{"ha":938,"x_min":53,"x_max":911,"o":"m 739 633 l 653 363 l 807 363 l 786 303 l 635 303 l 539 0 l 468 0 l 563 303 l 286 303 l 190 0 l 119 0 l 214 303 l 53 303 l 72 363 l 233 363 l 318 633 l 157 633 l 176 693 l 336 693 l 421 958 l 492 958 l 408 693 l 685 693 l 769 958 l 840 958 l 757 693 l 911 693 l 892 633 l 739 633 m 667 633 l 390 633 l 304 363 l 582 363 l 667 633 z "},"$":{"ha":782,"x_min":47,"x_max":739,"o":"m 739 950 l 728 885 q 521 892 596 892 l 444 517 l 521 486 q 662 387 628 444 q 681 222 696 329 q 582 30 660 75 q 328 -15 504 -15 l 293 -181 l 244 -181 l 279 -15 q 47 6 157 -12 l 58 74 q 296 65 232 65 l 376 447 l 285 483 q 152 582 186 522 q 131 743 118 642 q 168 869 142 821 q 241 939 194 917 q 337 968 288 961 q 464 974 386 975 l 490 974 l 518 1113 l 567 1113 l 538 972 q 739 950 646 968 m 474 893 l 453 893 q 381 892 404 893 q 324 883 357 890 q 275 858 292 875 q 243 810 258 842 q 222 733 228 779 q 235 625 214 660 q 326 561 256 590 l 399 533 l 474 893 m 421 431 l 344 65 q 522 99 471 68 q 589 232 574 131 q 578 344 599 310 q 482 407 557 378 l 421 431 z "},"%":{"ha":1233,"x_min":110,"x_max":1144,"o":"m 360 975 q 524 908 482 975 q 543 688 565 840 q 465 472 522 536 q 292 408 408 408 q 130 476 171 408 q 110 696 89 543 q 186 911 131 847 q 360 975 242 975 m 275 0 l 203 0 l 975 958 l 1046 958 l 275 0 m 364 918 q 234 867 272 918 q 178 688 196 817 q 185 515 161 565 q 289 465 208 465 q 419 517 379 465 q 475 696 458 568 q 469 869 492 821 q 364 918 446 918 m 961 556 q 1126 488 1085 556 q 1144 268 1167 421 q 1067 52 1124 117 q 893 -12 1010 -12 q 731 55 772 -12 q 711 276 690 122 q 788 492 732 428 q 961 556 843 556 m 965 499 q 835 448 874 499 q 779 268 797 397 q 786 94 763 144 q 890 44 810 44 q 1020 96 981 44 q 1076 276 1060 147 q 1070 449 1093 400 q 965 499 1047 499 z "},"&":{"ha":1065,"x_min":67,"x_max":1019,"o":"m 1008 461 l 839 461 q 750 200 815 307 q 579 38 682 89 q 332 -15 476 -12 q 109 41 172 -18 q 67 246 46 100 q 147 428 85 367 q 321 494 208 490 l 322 500 q 194 565 228 507 q 178 728 161 622 q 283 922 203 872 q 532 971 363 971 q 760 940 656 971 l 744 874 q 533 894 657 894 q 342 859 397 894 q 268 711 286 824 q 293 569 250 607 q 461 532 336 532 l 767 532 q 772 724 775 614 l 854 724 q 847 532 854 606 l 1019 532 l 1008 461 m 757 461 l 453 461 q 247 419 310 460 q 164 251 185 378 q 184 103 144 142 q 326 64 224 64 q 537 106 453 64 q 676 236 621 149 q 757 461 735 324 z "},"'":{"ha":281,"x_min":144,"x_max":254,"o":"m 207 664 l 144 664 l 181 958 l 254 958 l 207 664 z "},"(":{"ha":493,"x_min":85,"x_max":538,"o":"m 528 1097 l 538 1051 q 296 828 385 979 q 172 431 207 678 q 183 41 139 192 q 360 -185 228 -110 l 347 -229 q 112 10 176 -154 q 85 440 47 175 q 229 864 122 704 q 528 1097 336 1024 z "},")":{"ha":493,"x_min":-37,"x_max":417,"o":"m 142 1053 l 154 1097 q 390 860 324 1024 q 417 426 456 696 q 272 5 379 164 q -26 -229 165 -154 l -37 -183 q 329 439 261 -37 q 142 1053 397 917 z "},"*":{"ha":624,"x_min":131,"x_max":592,"o":"m 376 739 l 489 560 l 440 526 l 354 700 l 218 528 l 175 564 l 336 740 l 360 958 l 417 958 l 376 739 m 317 768 l 313 743 l 300 726 l 131 776 l 154 831 l 317 768 m 592 772 l 413 726 l 403 743 l 404 768 l 581 829 l 592 772 z "},"+":{"ha":763,"x_min":78,"x_max":686,"o":"m 675 381 l 411 381 l 376 129 l 307 129 l 343 381 l 78 381 l 88 449 l 351 449 l 386 699 l 457 699 l 421 449 l 686 449 l 675 381 z "},",":{"ha":304,"x_min":36,"x_max":161,"o":"m 104 149 l 133 149 q 161 114 167 149 l 149 24 q 81 -176 136 -69 l 36 -161 q 76 1 67 -57 q 51 32 47 1 l 64 115 q 75 142 67 135 q 104 149 83 149 z "},"-":{"ha":638,"x_min":93,"x_max":529,"o":"m 519 315 l 93 315 l 103 385 l 529 385 l 519 315 z "},".":{"ha":303,"x_min":51,"x_max":161,"o":"m 99 149 l 131 149 q 161 113 165 149 l 150 32 q 114 0 146 0 l 83 0 q 51 36 44 0 l 63 115 q 99 149 67 149 z "},"/":{"ha":714,"x_min":-24,"x_max":746,"o":"m 56 -87 l -24 -87 l 668 958 l 746 958 l 56 -87 z "},":":{"ha":311,"x_min":69,"x_max":244,"o":"m 183 607 l 214 607 q 244 569 250 607 l 233 490 q 197 458 229 458 l 167 458 q 135 494 128 458 l 146 574 q 183 607 150 607 m 118 149 l 149 149 q 179 113 186 149 l 168 32 q 132 0 164 0 l 101 0 q 69 36 65 0 l 82 115 q 118 149 86 149 z "},";":{"ha":317,"x_min":42,"x_max":231,"o":"m 168 607 l 200 607 q 231 569 235 607 l 219 490 q 183 458 215 458 l 153 458 q 121 494 114 458 l 132 574 q 168 607 136 607 m 110 149 l 139 149 q 168 114 172 149 l 156 24 q 86 -176 143 -67 l 42 -161 q 83 1 72 -54 q 57 32 53 1 l 69 115 q 81 142 72 135 q 110 149 89 149 z "},"<":{"ha":736,"x_min":72,"x_max":675,"o":"m 665 617 l 156 410 l 606 206 l 596 135 l 72 376 l 82 447 l 675 693 l 665 617 z "},"=":{"ha":817,"x_min":83,"x_max":732,"o":"m 722 518 l 124 518 l 133 586 l 732 586 l 722 518 m 682 225 l 83 225 l 93 293 l 692 293 l 682 225 z "},">":{"ha":735,"x_min":63,"x_max":664,"o":"m 664 447 l 654 376 l 63 136 l 72 213 l 581 417 l 132 625 l 142 694 l 664 447 z "},"?":{"ha":692,"x_min":126,"x_max":678,"o":"m 131 897 l 126 961 q 160 967 135 963 q 192 972 185 971 q 221 977 200 974 q 253 981 242 981 q 285 984 264 982 q 326 987 307 986 q 370 988 344 988 q 425 989 396 989 q 628 935 563 989 q 678 769 693 881 q 637 664 669 713 q 562 578 604 615 q 476 503 519 542 q 399 409 433 464 q 353 288 364 354 l 276 289 q 319 419 286 360 q 392 519 351 479 q 474 596 433 560 q 547 675 515 632 q 585 765 578 718 q 554 880 594 846 q 410 914 514 914 q 131 897 293 914 m 281 149 l 306 149 q 336 113 343 149 l 325 33 q 289 0 321 0 l 264 0 q 232 36 228 0 l 244 115 q 281 149 247 149 z "},"@":{"ha":1056,"x_min":86,"x_max":964,"o":"m 163 803 l 169 868 q 592 878 332 875 q 744 873 686 878 q 851 850 803 868 q 922 804 900 832 q 955 723 943 776 q 963 601 967 669 q 946 429 960 533 q 858 76 911 167 q 676 -14 806 -14 q 542 143 528 -14 q 250 -17 401 -17 q 94 69 129 -17 q 86 314 58 154 q 189 562 118 501 q 422 622 260 622 q 696 594 519 622 l 628 143 q 635 81 622 100 q 682 63 647 63 q 798 135 765 63 q 863 436 831 207 q 878 554 872 507 q 881 643 883 601 q 875 708 879 685 q 853 752 871 732 q 817 781 835 772 q 761 795 800 789 q 688 802 722 801 q 590 803 653 803 l 163 803 m 553 228 l 601 543 q 450 549 503 549 q 249 504 299 549 q 172 307 199 460 q 165 120 146 182 q 267 58 185 58 q 553 228 400 58 z "},"A":{"ha":850,"x_min":-37,"x_max":779,"o":"m 626 317 l 208 317 l 60 0 l -37 0 l 414 935 q 451 958 424 958 l 556 958 q 578 950 568 958 q 589 931 588 942 l 779 0 l 688 0 l 626 317 m 611 397 l 532 807 q 525 847 529 821 q 519 888 521 874 l 478 888 q 460 850 474 879 q 440 807 447 821 l 247 397 l 611 397 z "},"B":{"ha":854,"x_min":71,"x_max":783,"o":"m 71 0 l 206 958 q 500 969 313 969 q 740 915 675 969 q 783 715 804 861 q 723 560 768 613 q 592 500 678 508 l 590 493 q 727 419 692 485 q 744 235 763 354 q 652 40 724 90 q 414 -11 581 -11 q 71 0 192 -11 m 236 532 l 460 532 q 628 571 578 533 q 694 714 679 608 q 667 857 710 822 q 496 892 625 892 q 286 890 338 892 l 236 532 m 225 461 l 171 69 q 403 67 285 67 q 586 106 532 67 q 656 256 640 144 q 630 417 672 375 q 456 461 588 458 l 225 461 z "},"C":{"ha":782,"x_min":103,"x_max":788,"o":"m 674 81 l 681 13 q 406 -17 568 -17 q 133 99 203 -17 q 103 483 64 215 q 236 865 140 756 q 533 975 332 975 q 788 949 678 975 l 771 881 q 533 893 669 893 q 303 805 375 893 q 196 475 231 717 q 209 154 164 243 q 406 65 254 65 q 674 81 554 64 z "},"D":{"ha":918,"x_min":71,"x_max":836,"o":"m 71 0 l 206 958 q 521 971 375 971 q 803 860 732 971 q 836 475 875 750 q 783 231 815 325 q 694 83 750 138 q 569 8 639 28 q 390 -12 499 -12 q 71 0 249 -12 m 288 888 l 172 71 q 389 68 311 68 q 570 103 504 68 q 677 226 636 138 q 742 483 718 314 q 729 807 776 722 q 519 892 682 892 q 288 888 504 892 z "},"E":{"ha":771,"x_min":86,"x_max":772,"o":"m 760 882 l 374 882 q 263 779 275 882 l 229 543 l 658 543 l 649 472 l 219 472 l 179 175 q 263 76 164 76 l 646 76 l 646 7 q 250 -1 518 -1 q 118 46 161 -1 q 86 174 75 93 l 175 804 q 233 918 185 876 q 361 960 282 960 q 772 951 643 960 l 760 882 z "},"F":{"ha":743,"x_min":68,"x_max":767,"o":"m 753 882 l 385 882 q 303 858 332 882 q 268 779 275 833 l 233 532 l 650 532 l 640 461 l 224 461 l 158 0 l 68 0 l 179 800 q 240 918 190 876 q 367 960 289 960 q 767 951 640 960 l 753 882 z "},"G":{"ha":864,"x_min":101,"x_max":819,"o":"m 819 949 l 803 881 q 556 894 679 894 q 305 808 381 894 q 196 475 229 722 q 208 156 169 247 q 369 64 246 64 q 508 102 444 64 q 651 217 572 140 l 699 556 l 788 556 l 708 0 l 643 0 l 650 139 q 342 -17 513 -17 q 128 102 185 -17 q 101 483 71 221 q 183 783 126 675 q 324 933 239 892 q 546 975 410 975 q 819 949 704 975 z "},"H":{"ha":921,"x_min":71,"x_max":871,"o":"m 871 958 l 736 0 l 644 0 l 711 472 l 229 472 l 163 0 l 71 0 l 206 958 l 297 958 l 240 551 l 722 551 l 779 958 l 871 958 z "},"I":{"ha":347,"x_min":71,"x_max":297,"o":"m 163 0 l 71 0 l 206 958 l 297 958 l 163 0 z "},"J":{"ha":463,"x_min":-10,"x_max":417,"o":"m 417 958 l 308 185 q 106 -11 281 -11 q -10 4 43 -11 l 8 67 l 79 67 q 218 186 199 67 l 325 958 l 417 958 z "},"K":{"ha":807,"x_min":71,"x_max":833,"o":"m 429 501 l 428 496 q 467 438 449 472 l 719 0 l 617 0 l 351 463 l 219 463 q 211 353 217 389 l 161 0 l 71 0 l 206 958 l 296 958 l 253 647 q 231 538 240 572 l 360 538 l 722 958 l 833 958 l 488 556 q 429 501 460 522 z "},"L":{"ha":703,"x_min":93,"x_max":626,"o":"m 293 958 l 183 175 q 198 103 176 129 q 267 76 219 76 l 626 76 l 624 7 q 249 -1 500 -1 q 124 46 167 -1 q 93 178 82 93 l 201 958 l 293 958 z "},"M":{"ha":1207,"x_min":51,"x_max":1129,"o":"m 983 958 l 1092 958 q 1121 947 1111 958 q 1129 915 1131 935 l 1040 0 l 950 0 l 1038 882 l 1008 882 l 653 129 q 611 100 642 100 l 519 100 q 481 133 485 100 l 332 882 l 301 882 l 143 0 l 51 0 l 219 919 q 263 958 228 958 l 369 958 q 406 925 401 958 l 532 299 q 543 233 536 276 q 554 168 550 189 l 585 168 q 643 300 617 244 l 940 928 q 983 958 953 958 z "},"N":{"ha":969,"x_min":71,"x_max":919,"o":"m 919 958 l 789 36 q 749 0 785 0 l 657 0 q 617 32 629 0 l 344 761 q 307 874 315 840 l 279 874 q 267 754 275 814 l 163 0 l 71 0 l 200 922 q 242 958 206 958 l 329 958 q 371 926 360 958 l 636 215 q 681 85 665 133 l 711 85 q 726 218 715 129 l 829 958 l 919 958 z "},"O":{"ha":922,"x_min":103,"x_max":840,"o":"m 536 975 q 808 862 738 975 q 840 475 879 749 q 707 92 803 200 q 410 -17 611 -17 q 137 96 208 -17 q 103 483 65 208 q 236 866 140 757 q 536 975 332 975 m 533 894 q 303 804 375 894 q 196 475 231 714 q 210 153 164 243 q 411 64 257 64 q 640 155 567 64 q 746 483 713 246 q 735 806 781 718 q 533 894 689 894 z "},"P":{"ha":813,"x_min":71,"x_max":783,"o":"m 71 0 l 206 958 q 524 969 324 969 q 747 904 688 969 q 783 674 807 839 q 688 442 758 501 q 453 383 617 383 q 218 394 335 383 l 163 0 l 71 0 m 226 463 l 451 463 q 624 508 572 464 q 693 681 675 553 q 673 848 710 804 q 522 892 636 892 q 288 889 399 892 l 226 463 z "},"Q":{"ha":922,"x_min":103,"x_max":840,"o":"m 536 975 q 808 862 738 975 q 840 475 879 749 q 707 92 803 200 q 410 -17 611 -17 q 137 96 208 -17 q 103 483 65 208 q 236 866 140 757 q 536 975 332 975 m 533 894 q 303 804 375 894 q 196 475 231 714 q 210 153 164 243 q 411 64 257 64 q 640 155 567 64 q 746 483 713 246 q 735 806 781 718 q 533 894 689 894 m 303 -118 l 339 -64 q 674 -176 472 -143 l 639 -267 q 303 -118 443 -226 z "},"R":{"ha":853,"x_min":71,"x_max":789,"o":"m 71 0 l 206 958 q 524 969 324 969 q 746 909 682 969 q 789 692 810 849 q 722 517 772 575 q 575 446 672 460 l 574 439 q 671 303 650 417 l 732 0 l 639 0 l 581 303 q 541 385 569 361 q 461 411 513 410 q 365 412 418 411 q 278 413 313 413 q 219 414 243 414 l 161 0 l 71 0 m 229 490 l 457 490 q 627 535 575 492 q 696 696 679 579 q 675 851 713 810 q 522 892 638 892 q 286 889 397 892 l 229 490 z "},"S":{"ha":775,"x_min":42,"x_max":733,"o":"m 478 407 l 281 483 q 147 582 182 522 q 125 743 113 642 q 163 869 136 821 q 235 939 189 917 q 331 968 282 961 q 458 974 381 975 q 733 950 607 974 l 722 885 q 447 893 568 893 q 387 892 407 893 q 337 887 367 892 q 292 872 307 882 q 259 845 276 863 q 232 800 242 828 q 217 733 222 772 q 230 625 208 660 q 322 561 251 590 l 517 486 q 657 387 624 444 q 676 222 690 329 q 640 97 665 144 q 568 25 615 50 q 467 -8 521 0 q 324 -15 413 -15 q 42 6 174 -15 l 54 74 q 331 65 222 65 q 516 97 463 67 q 585 232 569 128 q 573 343 594 310 q 478 407 551 376 z "},"T":{"ha":789,"x_min":96,"x_max":836,"o":"m 825 878 l 506 878 l 382 0 l 290 0 l 414 878 l 96 878 l 108 958 l 836 958 l 825 878 z "},"U":{"ha":924,"x_min":115,"x_max":881,"o":"m 881 958 l 796 361 q 679 69 767 156 q 413 -17 592 -17 q 157 72 228 -17 q 115 365 86 161 l 199 958 l 290 958 l 206 361 q 228 129 183 194 q 410 64 274 64 q 616 131 549 64 q 706 365 683 199 l 789 958 l 881 958 z "},"V":{"ha":832,"x_min":100,"x_max":882,"o":"m 882 958 l 446 25 q 408 0 436 0 l 310 0 q 276 29 282 0 l 100 958 l 193 958 l 331 174 q 336 141 332 163 q 343 102 340 119 q 347 69 346 85 l 383 69 q 429 179 408 131 l 786 958 l 882 958 z "},"W":{"ha":1301,"x_min":117,"x_max":1336,"o":"m 1336 958 l 989 26 q 949 0 979 0 l 840 0 q 806 32 808 0 l 740 782 l 732 888 l 700 888 l 661 778 l 389 28 q 349 0 378 0 l 240 0 q 216 9 226 0 q 204 31 206 18 l 117 958 l 210 958 l 276 179 q 282 69 279 144 l 318 69 l 357 182 l 629 929 q 669 958 640 958 l 774 958 q 797 949 788 958 q 807 925 806 939 l 878 179 q 885 69 883 103 l 921 69 l 958 182 l 1240 958 l 1336 958 z "},"X":{"ha":836,"x_min":-18,"x_max":858,"o":"m 529 497 l 742 0 l 647 0 l 454 464 l 411 464 l 88 0 l -18 0 l 336 499 l 136 958 l 231 958 l 410 535 l 454 535 l 757 958 l 858 958 l 529 497 z "},"Y":{"ha":769,"x_min":93,"x_max":826,"o":"m 418 343 l 371 0 l 279 0 l 328 346 l 93 958 l 186 958 l 346 531 q 378 428 363 486 l 388 428 q 447 535 404 464 l 726 958 l 826 958 l 418 343 z "},"Z":{"ha":776,"x_min":10,"x_max":782,"o":"m 782 958 l 769 881 l 122 78 l 667 78 l 654 0 l 10 0 l 21 78 l 668 881 l 139 881 l 150 958 l 782 958 z "},"[":{"ha":443,"x_min":51,"x_max":476,"o":"m 468 1006 l 321 1006 q 296 983 301 1006 l 138 -150 q 151 -168 135 -168 l 303 -168 l 294 -229 l 108 -229 q 63 -212 79 -229 q 51 -164 47 -196 l 215 1006 q 285 1067 225 1067 l 476 1067 l 468 1006 z "},"\\":{"ha":693,"x_min":114,"x_max":588,"o":"m 588 -87 l 515 -87 l 114 958 l 186 958 l 588 -87 z "},"]":{"ha":443,"x_min":-31,"x_max":394,"o":"m 151 1067 l 338 1067 q 382 1048 365 1067 q 394 1001 399 1029 l 231 -168 q 207 -212 226 -196 q 161 -229 188 -229 l -31 -229 l -22 -168 l 124 -168 q 150 -146 144 -168 l 310 988 q 294 1006 313 1006 l 143 1006 l 151 1067 z "},"^":{"ha":575,"x_min":69,"x_max":563,"o":"m 563 535 l 522 510 l 357 756 l 346 756 l 106 510 l 69 536 l 324 821 l 388 821 l 563 535 z "},"_":{"ha":817,"x_min":43,"x_max":658,"o":"m 649 -69 l 43 -69 l 54 0 l 658 0 l 649 -69 z "},"`":{"ha":418,"x_min":126,"x_max":393,"o":"m 393 793 l 358 753 l 126 935 l 178 997 l 393 793 z "},"a":{"ha":792,"x_min":81,"x_max":714,"o":"m 619 0 l 551 0 l 564 151 q 415 29 497 75 q 250 -17 332 -17 q 89 65 126 -17 q 81 342 51 146 q 122 521 97 453 q 189 626 146 589 q 285 677 232 664 q 421 690 338 690 q 714 663 547 690 l 619 0 m 564 228 l 618 610 q 446 615 471 615 q 342 608 382 615 q 272 586 303 601 q 223 536 242 571 q 192 456 204 501 q 168 335 179 411 q 164 119 144 176 q 264 61 183 61 q 564 228 400 61 z "},"b":{"ha":790,"x_min":58,"x_max":692,"o":"m 204 515 q 517 689 378 689 q 678 611 636 689 q 692 331 719 533 q 651 150 676 219 q 585 44 626 81 q 495 -4 543 8 q 371 -17 447 -17 q 58 29 219 -17 l 192 972 l 279 972 l 239 693 q 204 515 224 586 m 206 450 l 153 71 q 342 57 264 57 q 530 109 482 57 q 601 338 578 161 q 602 556 624 501 q 497 611 581 611 q 206 450 390 611 z "},"c":{"ha":668,"x_min":72,"x_max":636,"o":"m 557 75 l 564 14 q 343 -17 464 -17 q 106 65 168 -17 q 72 340 44 147 q 179 612 99 533 q 431 690 260 690 q 636 660 554 690 l 621 603 q 444 614 547 614 q 247 556 308 614 q 164 333 185 497 q 183 115 142 171 q 357 60 225 60 q 557 75 475 60 z "},"d":{"ha":790,"x_min":79,"x_max":756,"o":"m 756 972 l 618 0 l 550 0 l 563 157 q 235 -17 403 -17 q 88 67 125 -17 q 79 342 51 151 q 119 521 94 453 q 187 626 144 589 q 281 677 229 664 q 413 690 332 690 q 631 674 510 690 q 643 803 635 747 l 667 972 l 756 972 m 564 229 l 615 611 q 442 617 471 617 q 243 565 293 617 q 168 335 193 514 q 163 122 144 183 q 257 61 181 61 q 564 229 392 61 z "},"e":{"ha":740,"x_min":74,"x_max":676,"o":"m 600 76 l 607 17 q 336 -17 511 -17 q 106 69 167 -17 q 74 349 46 154 q 181 619 101 549 q 435 690 260 690 q 640 640 581 690 q 676 478 699 589 q 603 349 658 388 q 432 299 549 310 l 156 272 q 193 103 147 147 q 353 58 239 58 q 600 76 453 58 m 164 340 l 432 367 q 542 399 508 375 q 588 485 575 424 q 567 591 606 567 q 428 615 528 615 q 321 606 361 615 q 248 567 281 596 q 197 485 215 538 q 164 346 178 433 l 164 340 z "},"f":{"ha":511,"x_min":-171,"x_max":611,"o":"m 599 921 l 457 921 q 349 892 383 921 q 304 790 314 864 l 288 672 l 515 672 l 504 603 l 278 603 l 181 -92 q -24 -283 153 -283 q -171 -275 -89 -283 l -158 -210 l -51 -210 q 51 -181 18 -210 q 93 -79 83 -153 l 189 603 l 68 603 l 76 665 l 199 672 l 218 803 q 429 994 243 994 q 611 986 533 994 l 599 921 z "},"g":{"ha":796,"x_min":24,"x_max":721,"o":"m 721 663 l 622 6 q 267 -297 585 -285 q 24 -282 131 -306 l 33 -222 q 264 -222 151 -228 q 533 -8 497 -208 q 583 174 557 126 q 426 35 515 88 q 247 -17 336 -17 q 91 65 131 -17 q 81 342 51 146 q 122 521 97 453 q 190 626 147 589 q 283 677 232 664 q 414 690 333 690 q 714 663 547 690 l 721 663 m 567 229 l 624 610 q 444 615 474 615 q 246 565 296 615 q 169 335 196 514 q 165 119 146 178 q 265 61 185 61 q 567 229 401 61 z "},"h":{"ha":797,"x_min":57,"x_max":701,"o":"m 282 972 l 244 690 q 213 522 232 606 q 542 690 407 690 q 672 642 631 690 q 701 503 714 593 l 629 0 l 542 0 l 610 485 q 598 585 619 556 q 517 614 576 614 q 383 575 453 614 q 208 450 314 536 l 146 0 l 57 0 l 194 972 l 282 972 z "},"i":{"ha":328,"x_min":64,"x_max":286,"o":"m 219 956 l 260 956 q 286 925 290 956 l 275 843 q 244 817 271 817 l 204 817 q 176 847 172 817 l 189 929 q 219 956 190 956 m 151 0 l 64 0 l 158 672 l 246 672 l 151 0 z "},"j":{"ha":328,"x_min":-50,"x_max":286,"o":"m 219 956 l 260 956 q 286 925 290 956 l 275 843 q 244 817 271 817 l 204 817 q 176 847 172 817 l 189 929 q 219 956 190 956 m 246 672 l 146 -36 q -3 -286 125 -187 l -50 -246 q 58 -31 42 -147 l 158 672 l 246 672 z "},"k":{"ha":707,"x_min":58,"x_max":674,"o":"m 583 672 l 674 672 q 431 372 607 488 q 469 297 453 333 l 608 0 l 514 0 l 363 332 q 182 253 297 297 l 146 0 l 58 0 l 194 972 l 283 972 l 215 476 q 181 328 207 410 q 436 473 329 385 q 583 672 543 561 z "},"l":{"ha":393,"x_min":81,"x_max":329,"o":"m 283 972 l 171 165 q 183 92 163 115 q 253 69 203 69 l 325 69 l 329 3 q 218 -11 296 -11 q 108 32 144 -11 q 81 153 71 75 l 196 972 l 283 972 z "},"m":{"ha":1214,"x_min":57,"x_max":1117,"o":"m 219 672 l 207 521 q 508 690 383 690 q 631 648 590 690 q 668 529 672 606 q 960 690 836 690 q 1089 641 1049 690 q 1117 503 1129 592 l 1046 0 l 958 0 l 1028 485 q 1013 584 1038 554 q 929 614 989 614 q 817 578 874 614 q 658 451 760 543 l 594 0 l 510 0 l 578 485 q 565 583 588 553 q 479 614 542 614 q 366 578 424 614 q 208 453 308 542 l 144 0 l 57 0 l 153 672 l 219 672 z "},"n":{"ha":797,"x_min":57,"x_max":701,"o":"m 222 672 l 208 519 q 542 690 403 690 q 672 642 631 690 q 701 503 714 593 l 629 0 l 542 0 l 610 485 q 598 585 619 556 q 517 614 576 614 q 384 576 453 614 q 208 453 315 538 l 146 0 l 57 0 l 153 672 l 222 672 z "},"o":{"ha":781,"x_min":72,"x_max":689,"o":"m 178 611 q 217 651 178 611 q 425 690 257 690 q 655 608 593 690 q 689 332 717 525 q 583 62 663 140 q 338 -17 504 -17 q 107 65 168 -17 q 72 340 46 146 q 178 611 99 532 m 425 614 q 244 553 301 614 q 164 332 186 493 q 179 117 142 175 q 338 58 217 58 q 519 119 461 58 q 599 340 576 181 q 583 556 621 497 q 425 614 546 614 z "},"p":{"ha":793,"x_min":17,"x_max":693,"o":"m 222 672 l 208 515 q 367 639 278 589 q 525 689 456 689 q 684 609 647 689 q 693 331 721 529 q 651 152 676 221 q 584 47 626 83 q 490 -3 542 10 q 357 -17 439 -17 q 140 -1 254 -17 q 129 -131 139 -67 l 104 -290 l 17 -290 l 153 672 l 222 672 m 208 444 l 156 61 q 328 57 265 57 q 451 66 407 57 q 527 108 494 75 q 575 192 560 140 q 604 338 590 243 q 608 553 628 496 q 508 611 589 611 q 369 567 451 611 q 208 444 288 522 z "},"q":{"ha":788,"x_min":78,"x_max":710,"o":"m 710 643 l 576 -290 l 489 -290 l 531 -15 q 569 164 544 90 q 246 -17 408 -17 q 94 63 136 -17 q 78 342 51 142 q 118 522 93 453 q 184 628 143 592 q 273 678 225 665 q 396 690 321 690 q 710 643 544 690 m 564 229 l 615 601 q 426 615 519 615 q 239 563 288 615 q 168 335 190 511 q 166 119 146 178 q 269 61 186 61 q 403 99 340 61 q 564 229 467 136 z "},"r":{"ha":546,"x_min":57,"x_max":560,"o":"m 560 690 l 538 607 l 506 607 q 382 570 447 607 q 208 449 317 533 l 146 0 l 57 0 l 153 672 l 219 672 l 207 514 q 528 690 392 690 l 560 690 z "},"s":{"ha":699,"x_min":35,"x_max":642,"o":"m 415 265 l 215 349 q 110 420 142 381 q 89 535 79 460 q 167 662 103 631 q 367 690 231 693 q 642 669 511 688 l 631 607 q 369 615 504 614 q 222 602 261 617 q 175 528 183 588 q 188 459 168 481 q 260 415 207 438 l 461 332 q 572 260 542 299 q 593 147 603 222 q 569 72 588 103 q 528 24 551 42 q 465 -2 506 7 q 386 -14 425 -11 q 286 -17 347 -17 q 35 3 190 -17 l 46 68 q 269 58 132 58 q 450 79 403 61 q 506 156 497 97 q 499 209 511 188 q 472 240 488 231 q 415 265 456 249 z "},"t":{"ha":507,"x_min":64,"x_max":511,"o":"m 274 603 l 213 165 q 225 92 206 114 q 296 69 244 69 l 407 69 l 411 3 q 271 -11 350 -11 q 151 33 188 -11 q 125 158 114 78 l 188 603 l 64 603 l 72 665 l 197 672 l 226 876 l 313 876 l 285 672 l 511 672 l 500 603 l 274 603 z "},"u":{"ha":782,"x_min":76,"x_max":706,"o":"m 706 672 l 611 0 l 543 0 l 557 157 q 236 -17 379 -17 q 105 32 146 -17 q 76 169 64 81 l 147 672 l 236 672 l 167 189 q 180 90 157 121 q 264 60 203 60 q 392 99 328 60 q 557 231 456 139 l 618 672 l 706 672 z "},"v":{"ha":724,"x_min":69,"x_max":703,"o":"m 611 672 l 703 672 q 560 274 656 460 q 426 57 475 117 q 380 13 404 26 q 317 0 356 0 l 236 0 q 204 25 210 0 l 69 672 l 161 672 l 275 71 l 299 71 q 338 78 324 71 q 369 108 351 86 q 486 310 424 179 q 611 672 574 485 z "},"w":{"ha":1163,"x_min":69,"x_max":1135,"o":"m 264 71 l 282 71 q 342 113 317 71 q 435 311 386 181 q 528 650 488 453 q 554 672 531 675 l 650 672 q 676 650 671 672 l 753 71 l 769 71 q 825 110 800 71 q 935 311 896 217 q 1043 672 1001 458 l 1135 672 q 1003 274 1083 446 q 875 54 931 122 q 775 0 833 0 l 715 0 q 685 25 688 0 l 608 613 l 593 613 q 507 289 569 457 q 397 67 456 147 q 279 0 357 0 l 225 0 q 194 25 200 0 l 69 672 l 160 672 l 264 71 z "},"x":{"ha":718,"x_min":-21,"x_max":703,"o":"m 439 349 l 625 0 l 535 0 l 369 315 l 333 315 l 81 0 l -21 0 l 265 350 l 93 672 l 183 672 l 332 386 l 372 386 l 606 672 l 703 672 l 439 349 z "},"y":{"ha":735,"x_min":51,"x_max":710,"o":"m 618 672 l 710 672 q 485 101 632 351 q 283 -175 378 -86 q 67 -287 188 -264 l 51 -226 q 331 0 207 -183 l 274 0 q 226 16 246 0 q 200 58 206 32 l 67 672 l 160 672 l 275 100 q 310 71 282 71 l 375 71 l 407 126 q 618 672 547 375 z "},"z":{"ha":690,"x_min":11,"x_max":657,"o":"m 647 600 l 125 74 l 576 74 l 567 0 l 11 0 l 19 74 l 542 600 l 100 600 l 110 672 l 657 672 l 647 600 z "},"{":{"ha":432,"x_min":68,"x_max":461,"o":"m 461 1067 l 457 1010 q 349 978 383 1010 q 303 878 314 947 l 267 617 q 228 501 256 532 q 128 456 201 471 q 216 399 196 431 q 226 296 236 368 l 179 -44 q 193 -143 169 -114 q 292 -172 217 -172 l 288 -229 q 128 -189 175 -235 q 96 -46 81 -143 l 146 317 q 140 383 153 367 q 78 418 126 400 q 68 422 71 421 l 78 492 q 155 524 138 508 q 181 604 172 540 l 221 888 q 290 1030 235 986 q 461 1067 346 1074 z "},"|":{"ha":335,"x_min":44,"x_max":296,"o":"m 110 -235 l 44 -235 l 229 1085 l 296 1085 l 110 -235 z "},"}":{"ha":432,"x_min":-31,"x_max":376,"o":"m 147 1010 l 151 1067 q 312 1026 265 1074 q 344 883 358 979 l 304 600 q 308 522 296 536 q 376 489 319 507 l 367 419 q 322 403 333 408 q 293 385 310 397 q 270 357 276 374 q 260 313 264 340 l 208 -50 q 140 -192 194 -149 q -31 -229 86 -235 l -26 -172 q 81 -141 47 -172 q 125 -42 115 -110 l 172 300 q 211 402 183 372 q 317 456 239 432 q 230 504 250 471 q 224 621 210 538 l 260 882 q 246 981 269 951 q 147 1010 222 1010 z "},"~":{"ha":731,"x_min":99,"x_max":629,"o":"m 146 321 l 99 325 q 136 439 103 401 q 219 474 169 476 q 364 431 276 471 q 496 388 451 392 q 556 404 536 385 q 582 469 575 424 l 629 465 q 592 355 626 393 q 508 321 558 317 q 356 363 442 324 q 232 406 269 403 q 172 389 192 410 q 146 321 153 368 z "}," ":{"ha":314,"x_min":0,"x_max":0,"o":""},"¡":{"ha":342,"x_min":31,"x_max":251,"o":"m 196 678 l 221 678 q 251 642 257 678 l 240 564 q 203 531 236 531 l 179 531 q 147 565 143 531 l 158 646 q 196 678 163 678 m 179 156 l 119 -276 l 31 -276 l 92 156 l 133 389 l 204 389 l 179 156 z "},"¢":{"ha":700,"x_min":93,"x_max":657,"o":"m 657 807 l 642 751 q 490 761 561 761 l 371 207 l 378 207 q 578 222 486 207 l 585 161 q 364 131 481 131 l 351 131 l 322 0 l 274 0 l 304 133 q 117 228 165 146 q 93 489 68 311 q 201 760 121 682 q 451 838 282 838 l 461 838 l 488 958 l 536 958 l 508 835 q 657 807 599 829 m 322 208 l 442 761 q 263 698 319 757 q 185 482 206 639 q 196 277 165 336 q 322 208 226 218 z "},"£":{"ha":783,"x_min":32,"x_max":754,"o":"m 754 960 l 743 889 q 503 896 615 896 q 366 858 408 896 q 315 725 324 819 l 299 533 l 614 533 l 603 476 l 294 476 l 283 357 q 244 186 275 253 q 144 75 213 119 q 231 78 172 78 l 665 78 l 654 0 l 32 0 l 43 79 q 194 357 176 146 l 206 476 l 93 476 l 101 533 l 210 533 l 228 729 q 257 859 235 808 q 319 934 279 910 q 403 966 360 958 q 515 974 447 974 q 754 960 621 974 z "},"¤":{"ha":829,"x_min":81,"x_max":767,"o":"m 767 757 l 658 661 q 694 485 707 589 q 619 311 685 382 l 715 203 l 672 165 l 578 274 q 399 219 501 219 q 228 279 294 219 l 119 183 l 81 226 l 190 322 q 157 493 144 394 q 235 672 169 603 l 142 779 l 183 819 l 279 710 q 453 760 351 760 q 621 704 554 760 l 729 801 l 767 757 m 394 274 q 561 331 494 271 q 639 493 628 392 q 599 647 649 588 q 453 706 549 706 q 288 645 351 706 q 213 485 224 585 q 252 333 203 390 q 394 274 301 275 z "},"¥":{"ha":847,"x_min":99,"x_max":865,"o":"m 513 440 l 728 440 l 719 385 l 474 385 l 460 364 l 449 285 l 706 285 l 697 229 l 442 229 l 410 0 l 318 0 l 350 229 l 99 229 l 107 285 l 358 285 l 369 368 l 363 385 l 121 385 l 128 440 l 340 440 l 132 958 l 225 958 l 385 553 q 419 450 410 489 l 431 450 q 492 556 456 503 l 764 958 l 865 958 l 513 440 z "},"¦":{"ha":335,"x_min":44,"x_max":296,"o":"m 218 529 l 151 529 l 229 1085 l 296 1085 l 218 529 m 111 -235 l 44 -235 l 122 321 l 189 321 l 111 -235 z "},"§":{"ha":756,"x_min":15,"x_max":733,"o":"m 492 454 l 264 597 q 165 689 193 640 q 149 811 138 738 q 229 944 164 911 q 431 975 294 976 q 733 958 599 975 l 721 890 q 450 900 596 899 q 298 884 344 901 q 240 801 251 867 q 253 720 233 751 q 315 663 272 689 l 539 525 q 641 394 626 472 q 617 206 656 315 l 550 207 q 563 356 574 296 q 492 454 551 417 m 133 551 l 199 550 q 184 404 174 461 q 256 310 194 347 l 486 167 q 583 76 556 125 q 600 -49 611 28 q 576 -126 593 -94 q 536 -175 558 -157 q 476 -202 514 -193 q 405 -213 439 -211 q 318 -215 371 -215 q 15 -199 157 -212 l 28 -131 q 299 -140 164 -139 q 378 -138 349 -140 q 438 -127 407 -136 q 486 -96 469 -118 q 508 -37 503 -74 q 433 103 519 49 l 213 236 q 108 365 124 289 q 133 551 93 440 z "},"¨":{"ha":565,"x_min":194,"x_max":528,"o":"m 238 956 l 265 956 q 289 928 293 956 l 278 853 q 247 825 274 825 l 219 825 q 194 851 193 825 l 206 928 q 238 956 210 956 m 476 956 l 503 956 q 528 928 532 956 l 515 853 q 486 825 514 825 l 457 825 q 433 851 429 825 l 444 928 q 476 956 449 956 z "},"©":{"ha":1169,"x_min":99,"x_max":1092,"o":"m 654 975 q 997 836 872 975 q 1092 475 1121 697 q 913 121 1064 258 q 535 -17 763 -17 q 192 124 315 -17 q 99 483 69 264 q 276 837 126 699 q 654 975 426 975 m 657 926 q 313 801 451 926 q 149 475 175 675 q 233 154 124 276 q 533 32 343 32 q 877 158 739 32 q 1040 483 1015 283 q 958 803 1067 679 q 657 926 850 926 m 760 242 l 764 190 q 571 171 674 171 q 360 241 413 171 q 332 486 308 311 q 426 727 356 660 q 649 794 496 794 q 828 776 750 794 l 817 726 q 656 733 744 733 q 476 682 529 733 q 401 479 424 631 q 416 287 382 340 q 561 233 450 233 q 760 242 690 233 z "},"ª":{"ha":618,"x_min":118,"x_max":564,"o":"m 501 375 l 447 375 l 453 467 q 251 365 361 365 q 132 417 165 365 q 118 607 99 468 q 193 795 138 750 q 357 840 249 840 q 564 821 454 840 l 501 375 m 456 528 l 492 779 q 378 782 394 782 q 240 749 278 782 q 186 601 203 717 q 188 461 171 494 q 263 428 204 428 q 456 528 349 428 z "},"«":{"ha":650,"x_min":54,"x_max":596,"o":"m 356 601 l 132 347 l 289 89 l 244 58 l 54 342 l 57 364 l 318 635 l 356 601 m 596 601 l 372 347 l 529 89 l 485 58 l 294 342 l 297 364 l 558 635 l 596 601 z "},"¬":{"ha":817,"x_min":103,"x_max":711,"o":"m 711 447 l 674 186 l 603 186 l 631 378 l 103 378 l 113 447 l 711 447 z "},"­":{"ha":638,"x_min":93,"x_max":528,"o":"m 518 315 l 93 315 l 101 385 l 528 385 l 518 315 z "},"®":{"ha":783,"x_min":119,"x_max":736,"o":"m 456 974 q 674 890 594 974 q 736 663 753 806 q 629 440 719 525 q 401 356 539 356 q 181 444 260 356 q 119 674 103 532 q 227 894 135 814 q 456 974 319 974 m 701 669 q 648 869 715 797 q 456 942 581 942 q 247 867 326 942 q 154 668 168 792 q 210 464 140 539 q 401 389 279 389 q 608 467 528 389 q 701 669 688 544 m 260 481 l 313 851 q 456 856 364 856 q 567 835 533 856 q 593 747 601 814 q 567 682 588 703 q 503 653 547 661 l 501 650 q 540 596 529 640 l 571 481 l 524 481 l 496 597 q 442 639 485 639 l 328 639 l 304 481 l 260 481 m 332 672 l 438 672 q 519 688 494 674 q 549 751 543 703 q 535 808 554 796 q 457 821 517 821 l 353 821 l 332 672 z "},"¯":{"ha":556,"x_min":161,"x_max":549,"o":"m 539 854 l 161 854 l 171 922 l 549 922 l 539 854 z "},"°":{"ha":514,"x_min":135,"x_max":488,"o":"m 325 975 q 450 924 404 975 q 488 797 496 874 q 426 673 481 721 q 296 625 372 625 q 172 678 215 625 q 135 806 128 731 q 195 928 142 882 q 325 975 249 975 m 324 921 q 235 888 271 921 q 193 801 199 854 q 217 715 188 749 q 299 681 247 681 q 388 713 351 681 q 429 801 424 746 q 406 888 435 854 q 324 921 378 921 z "},"±":{"ha":818,"x_min":68,"x_max":725,"o":"m 725 526 l 715 458 l 451 458 l 424 267 l 356 267 l 382 458 l 117 458 l 126 526 l 390 526 l 417 718 l 488 718 l 461 526 l 725 526 m 78 176 l 676 176 l 665 108 l 68 108 l 78 176 z "},"²":{"ha":583,"x_min":101,"x_max":546,"o":"m 186 1008 l 183 1064 q 371 1085 285 1085 q 510 1058 465 1085 q 546 958 556 1031 q 509 860 540 906 q 407 750 478 815 l 199 564 q 296 568 244 568 l 514 568 l 506 500 l 101 500 l 107 546 q 119 576 110 567 l 333 767 q 475 961 468 886 q 453 1011 479 1000 q 367 1022 428 1022 q 186 1008 283 1022 z "},"³":{"ha":558,"x_min":100,"x_max":532,"o":"m 190 1015 l 186 1071 q 357 1085 278 1085 q 499 1052 458 1085 q 532 950 539 1019 q 499 852 525 894 q 421 804 472 810 l 419 800 q 510 657 529 783 q 281 490 486 497 q 100 504 197 486 l 110 560 q 275 553 218 550 q 440 671 424 563 q 425 747 449 718 q 331 775 401 775 l 214 775 l 221 829 l 335 831 q 430 861 403 832 q 464 939 457 890 q 447 1006 471 989 q 343 1024 424 1024 q 190 1015 276 1024 z "},"´":{"ha":418,"x_min":142,"x_max":442,"o":"m 442 931 l 172 753 l 142 794 l 397 999 l 442 931 z "},"¶":{"ha":824,"x_min":92,"x_max":761,"o":"m 626 0 l 556 0 l 683 906 q 522 914 600 914 l 353 -292 l 282 -292 l 363 279 q 133 386 197 297 q 92 642 68 475 q 221 904 119 833 q 549 975 322 975 q 761 951 663 975 l 626 0 z "},"·":{"ha":310,"x_min":93,"x_max":203,"o":"m 142 432 l 172 432 q 203 396 210 432 l 192 315 q 156 283 188 283 l 125 283 q 93 319 89 283 l 106 400 q 142 432 110 432 z "},"¸":{"ha":317,"x_min":-39,"x_max":200,"o":"m 61 -106 l 72 -62 q 178 -77 147 -56 q 200 -157 210 -99 q 122 -282 188 -237 q -39 -314 56 -326 l -22 -265 q 83 -235 39 -267 q 135 -156 126 -204 q 124 -117 139 -126 q 61 -106 110 -107 z "},"¹":{"ha":394,"x_min":136,"x_max":378,"o":"m 296 500 l 225 500 l 292 960 q 301 1010 297 993 l 138 964 l 136 1017 l 306 1075 l 378 1075 l 296 500 z "},"º":{"ha":615,"x_min":115,"x_max":553,"o":"m 361 840 q 528 785 485 840 q 553 599 571 731 q 478 418 535 471 q 306 365 422 365 q 141 420 185 365 q 115 607 97 475 q 188 788 133 736 q 361 840 243 840 m 363 783 q 238 744 275 783 q 185 599 200 704 q 197 460 171 497 q 306 424 222 424 q 429 463 390 424 q 482 607 468 503 q 470 746 496 708 q 363 783 444 783 z "},"»":{"ha":650,"x_min":38,"x_max":578,"o":"m 38 90 l 261 343 l 104 603 l 149 632 l 338 349 l 336 328 l 74 56 l 38 90 m 278 90 l 501 343 l 344 603 l 389 632 l 578 349 l 576 328 l 314 56 l 278 90 z "},"¼":{"ha":1179,"x_min":121,"x_max":1092,"o":"m 961 958 l 189 0 l 121 0 l 893 958 l 961 958 m 126 850 l 125 899 l 299 958 l 369 958 l 289 383 l 218 383 l 283 846 q 293 897 290 889 l 126 850 m 1085 151 l 1015 146 l 996 0 l 929 0 l 949 144 l 664 144 q 615 168 629 144 q 621 228 601 192 l 857 575 l 928 575 l 697 232 q 694 210 689 219 q 715 200 699 200 l 957 200 l 981 371 l 1007 465 l 1061 465 l 1024 200 l 1092 200 l 1085 151 z "},"½":{"ha":1211,"x_min":114,"x_max":1124,"o":"m 182 0 l 114 0 l 886 958 l 954 958 l 182 0 m 288 383 l 217 383 l 282 846 q 293 897 288 879 l 126 850 l 124 899 l 299 958 l 368 958 l 288 383 m 749 511 l 744 564 q 936 585 850 585 q 1090 558 1044 585 q 1124 454 1135 532 q 1084 359 1118 407 q 979 249 1050 311 l 758 61 q 860 63 828 64 l 1096 63 l 1086 0 l 663 0 l 668 42 q 682 72 669 60 l 903 263 q 1049 458 1038 381 q 1027 513 1054 500 q 936 525 1000 525 q 749 511 850 525 z "},"¾":{"ha":1308,"x_min":81,"x_max":1221,"o":"m 408 688 l 401 685 q 504 536 518 668 q 443 410 493 449 q 282 371 393 371 q 81 385 206 371 l 88 438 q 264 429 179 429 q 385 458 346 429 q 433 553 424 486 q 417 628 440 600 q 317 656 394 656 l 196 656 l 203 707 l 319 708 q 458 821 446 711 q 440 890 465 872 q 336 907 415 907 q 168 900 242 907 l 165 951 q 342 965 257 965 q 499 935 457 965 q 529 829 540 906 q 408 688 513 703 m 1106 958 l 333 0 l 265 0 l 1038 958 l 1106 958 m 1213 151 l 1136 144 l 1117 0 l 1050 0 l 1069 144 l 793 144 q 744 168 758 144 q 750 228 729 192 l 986 575 l 1056 575 l 825 232 q 822 210 817 219 q 843 200 826 200 l 1078 200 l 1101 371 l 1128 465 l 1182 465 l 1144 200 l 1221 200 l 1213 151 z "},"¿":{"ha":688,"x_min":-7,"x_max":543,"o":"m 382 689 l 407 689 q 439 653 443 689 l 428 574 q 392 540 424 540 l 367 540 q 336 576 331 540 l 347 657 q 382 689 351 689 m 318 400 l 393 397 q 351 267 383 326 q 278 167 318 207 q 197 92 238 128 q 124 13 156 56 q 86 -76 93 -29 q 115 -188 74 -153 q 260 -224 157 -224 q 539 -208 418 -224 l 543 -272 q 493 -281 532 -274 q 440 -289 454 -287 q 393 -294 426 -290 q 325 -299 360 -297 q 244 -300 290 -300 q 42 -242 107 -300 q -7 -81 -22 -185 q 33 25 0 -24 q 109 111 67 74 q 194 188 151 149 q 273 281 238 226 q 318 400 308 335 z "},"À":{"ha":850,"x_min":-37,"x_max":779,"o":"m 547 1015 l 315 1196 l 367 1260 l 582 1056 l 547 1015 m 626 317 l 208 317 l 60 0 l -37 0 l 414 935 q 451 958 424 958 l 556 958 q 578 950 568 958 q 589 931 588 942 l 779 0 l 688 0 l 626 317 m 611 397 l 532 807 q 525 847 529 821 q 519 888 521 874 l 478 888 q 460 850 474 879 q 440 807 447 821 l 247 397 l 611 397 z "},"Á":{"ha":850,"x_min":-37,"x_max":779,"o":"m 468 1015 l 438 1057 l 692 1261 l 738 1193 l 468 1015 m 626 317 l 208 317 l 60 0 l -37 0 l 414 935 q 451 958 424 958 l 556 958 q 578 950 568 958 q 589 931 588 942 l 779 0 l 688 0 l 626 317 m 611 397 l 532 807 q 525 847 529 821 q 519 888 521 874 l 478 888 q 460 850 474 879 q 440 807 447 821 l 247 397 l 611 397 z "},"Â":{"ha":850,"x_min":-37,"x_max":779,"o":"m 331 1025 l 304 1065 l 511 1236 l 575 1236 l 746 1060 l 711 1024 l 547 1165 l 535 1165 l 331 1025 m 626 317 l 208 317 l 60 0 l -37 0 l 414 935 q 451 958 424 958 l 556 958 q 578 950 568 958 q 589 931 588 942 l 779 0 l 688 0 l 626 317 m 611 397 l 532 807 q 525 847 529 821 q 519 888 521 874 l 478 888 q 460 850 474 879 q 440 807 447 821 l 247 397 l 611 397 z "},"Ã":{"ha":850,"x_min":-37,"x_max":779,"o":"m 711 1210 l 754 1206 q 718 1099 751 1135 q 633 1067 685 1063 q 525 1109 581 1071 q 442 1150 469 1147 q 353 1067 365 1157 l 310 1071 q 348 1182 314 1144 q 432 1215 382 1219 q 531 1174 476 1211 q 622 1132 586 1136 q 684 1147 664 1128 q 711 1210 704 1165 m 626 317 l 208 317 l 60 0 l -37 0 l 414 935 q 451 958 424 958 l 556 958 q 578 950 568 958 q 589 931 588 942 l 779 0 l 688 0 l 626 317 m 611 397 l 532 807 q 525 847 529 821 q 519 888 521 874 l 478 888 q 460 850 474 879 q 440 807 447 821 l 247 397 l 611 397 z "},"Ä":{"ha":850,"x_min":-37,"x_max":779,"o":"m 418 1071 l 389 1071 q 365 1097 361 1071 l 376 1174 q 408 1201 381 1201 l 435 1201 q 460 1174 464 1201 l 447 1099 q 418 1071 446 1071 m 657 1071 l 628 1071 q 604 1097 600 1071 l 615 1174 q 646 1201 619 1201 l 674 1201 q 699 1174 703 1201 l 686 1099 q 657 1071 685 1071 m 626 317 l 208 317 l 60 0 l -37 0 l 414 935 q 451 958 424 958 l 556 958 q 578 950 568 958 q 589 931 588 942 l 779 0 l 688 0 l 626 317 m 611 397 l 532 807 q 525 847 529 821 q 519 888 521 874 l 478 888 q 460 850 474 879 q 440 807 447 821 l 247 397 l 611 397 z "},"Å":{"ha":850,"x_min":-37,"x_max":779,"o":"m 522 994 q 420 1036 458 994 q 389 1139 382 1078 q 438 1236 396 1196 q 542 1276 479 1276 q 644 1235 606 1276 q 675 1131 682 1193 q 626 1034 667 1074 q 522 994 585 994 m 442 1135 q 460 1068 438 1093 q 522 1043 483 1043 q 590 1070 563 1043 q 622 1138 618 1097 q 604 1202 626 1176 q 542 1228 582 1228 q 474 1201 501 1228 q 442 1135 446 1175 m 626 317 l 208 317 l 60 0 l -37 0 l 414 935 q 451 958 424 958 l 556 958 q 578 950 568 958 q 589 931 588 942 l 779 0 l 688 0 l 626 317 m 611 397 l 532 807 q 525 847 529 821 q 519 888 521 874 l 478 888 q 460 850 474 879 q 440 807 447 821 l 247 397 l 611 397 z "},"Æ":{"ha":1263,"x_min":-53,"x_max":1265,"o":"m 1254 882 l 893 882 q 778 779 793 882 l 744 544 l 1150 544 l 1142 472 l 735 472 l 694 176 q 778 76 679 76 l 1142 76 l 1138 7 q 761 -1 986 -1 q 638 47 681 -1 q 607 174 594 94 l 629 335 l 297 335 l 46 0 l -53 0 l 565 821 q 691 931 626 903 q 864 958 756 958 q 1265 951 1122 958 l 1254 882 m 640 413 l 693 792 q 715 851 697 822 q 754 892 732 881 l 749 892 q 644 799 697 867 l 357 413 l 640 413 z "},"Ç":{"ha":782,"x_min":103,"x_max":788,"o":"m 674 81 l 681 13 q 406 -17 568 -17 q 133 99 203 -17 q 103 483 64 215 q 236 865 140 756 q 533 975 332 975 q 788 949 678 975 l 771 881 q 533 893 669 893 q 303 805 375 893 q 196 475 231 717 q 209 154 164 243 q 406 65 254 65 q 674 81 554 64 m 318 -122 l 328 -79 q 434 -94 401 -72 q 457 -174 467 -115 q 377 -299 443 -254 q 218 -331 311 -343 l 235 -282 q 339 -252 294 -283 q 392 -172 383 -221 q 381 -133 396 -143 q 318 -122 367 -124 z "},"È":{"ha":771,"x_min":86,"x_max":772,"o":"m 546 1046 l 314 1228 l 365 1290 l 581 1086 l 546 1046 m 760 882 l 374 882 q 263 779 275 882 l 229 543 l 658 543 l 649 472 l 219 472 l 179 175 q 263 76 164 76 l 646 76 l 646 7 q 250 -1 518 -1 q 118 46 161 -1 q 86 174 75 93 l 175 804 q 233 918 185 876 q 361 960 282 960 q 772 951 643 960 l 760 882 z "},"É":{"ha":771,"x_min":86,"x_max":772,"o":"m 465 1046 l 435 1088 l 690 1292 l 735 1224 l 465 1046 m 760 882 l 374 882 q 263 779 275 882 l 229 543 l 658 543 l 649 472 l 219 472 l 179 175 q 263 76 164 76 l 646 76 l 646 7 q 250 -1 518 -1 q 118 46 161 -1 q 86 174 75 93 l 175 804 q 233 918 185 876 q 361 960 282 960 q 772 951 643 960 l 760 882 z "},"Ê":{"ha":771,"x_min":86,"x_max":772,"o":"m 329 1056 l 301 1096 l 510 1268 l 572 1268 l 743 1092 l 710 1056 l 546 1196 l 533 1196 l 329 1056 m 760 882 l 374 882 q 263 779 275 882 l 229 543 l 658 543 l 649 472 l 219 472 l 179 175 q 263 76 164 76 l 646 76 l 646 7 q 250 -1 518 -1 q 118 46 161 -1 q 86 174 75 93 l 175 804 q 233 918 185 876 q 361 960 282 960 q 772 951 643 960 l 760 882 z "},"Ë":{"ha":771,"x_min":86,"x_max":772,"o":"m 417 1101 l 388 1101 q 364 1128 360 1101 l 375 1204 q 406 1232 379 1232 l 433 1232 q 458 1204 463 1232 l 446 1129 q 417 1101 444 1101 m 656 1101 l 626 1101 q 601 1128 600 1101 l 614 1204 q 644 1232 618 1232 l 672 1232 q 696 1204 700 1232 l 685 1129 q 656 1101 683 1101 m 760 882 l 374 882 q 263 779 275 882 l 229 543 l 658 543 l 649 472 l 219 472 l 179 175 q 263 76 164 76 l 646 76 l 646 7 q 250 -1 518 -1 q 118 46 161 -1 q 86 174 75 93 l 175 804 q 233 918 185 876 q 361 960 282 960 q 772 951 643 960 l 760 882 z "},"Ì":{"ha":347,"x_min":60,"x_max":326,"o":"m 326 1056 l 292 1015 l 60 1196 l 111 1260 l 326 1056 m 163 0 l 71 0 l 206 958 l 297 958 l 163 0 z "},"Í":{"ha":347,"x_min":71,"x_max":482,"o":"m 482 1193 l 211 1015 l 181 1057 l 436 1261 l 482 1193 m 163 0 l 71 0 l 206 958 l 297 958 l 163 0 z "},"Î":{"ha":347,"x_min":49,"x_max":489,"o":"m 489 1060 l 456 1024 l 292 1165 l 279 1165 l 75 1025 l 49 1065 l 256 1236 l 318 1236 l 489 1060 m 163 0 l 71 0 l 206 958 l 297 958 l 163 0 z "},"Ï":{"ha":347,"x_min":71,"x_max":443,"o":"m 151 1201 l 179 1201 q 204 1174 208 1201 l 192 1099 q 163 1071 190 1071 l 133 1071 q 110 1097 106 1071 l 121 1174 q 151 1201 125 1201 m 390 1201 l 418 1201 q 443 1174 447 1201 l 431 1099 q 401 1071 429 1071 l 372 1071 q 347 1097 346 1071 l 360 1174 q 390 1201 364 1201 m 163 0 l 71 0 l 206 958 l 297 958 l 163 0 z "},"Ð":{"ha":918,"x_min":39,"x_max":836,"o":"m 147 539 l 206 958 q 521 971 375 971 q 803 860 732 971 q 836 475 875 750 q 783 231 815 325 q 694 83 750 138 q 569 8 639 28 q 390 -12 499 -12 q 71 0 249 -12 l 139 485 l 39 485 l 46 539 l 147 539 m 231 485 l 172 71 q 389 68 311 68 q 570 103 504 68 q 677 226 636 138 q 742 483 718 314 q 729 807 776 722 q 519 892 682 892 q 288 888 504 892 l 238 539 l 465 539 l 457 485 l 231 485 z "},"Ñ":{"ha":969,"x_min":71,"x_max":919,"o":"m 419 1067 l 375 1071 q 415 1182 381 1144 q 499 1215 449 1219 q 598 1174 543 1211 q 689 1132 653 1136 q 750 1147 729 1128 q 778 1210 771 1167 l 821 1206 q 785 1099 818 1135 q 700 1067 751 1063 q 592 1109 647 1071 q 508 1150 536 1147 q 419 1067 432 1157 m 919 958 l 789 36 q 749 0 785 0 l 657 0 q 617 32 629 0 l 344 761 q 307 874 315 840 l 279 874 q 267 754 275 814 l 163 0 l 71 0 l 200 922 q 242 958 206 958 l 329 958 q 371 926 360 958 l 636 215 q 681 85 665 133 l 711 85 q 726 218 715 129 l 829 958 l 919 958 z "},"Ò":{"ha":922,"x_min":103,"x_max":840,"o":"m 618 1056 l 583 1015 l 351 1196 l 403 1260 l 618 1056 m 536 975 q 808 862 738 975 q 840 475 879 749 q 707 92 803 200 q 410 -17 611 -17 q 137 96 208 -17 q 103 483 65 208 q 236 866 140 757 q 536 975 332 975 m 533 894 q 303 804 375 894 q 196 475 231 714 q 210 153 164 243 q 411 64 257 64 q 640 155 567 64 q 746 483 713 246 q 735 806 781 718 q 533 894 689 894 z "},"Ó":{"ha":922,"x_min":103,"x_max":840,"o":"m 772 1193 l 503 1015 l 472 1057 l 728 1261 l 772 1193 m 536 975 q 808 862 738 975 q 840 475 879 749 q 707 92 803 200 q 410 -17 611 -17 q 137 96 208 -17 q 103 483 65 208 q 236 866 140 757 q 536 975 332 975 m 533 894 q 303 804 375 894 q 196 475 231 714 q 210 153 164 243 q 411 64 257 64 q 640 155 567 64 q 746 483 713 246 q 735 806 781 718 q 533 894 689 894 z "},"Ô":{"ha":922,"x_min":103,"x_max":840,"o":"m 781 1060 l 746 1024 l 583 1165 l 571 1165 l 367 1025 l 339 1065 l 547 1236 l 610 1236 l 781 1060 m 536 975 q 808 862 738 975 q 840 475 879 749 q 707 92 803 200 q 410 -17 611 -17 q 137 96 208 -17 q 103 483 65 208 q 236 866 140 757 q 536 975 332 975 m 533 894 q 303 804 375 894 q 196 475 231 714 q 210 153 164 243 q 411 64 257 64 q 640 155 567 64 q 746 483 713 246 q 735 806 781 718 q 533 894 689 894 z "},"Õ":{"ha":922,"x_min":103,"x_max":840,"o":"m 389 1067 l 344 1071 q 384 1182 350 1144 q 468 1215 418 1219 q 567 1174 513 1211 q 658 1132 622 1136 q 746 1210 735 1124 l 790 1206 q 753 1099 786 1135 q 669 1067 721 1063 q 561 1109 617 1071 q 478 1150 506 1147 q 389 1067 401 1157 m 536 975 q 808 862 738 975 q 840 475 879 749 q 707 92 803 200 q 410 -17 611 -17 q 137 96 208 -17 q 103 483 65 208 q 236 866 140 757 q 536 975 332 975 m 533 894 q 303 804 375 894 q 196 475 231 714 q 210 153 164 243 q 411 64 257 64 q 640 155 567 64 q 746 483 713 246 q 735 806 781 718 q 533 894 689 894 z "},"Ö":{"ha":922,"x_min":103,"x_max":840,"o":"m 443 1201 l 471 1201 q 494 1174 499 1201 l 483 1099 q 454 1071 482 1071 l 425 1071 q 400 1097 399 1071 l 413 1174 q 443 1201 417 1201 m 682 1201 l 710 1201 q 733 1174 738 1201 l 722 1099 q 692 1071 718 1071 l 664 1071 q 639 1097 638 1071 l 651 1174 q 682 1201 656 1201 m 536 975 q 808 862 738 975 q 840 475 879 749 q 707 92 803 200 q 410 -17 611 -17 q 137 96 208 -17 q 103 483 65 208 q 236 866 140 757 q 536 975 332 975 m 533 894 q 303 804 375 894 q 196 475 231 714 q 210 153 164 243 q 411 64 257 64 q 640 155 567 64 q 746 483 713 246 q 735 806 781 718 q 533 894 689 894 z "},"×":{"ha":729,"x_min":67,"x_max":663,"o":"m 415 396 l 601 204 l 551 154 l 360 351 l 108 151 l 67 210 l 310 403 l 125 594 l 175 644 l 365 447 l 621 651 l 663 593 l 415 396 z "},"Ø":{"ha":922,"x_min":103,"x_max":840,"o":"m 828 1014 l 765 913 q 840 475 888 808 q 707 92 803 200 q 410 -17 611 -17 q 222 18 290 -17 l 163 -79 l 117 -51 l 178 47 q 103 483 57 153 q 236 866 140 757 q 536 975 332 975 q 721 942 653 975 l 781 1040 l 828 1014 m 226 129 l 675 867 q 533 894 625 894 q 303 804 375 894 q 196 475 231 714 q 226 129 161 214 m 717 832 l 268 93 q 411 64 319 64 q 640 155 567 64 q 746 483 713 246 q 717 832 785 750 z "},"Ù":{"ha":924,"x_min":115,"x_max":881,"o":"m 617 1056 l 582 1015 l 350 1196 l 401 1260 l 617 1056 m 881 958 l 796 361 q 679 69 767 156 q 413 -17 592 -17 q 157 72 228 -17 q 115 365 86 161 l 199 958 l 290 958 l 206 361 q 228 129 183 194 q 410 64 274 64 q 616 131 549 64 q 706 365 683 199 l 789 958 l 881 958 z "},"Ú":{"ha":924,"x_min":115,"x_max":881,"o":"m 771 1193 l 501 1015 l 471 1057 l 726 1261 l 771 1193 m 881 958 l 796 361 q 679 69 767 156 q 413 -17 592 -17 q 157 72 228 -17 q 115 365 86 161 l 199 958 l 290 958 l 206 361 q 228 129 183 194 q 410 64 274 64 q 616 131 549 64 q 706 365 683 199 l 789 958 l 881 958 z "},"Û":{"ha":924,"x_min":115,"x_max":881,"o":"m 779 1060 l 744 1024 l 582 1165 l 569 1165 l 365 1025 l 338 1065 l 546 1236 l 608 1236 l 779 1060 m 881 958 l 796 361 q 679 69 767 156 q 413 -17 592 -17 q 157 72 228 -17 q 115 365 86 161 l 199 958 l 290 958 l 206 361 q 228 129 183 194 q 410 64 274 64 q 616 131 549 64 q 706 365 683 199 l 789 958 l 881 958 z "},"Ü":{"ha":924,"x_min":115,"x_max":881,"o":"m 442 1201 l 469 1201 q 493 1174 497 1201 l 482 1099 q 453 1071 481 1071 l 424 1071 q 399 1097 397 1071 l 411 1174 q 442 1201 415 1201 m 681 1201 l 708 1201 q 732 1174 736 1201 l 721 1099 q 690 1071 717 1071 l 663 1071 q 638 1097 636 1071 l 650 1174 q 681 1201 654 1201 m 881 958 l 796 361 q 679 69 767 156 q 413 -17 592 -17 q 157 72 228 -17 q 115 365 86 161 l 199 958 l 290 958 l 206 361 q 228 129 183 194 q 410 64 274 64 q 616 131 549 64 q 706 365 683 199 l 789 958 l 881 958 z "},"Ý":{"ha":769,"x_min":93,"x_max":826,"o":"m 419 1015 l 389 1057 l 644 1261 l 689 1193 l 419 1015 m 418 343 l 371 0 l 279 0 l 328 346 l 93 958 l 186 958 l 346 531 q 378 428 363 486 l 388 428 q 447 535 404 464 l 726 958 l 826 958 l 418 343 z "},"Þ":{"ha":815,"x_min":72,"x_max":757,"o":"m 297 958 l 272 778 q 499 782 335 782 q 720 717 660 782 q 757 482 781 651 q 663 252 733 313 q 435 192 592 192 q 192 203 285 192 l 163 0 l 72 0 l 181 771 l 207 958 l 297 958 m 201 271 l 425 271 q 597 317 544 272 q 667 490 649 361 q 647 660 683 617 q 496 703 611 703 q 261 701 318 703 l 201 271 z "},"ß":{"ha":921,"x_min":-171,"x_max":832,"o":"m 578 411 l 729 328 q 817 255 793 292 q 832 149 840 218 q 756 17 819 50 q 567 -15 693 -15 q 349 0 458 -15 l 360 67 q 558 60 478 58 q 694 81 653 61 q 743 160 736 100 q 736 215 747 192 q 713 247 725 239 q 669 275 701 256 l 517 358 q 439 426 463 390 q 422 513 415 463 q 473 609 429 575 q 611 683 517 643 q 625 689 621 688 q 670 713 654 704 q 706 739 686 722 q 735 776 725 756 q 747 825 746 797 q 712 900 751 876 q 550 924 672 924 q 365 885 418 924 q 297 738 313 847 l 181 -92 q 115 -238 165 -193 q -32 -283 65 -283 q -171 -275 -92 -283 l -158 -210 l -51 -210 q 50 -181 18 -210 q 93 -79 82 -153 l 190 603 l 67 603 l 76 665 l 200 672 l 211 750 q 249 881 222 831 q 322 957 275 932 q 416 990 368 982 q 538 997 464 997 q 776 959 710 997 q 831 821 842 921 q 789 718 825 758 q 679 642 753 678 q 642 626 668 638 q 606 611 617 615 q 577 597 596 607 q 550 580 558 588 q 531 560 542 572 q 514 536 519 549 q 507 507 508 524 q 518 456 501 476 q 578 411 535 435 z "},"à":{"ha":792,"x_min":81,"x_max":714,"o":"m 482 764 l 250 946 l 301 1008 l 517 804 l 482 764 m 619 0 l 551 0 l 564 151 q 415 29 497 75 q 250 -17 332 -17 q 89 65 126 -17 q 81 342 51 146 q 122 521 97 453 q 189 626 146 589 q 285 677 232 664 q 421 690 338 690 q 714 663 547 690 l 619 0 m 564 228 l 618 610 q 446 615 471 615 q 342 608 382 615 q 272 586 303 601 q 223 536 242 571 q 192 456 204 501 q 168 335 179 411 q 164 119 144 176 q 264 61 183 61 q 564 228 400 61 z "},"á":{"ha":792,"x_min":81,"x_max":714,"o":"m 403 764 l 372 807 l 626 1010 l 672 942 l 403 764 m 619 0 l 551 0 l 564 151 q 415 29 497 75 q 250 -17 332 -17 q 89 65 126 -17 q 81 342 51 146 q 122 521 97 453 q 189 626 146 589 q 285 677 232 664 q 421 690 338 690 q 714 663 547 690 l 619 0 m 564 228 l 618 610 q 446 615 471 615 q 342 608 382 615 q 272 586 303 601 q 223 536 242 571 q 192 456 204 501 q 168 335 179 411 q 164 119 144 176 q 264 61 183 61 q 564 228 400 61 z "},"â":{"ha":792,"x_min":81,"x_max":714,"o":"m 265 775 l 239 814 l 446 986 l 510 986 l 681 810 l 646 774 l 482 914 l 471 914 l 265 775 m 619 0 l 551 0 l 564 151 q 415 29 497 75 q 250 -17 332 -17 q 89 65 126 -17 q 81 342 51 146 q 122 521 97 453 q 189 626 146 589 q 285 677 232 664 q 421 690 338 690 q 714 663 547 690 l 619 0 m 564 228 l 618 610 q 446 615 471 615 q 342 608 382 615 q 272 586 303 601 q 223 536 242 571 q 192 456 204 501 q 168 335 179 411 q 164 119 144 176 q 264 61 183 61 q 564 228 400 61 z "},"ã":{"ha":792,"x_min":81,"x_max":714,"o":"m 646 960 l 690 956 q 653 848 686 885 q 568 815 619 811 q 459 858 515 819 q 376 900 403 896 q 315 883 336 904 q 288 815 294 863 l 244 819 q 283 931 249 893 q 367 964 317 968 q 466 922 411 960 q 557 881 521 885 q 619 896 599 876 q 646 960 639 915 m 619 0 l 551 0 l 564 151 q 415 29 497 75 q 250 -17 332 -17 q 89 65 126 -17 q 81 342 51 146 q 122 521 97 453 q 189 626 146 589 q 285 677 232 664 q 421 690 338 690 q 714 663 547 690 l 619 0 m 564 228 l 618 610 q 446 615 471 615 q 342 608 382 615 q 272 586 303 601 q 223 536 242 571 q 192 456 204 501 q 168 335 179 411 q 164 119 144 176 q 264 61 183 61 q 564 228 400 61 z "},"ä":{"ha":792,"x_min":81,"x_max":714,"o":"m 353 819 l 324 819 q 300 846 296 819 l 311 922 q 343 950 315 950 l 371 950 q 394 922 399 950 l 383 847 q 353 819 379 819 m 592 819 l 563 819 q 539 846 535 819 l 550 922 q 582 950 554 950 l 608 950 q 633 922 638 950 l 621 847 q 592 819 619 819 m 619 0 l 551 0 l 564 151 q 415 29 497 75 q 250 -17 332 -17 q 89 65 126 -17 q 81 342 51 146 q 122 521 97 453 q 189 626 146 589 q 285 677 232 664 q 421 690 338 690 q 714 663 547 690 l 619 0 m 564 228 l 618 610 q 446 615 471 615 q 342 608 382 615 q 272 586 303 601 q 223 536 242 571 q 192 456 204 501 q 168 335 179 411 q 164 119 144 176 q 264 61 183 61 q 564 228 400 61 z "},"å":{"ha":792,"x_min":81,"x_max":714,"o":"m 457 744 q 354 785 392 744 q 324 889 317 826 q 372 985 331 946 q 476 1025 414 1025 q 578 983 540 1025 q 610 881 617 942 q 560 784 601 824 q 457 744 519 744 m 408 950 q 394 937 408 950 q 376 883 381 924 q 395 818 372 843 q 457 793 418 793 q 525 819 497 793 q 557 888 553 846 q 539 951 561 926 q 476 976 517 976 q 408 950 436 976 m 619 0 l 551 0 l 564 151 q 415 29 497 75 q 250 -17 332 -17 q 89 65 126 -17 q 81 342 51 146 q 122 521 97 453 q 189 626 146 589 q 285 677 232 664 q 421 690 338 690 q 714 663 547 690 l 619 0 m 564 228 l 618 610 q 446 615 471 615 q 342 608 382 615 q 272 586 303 601 q 223 536 242 571 q 192 456 204 501 q 168 335 179 411 q 164 119 144 176 q 264 61 183 61 q 564 228 400 61 z "},"æ":{"ha":1213,"x_min":78,"x_max":1147,"o":"m 1068 76 l 1075 17 q 807 -17 983 -17 q 628 22 692 -17 q 544 144 564 61 q 240 -17 410 -17 q 86 68 122 -17 q 78 342 50 153 q 119 521 94 453 q 188 626 144 589 q 282 677 231 664 q 415 690 333 690 q 714 660 551 690 q 906 690 783 690 q 1111 640 1053 690 q 1147 478 1169 589 q 1075 349 1131 388 q 903 299 1019 310 l 628 272 q 665 103 619 147 q 825 58 711 58 q 1068 76 924 58 m 257 61 q 536 214 386 61 q 544 349 533 274 q 638 604 571 531 q 439 615 474 615 q 244 563 293 615 q 168 335 194 511 q 163 121 144 181 q 257 61 181 61 m 635 340 l 903 367 q 1013 399 979 375 q 1060 485 1046 424 q 1038 591 1076 567 q 899 615 999 615 q 763 596 811 615 q 684 519 715 576 q 636 346 653 461 l 635 340 z "},"ç":{"ha":668,"x_min":72,"x_max":636,"o":"m 557 75 l 564 14 q 343 -17 464 -17 q 106 65 168 -17 q 72 340 44 147 q 179 612 99 533 q 431 690 260 690 q 636 660 554 690 l 621 603 q 444 614 547 614 q 247 556 308 614 q 164 333 185 497 q 183 115 142 171 q 357 60 225 60 q 557 75 475 60 m 254 -122 l 264 -79 q 370 -94 338 -72 q 393 -174 403 -115 q 313 -299 379 -254 q 154 -331 247 -343 l 171 -282 q 275 -252 231 -283 q 328 -172 319 -221 q 317 -133 332 -143 q 254 -122 303 -124 z "},"è":{"ha":740,"x_min":74,"x_max":676,"o":"m 471 764 l 239 946 l 290 1008 l 506 804 l 471 764 m 600 76 l 607 17 q 336 -17 511 -17 q 106 69 167 -17 q 74 349 46 154 q 181 619 101 549 q 435 690 260 690 q 640 640 581 690 q 676 478 699 589 q 603 349 658 388 q 432 299 549 310 l 156 272 q 193 103 147 147 q 353 58 239 58 q 600 76 453 58 m 164 340 l 432 367 q 542 399 508 375 q 588 485 575 424 q 567 591 606 567 q 428 615 528 615 q 321 606 361 615 q 248 567 281 596 q 197 485 215 538 q 164 346 178 433 l 164 340 z "},"é":{"ha":740,"x_min":74,"x_max":676,"o":"m 392 764 l 361 807 l 615 1010 l 661 942 l 392 764 m 600 76 l 607 17 q 336 -17 511 -17 q 106 69 167 -17 q 74 349 46 154 q 181 619 101 549 q 435 690 260 690 q 640 640 581 690 q 676 478 699 589 q 603 349 658 388 q 432 299 549 310 l 156 272 q 193 103 147 147 q 353 58 239 58 q 600 76 453 58 m 164 340 l 432 367 q 542 399 508 375 q 588 485 575 424 q 567 591 606 567 q 428 615 528 615 q 321 606 361 615 q 248 567 281 596 q 197 485 215 538 q 164 346 178 433 l 164 340 z "},"ê":{"ha":740,"x_min":74,"x_max":676,"o":"m 254 775 l 228 814 l 435 986 l 499 986 l 668 810 l 635 774 l 471 914 l 458 914 l 254 775 m 600 76 l 607 17 q 336 -17 511 -17 q 106 69 167 -17 q 74 349 46 154 q 181 619 101 549 q 435 690 260 690 q 640 640 581 690 q 676 478 699 589 q 603 349 658 388 q 432 299 549 310 l 156 272 q 193 103 147 147 q 353 58 239 58 q 600 76 453 58 m 164 340 l 432 367 q 542 399 508 375 q 588 485 575 424 q 567 591 606 567 q 428 615 528 615 q 321 606 361 615 q 248 567 281 596 q 197 485 215 538 q 164 346 178 433 l 164 340 z "},"ë":{"ha":740,"x_min":74,"x_max":676,"o":"m 342 819 l 313 819 q 289 846 285 819 l 300 922 q 332 950 304 950 l 358 950 q 383 922 388 950 l 371 847 q 342 819 369 819 m 581 819 l 551 819 q 528 846 524 819 l 539 922 q 569 950 543 950 l 597 950 q 622 922 626 950 l 610 847 q 581 819 608 819 m 600 76 l 607 17 q 336 -17 511 -17 q 106 69 167 -17 q 74 349 46 154 q 181 619 101 549 q 435 690 260 690 q 640 640 581 690 q 676 478 699 589 q 603 349 658 388 q 432 299 549 310 l 156 272 q 193 103 147 147 q 353 58 239 58 q 600 76 453 58 m 164 340 l 432 367 q 542 399 508 375 q 588 485 575 424 q 567 591 606 567 q 428 615 528 615 q 321 606 361 615 q 248 567 281 596 q 197 485 215 538 q 164 346 178 433 l 164 340 z "},"ì":{"ha":328,"x_min":15,"x_max":282,"o":"m 282 804 l 247 764 l 15 946 l 67 1008 l 282 804 m 151 0 l 63 0 l 158 672 l 246 672 l 151 0 z "},"í":{"ha":328,"x_min":63,"x_max":438,"o":"m 438 942 l 167 764 l 136 807 l 392 1010 l 438 942 m 151 0 l 63 0 l 158 672 l 246 672 l 151 0 z "},"î":{"ha":328,"x_min":4,"x_max":444,"o":"m 444 810 l 411 774 l 247 914 l 235 914 l 31 775 l 4 814 l 211 986 l 274 986 l 444 810 m 151 0 l 63 0 l 158 672 l 246 672 l 151 0 z "},"ï":{"ha":328,"x_min":63,"x_max":399,"o":"m 107 950 l 135 950 q 160 922 164 950 l 147 847 q 118 819 146 819 l 89 819 q 65 846 61 819 l 76 922 q 107 950 81 950 m 346 950 l 374 950 q 399 922 403 950 l 386 847 q 357 819 385 819 l 328 819 q 303 846 301 819 l 315 922 q 346 950 319 950 m 151 0 l 63 0 l 158 672 l 246 672 l 151 0 z "},"ð":{"ha":767,"x_min":68,"x_max":676,"o":"m 676 940 l 567 867 q 668 386 713 721 q 635 224 656 290 q 577 99 615 157 q 474 13 539 42 q 318 -17 410 -17 q 106 63 165 -17 q 68 310 46 142 q 381 621 111 621 q 590 536 517 621 q 501 821 592 731 l 372 735 l 347 774 l 463 853 q 235 906 382 908 l 249 969 q 529 897 425 975 l 651 981 l 676 940 m 322 58 q 502 140 447 58 q 581 403 557 222 q 588 475 586 454 q 394 546 517 546 q 231 483 285 546 q 160 301 176 421 q 180 114 140 169 q 322 58 219 58 z "},"ñ":{"ha":797,"x_min":57,"x_max":701,"o":"m 643 960 l 686 956 q 650 848 683 885 q 565 815 617 811 q 456 858 513 819 q 374 900 400 896 q 313 883 333 904 q 285 815 292 863 l 240 819 q 279 931 246 894 q 364 964 313 968 q 463 922 408 960 q 554 881 518 885 q 643 960 631 872 m 222 672 l 208 519 q 542 690 403 690 q 672 642 631 690 q 701 503 714 593 l 629 0 l 542 0 l 610 485 q 598 585 619 556 q 517 614 576 614 q 384 576 453 614 q 208 453 315 538 l 146 0 l 57 0 l 153 672 l 222 672 z "},"ò":{"ha":781,"x_min":72,"x_max":689,"o":"m 506 804 l 472 764 l 240 946 l 290 1008 l 506 804 m 178 611 q 217 651 178 611 q 425 690 257 690 q 655 608 593 690 q 689 332 717 525 q 583 62 663 140 q 338 -17 504 -17 q 107 65 168 -17 q 72 340 46 146 q 178 611 99 532 m 425 614 q 244 553 301 614 q 164 332 186 493 q 179 117 142 175 q 338 58 217 58 q 519 119 461 58 q 599 340 576 181 q 583 556 621 497 q 425 614 546 614 z "},"ó":{"ha":781,"x_min":72,"x_max":689,"o":"m 661 942 l 392 764 l 361 807 l 617 1010 l 661 942 m 178 611 q 217 651 178 611 q 425 690 257 690 q 655 608 593 690 q 689 332 717 525 q 583 62 663 140 q 338 -17 504 -17 q 107 65 168 -17 q 72 340 46 146 q 178 611 99 532 m 425 614 q 244 553 301 614 q 164 332 186 493 q 179 117 142 175 q 338 58 217 58 q 519 119 461 58 q 599 340 576 181 q 583 556 621 497 q 425 614 546 614 z "},"ô":{"ha":781,"x_min":72,"x_max":689,"o":"m 669 810 l 635 774 l 471 914 l 460 914 l 254 775 l 228 814 l 436 986 l 499 986 l 669 810 m 178 611 q 217 651 178 611 q 425 690 257 690 q 655 608 593 690 q 689 332 717 525 q 583 62 663 140 q 338 -17 504 -17 q 107 65 168 -17 q 72 340 46 146 q 178 611 99 532 m 425 614 q 244 553 301 614 q 164 332 186 493 q 179 117 142 175 q 338 58 217 58 q 519 119 461 58 q 599 340 576 181 q 583 556 621 497 q 425 614 546 614 z "},"õ":{"ha":781,"x_min":72,"x_max":689,"o":"m 278 815 l 233 819 q 272 931 239 894 q 356 964 306 968 q 455 922 400 960 q 546 881 510 885 q 635 960 625 872 l 679 956 q 642 848 675 885 q 557 815 608 811 q 449 858 506 819 q 365 900 393 896 q 305 883 325 904 q 278 815 285 863 m 178 611 q 217 651 178 611 q 425 690 257 690 q 655 608 593 690 q 689 332 717 525 q 583 62 663 140 q 338 -17 504 -17 q 107 65 168 -17 q 72 340 46 146 q 178 611 99 532 m 425 614 q 244 553 301 614 q 164 332 186 493 q 179 117 142 175 q 338 58 217 58 q 519 119 461 58 q 599 340 576 181 q 583 556 621 497 q 425 614 546 614 z "},"ö":{"ha":781,"x_min":72,"x_max":689,"o":"m 332 950 l 360 950 q 383 922 388 950 l 372 847 q 342 819 368 819 l 314 819 q 289 846 288 819 l 301 922 q 332 950 306 950 m 571 950 l 599 950 q 622 922 626 950 l 611 847 q 581 819 607 819 l 551 819 q 528 846 524 819 l 539 922 q 571 950 543 950 m 178 611 q 217 651 178 611 q 425 690 257 690 q 655 608 593 690 q 689 332 717 525 q 583 62 663 140 q 338 -17 504 -17 q 107 65 168 -17 q 72 340 46 146 q 178 611 99 532 m 425 614 q 244 553 301 614 q 164 332 186 493 q 179 117 142 175 q 338 58 217 58 q 519 119 461 58 q 599 340 576 181 q 583 556 621 497 q 425 614 546 614 z "},"÷":{"ha":799,"x_min":96,"x_max":704,"o":"m 426 718 l 451 718 q 483 681 488 717 l 472 607 q 436 575 468 575 l 411 575 q 379 611 375 575 l 390 685 q 426 718 394 718 m 694 376 l 96 376 l 106 444 l 704 444 l 694 376 m 360 243 l 386 243 q 418 207 422 243 l 406 133 q 369 101 404 101 l 344 101 q 314 138 310 101 l 325 211 q 360 243 329 243 z "},"ø":{"ha":781,"x_min":72,"x_max":689,"o":"m 665 746 l 607 651 q 689 332 724 581 q 583 62 663 140 q 338 -17 504 -17 q 211 -3 261 -17 l 153 -97 l 110 -74 l 164 15 q 75 128 97 50 q 72 340 53 207 q 178 611 99 532 q 425 690 257 690 q 563 672 508 690 l 622 771 l 665 746 m 207 86 l 519 603 q 425 614 486 614 q 244 553 301 614 q 164 332 186 493 q 207 86 136 136 m 563 579 l 253 67 q 338 58 289 58 q 519 119 461 58 q 599 340 576 181 q 563 579 625 526 z "},"ù":{"ha":782,"x_min":76,"x_max":706,"o":"m 474 768 l 242 949 l 293 1013 l 508 808 l 474 768 m 706 672 l 611 0 l 543 0 l 557 157 q 236 -17 379 -17 q 105 32 146 -17 q 76 169 64 81 l 147 672 l 236 672 l 167 189 q 180 90 157 121 q 264 60 203 60 q 392 99 328 60 q 557 231 456 139 l 618 672 l 706 672 z "},"ú":{"ha":782,"x_min":76,"x_max":706,"o":"m 393 768 l 363 810 l 618 1014 l 663 944 l 393 768 m 706 672 l 611 0 l 543 0 l 557 157 q 236 -17 379 -17 q 105 32 146 -17 q 76 169 64 81 l 147 672 l 236 672 l 167 189 q 180 90 157 121 q 264 60 203 60 q 392 99 328 60 q 557 231 456 139 l 618 672 l 706 672 z "},"û":{"ha":782,"x_min":76,"x_max":706,"o":"m 257 778 l 229 818 l 438 989 l 500 989 l 671 813 l 636 776 l 472 918 l 461 918 l 257 778 m 706 672 l 611 0 l 543 0 l 557 157 q 236 -17 379 -17 q 105 32 146 -17 q 76 169 64 81 l 147 672 l 236 672 l 167 189 q 180 90 157 121 q 264 60 203 60 q 392 99 328 60 q 557 231 456 139 l 618 672 l 706 672 z "},"ü":{"ha":782,"x_min":76,"x_max":706,"o":"m 343 824 l 315 824 q 290 850 289 824 l 303 926 q 333 954 307 954 l 361 954 q 385 926 389 954 l 374 851 q 343 824 369 824 m 582 824 l 554 824 q 529 850 528 824 l 542 926 q 572 954 546 954 l 600 954 q 624 926 628 954 l 613 851 q 582 824 608 824 m 706 672 l 611 0 l 543 0 l 557 157 q 236 -17 379 -17 q 105 32 146 -17 q 76 169 64 81 l 147 672 l 236 672 l 167 189 q 180 90 157 121 q 264 60 203 60 q 392 99 328 60 q 557 231 456 139 l 618 672 l 706 672 z "},"ý":{"ha":735,"x_min":51,"x_max":710,"o":"m 350 764 l 319 807 l 574 1010 l 619 942 l 350 764 m 618 672 l 710 672 q 485 101 632 351 q 283 -175 378 -86 q 67 -287 188 -264 l 51 -226 q 331 0 207 -183 l 274 0 q 226 16 246 0 q 200 58 206 32 l 67 672 l 160 672 l 275 100 q 310 71 282 71 l 375 71 l 407 126 q 618 672 547 375 z "},"þ":{"ha":792,"x_min":19,"x_max":693,"o":"m 215 533 l 217 529 q 364 646 282 603 q 525 689 446 689 q 682 608 643 689 q 693 331 721 528 q 652 152 676 219 q 585 47 628 85 q 491 -4 543 8 q 357 -17 439 -17 q 144 0 250 -17 q 131 -111 140 -54 l 107 -283 l 19 -283 l 196 972 l 283 972 l 242 678 q 215 533 229 586 m 208 444 l 156 64 q 328 58 254 58 q 527 108 478 58 q 603 338 576 158 q 608 553 626 496 q 508 611 589 611 q 208 444 375 611 z "},"ÿ":{"ha":735,"x_min":51,"x_max":710,"o":"m 300 819 l 271 819 q 247 846 243 819 l 258 922 q 290 950 263 950 l 317 950 q 342 922 346 950 l 329 847 q 300 819 328 819 m 539 819 l 510 819 q 486 846 482 819 l 497 922 q 528 950 501 950 l 556 950 q 581 922 585 950 l 568 847 q 539 819 567 819 m 618 672 l 710 672 q 485 101 632 351 q 283 -175 378 -86 q 67 -287 188 -264 l 51 -226 q 331 0 207 -183 l 274 0 q 226 16 246 0 q 200 58 206 32 l 67 672 l 160 672 l 275 100 q 310 71 282 71 l 375 71 l 407 126 q 618 672 547 375 z "},"Ā":{"ha":850,"x_min":-37,"x_max":779,"o":"m 715 1100 l 338 1100 l 347 1168 l 725 1168 l 715 1100 m 626 317 l 208 317 l 60 0 l -37 0 l 414 935 q 451 958 424 958 l 556 958 q 578 950 568 958 q 589 931 588 942 l 779 0 l 688 0 l 626 317 m 611 397 l 532 807 q 525 847 529 821 q 519 888 521 874 l 478 888 q 460 850 474 879 q 440 807 447 821 l 247 397 l 611 397 z "},"ā":{"ha":792,"x_min":81,"x_max":714,"o":"m 650 850 l 272 850 l 282 918 l 660 918 l 650 850 m 619 0 l 551 0 l 564 151 q 415 29 497 75 q 250 -17 332 -17 q 89 65 126 -17 q 81 342 51 146 q 122 521 97 453 q 189 626 146 589 q 285 677 232 664 q 421 690 338 690 q 714 663 547 690 l 619 0 m 564 228 l 618 610 q 446 615 471 615 q 342 608 382 615 q 272 586 303 601 q 223 536 242 571 q 192 456 204 501 q 168 335 179 411 q 164 119 144 176 q 264 61 183 61 q 564 228 400 61 z "},"Ă":{"ha":850,"x_min":-37,"x_max":779,"o":"m 696 1225 l 743 1213 q 676 1087 735 1133 q 524 1040 617 1040 q 376 1089 426 1040 q 340 1217 325 1138 l 389 1221 q 417 1138 381 1168 q 524 1108 454 1108 q 642 1140 596 1108 q 696 1225 689 1171 m 626 317 l 208 317 l 60 0 l -37 0 l 414 935 q 451 958 424 958 l 556 958 q 578 950 568 958 q 589 931 588 942 l 779 0 l 688 0 l 626 317 m 611 397 l 532 807 q 525 847 529 821 q 519 888 521 874 l 478 888 q 460 850 474 879 q 440 807 447 821 l 247 397 l 611 397 z "},"ă":{"ha":792,"x_min":81,"x_max":714,"o":"m 631 974 l 678 961 q 610 835 669 882 q 458 789 551 789 q 310 838 361 789 q 275 965 260 886 l 324 969 q 352 888 315 917 q 458 858 389 858 q 578 889 532 858 q 631 974 624 919 m 619 0 l 551 0 l 564 151 q 415 29 497 75 q 250 -17 332 -17 q 89 65 126 -17 q 81 342 51 146 q 122 521 97 453 q 189 626 146 589 q 285 677 232 664 q 421 690 338 690 q 714 663 547 690 l 619 0 m 564 228 l 618 610 q 446 615 471 615 q 342 608 382 615 q 272 586 303 601 q 223 536 242 571 q 192 456 204 501 q 168 335 179 411 q 164 119 144 176 q 264 61 183 61 q 564 228 400 61 z "},"Ą":{"ha":850,"x_min":-37,"x_max":779,"o":"m 589 931 l 779 0 q 649 -168 696 -81 q 649 -239 619 -222 q 751 -231 678 -256 l 763 -269 q 589 -279 636 -317 q 582 -162 542 -242 q 731 0 626 -81 l 688 0 l 626 317 l 208 317 l 60 0 l -37 0 l 414 935 q 451 958 424 958 l 556 958 q 578 950 568 958 q 589 931 588 942 m 611 397 l 532 807 q 525 847 529 821 q 519 888 521 874 l 478 888 q 460 850 474 879 q 440 807 447 821 l 247 397 l 611 397 z "},"ą":{"ha":792,"x_min":81,"x_max":714,"o":"m 714 663 l 619 0 q 489 -168 536 -81 q 489 -239 460 -222 q 592 -231 518 -256 l 603 -269 q 430 -278 476 -315 q 422 -162 383 -242 q 571 0 467 -81 l 551 0 l 564 151 q 415 29 497 75 q 250 -17 332 -17 q 89 65 126 -17 q 81 342 51 146 q 122 521 97 453 q 189 626 146 589 q 285 677 232 664 q 421 690 338 690 q 714 663 547 690 m 564 228 l 618 610 q 446 615 471 615 q 342 608 382 615 q 272 586 303 601 q 223 536 242 571 q 192 456 204 501 q 168 335 179 411 q 164 119 144 176 q 264 61 183 61 q 564 228 400 61 z "},"Ć":{"ha":782,"x_min":103,"x_max":788,"o":"m 753 1193 l 483 1015 l 453 1057 l 707 1261 l 753 1193 m 674 81 l 681 13 q 406 -17 568 -17 q 133 99 203 -17 q 103 483 64 215 q 236 865 140 756 q 533 975 332 975 q 788 949 678 975 l 771 881 q 533 893 669 893 q 303 805 375 893 q 196 475 231 717 q 209 154 164 243 q 406 65 254 65 q 674 81 554 64 z "},"ć":{"ha":668,"x_min":72,"x_max":639,"o":"m 639 942 l 369 764 l 339 807 l 593 1010 l 639 942 m 557 75 l 564 14 q 343 -17 464 -17 q 106 65 168 -17 q 72 340 44 147 q 179 612 99 533 q 431 690 260 690 q 636 660 554 690 l 621 603 q 444 614 547 614 q 247 556 308 614 q 164 333 185 497 q 183 115 142 171 q 357 60 225 60 q 557 75 475 60 z "},"Ċ":{"ha":782,"x_min":103,"x_max":788,"o":"m 539 1201 l 569 1201 q 596 1169 600 1201 l 585 1090 q 554 1061 581 1061 l 525 1061 q 497 1093 494 1061 l 508 1172 q 539 1201 513 1201 m 674 81 l 681 13 q 406 -17 568 -17 q 133 99 203 -17 q 103 483 64 215 q 236 865 140 756 q 533 975 332 975 q 788 949 678 975 l 771 881 q 533 893 669 893 q 303 805 375 893 q 196 475 231 717 q 209 154 164 243 q 406 65 254 65 q 674 81 554 64 z "},"ċ":{"ha":668,"x_min":72,"x_max":636,"o":"m 425 950 l 456 950 q 482 919 486 950 l 471 839 q 440 811 467 811 l 411 811 q 383 842 379 811 l 394 922 q 425 950 399 950 m 557 75 l 564 14 q 343 -17 464 -17 q 106 65 168 -17 q 72 340 44 147 q 179 612 99 533 q 431 690 260 690 q 636 660 554 690 l 621 603 q 444 614 547 614 q 247 556 308 614 q 164 333 185 497 q 183 115 142 171 q 357 60 225 60 q 557 75 475 60 z "},"Č":{"ha":782,"x_min":103,"x_max":788,"o":"m 778 1208 l 568 1036 l 503 1036 l 339 1213 l 375 1247 l 533 1107 l 544 1107 l 749 1247 l 778 1208 m 674 81 l 681 13 q 406 -17 568 -17 q 133 99 203 -17 q 103 483 64 215 q 236 865 140 756 q 533 975 332 975 q 788 949 678 975 l 771 881 q 533 893 669 893 q 303 805 375 893 q 196 475 231 717 q 209 154 164 243 q 406 65 254 65 q 674 81 554 64 z "},"č":{"ha":668,"x_min":72,"x_max":664,"o":"m 664 957 l 454 786 l 389 786 l 225 963 l 261 996 l 419 857 l 431 857 l 635 996 l 664 957 m 557 75 l 564 14 q 343 -17 464 -17 q 106 65 168 -17 q 72 340 44 147 q 179 612 99 533 q 431 690 260 690 q 636 660 554 690 l 621 603 q 444 614 547 614 q 247 556 308 614 q 164 333 185 497 q 183 115 142 171 q 357 60 225 60 q 557 75 475 60 z "},"Ď":{"ha":918,"x_min":71,"x_max":836,"o":"m 496 1036 l 332 1213 l 368 1247 l 526 1107 l 538 1107 l 742 1247 l 771 1208 l 561 1036 l 496 1036 m 71 0 l 206 958 q 521 971 375 971 q 803 860 732 971 q 836 475 875 750 q 783 231 815 325 q 694 83 750 138 q 569 8 639 28 q 390 -12 499 -12 q 71 0 249 -12 m 288 888 l 172 71 q 389 68 311 68 q 570 103 504 68 q 677 226 636 138 q 742 483 718 314 q 729 807 776 722 q 519 892 682 892 q 288 888 504 892 z "},"ď":{"ha":790,"x_min":79,"x_max":940,"o":"m 889 972 l 915 972 q 940 943 946 972 l 929 864 q 867 690 919 785 l 826 704 q 864 846 853 789 q 845 851 851 844 q 840 871 839 858 l 851 944 q 862 967 854 961 q 889 972 869 972 m 667 972 l 756 972 l 618 0 l 550 0 l 563 157 q 235 -17 403 -17 q 88 67 125 -17 q 79 342 51 151 q 119 521 94 453 q 187 626 144 589 q 281 677 229 664 q 413 690 332 690 q 631 674 510 690 q 643 803 635 747 l 667 972 m 564 229 l 615 611 q 442 617 471 617 q 243 565 293 617 q 168 335 193 514 q 163 122 144 183 q 257 61 181 61 q 564 229 392 61 z "},"Đ":{"ha":918,"x_min":39,"x_max":836,"o":"m 147 539 l 206 958 q 521 971 375 971 q 803 860 732 971 q 836 475 875 750 q 783 231 815 325 q 694 83 750 138 q 569 8 639 28 q 390 -12 499 -12 q 71 0 249 -12 l 139 485 l 39 485 l 46 539 l 147 539 m 231 485 l 172 71 q 389 68 311 68 q 570 103 504 68 q 677 226 636 138 q 742 483 718 314 q 729 807 776 722 q 519 892 682 892 q 288 888 504 892 l 238 539 l 465 539 l 457 485 l 231 485 z "},"đ":{"ha":790,"x_min":79,"x_max":843,"o":"m 836 807 l 732 807 l 618 0 l 550 0 l 563 157 q 235 -17 403 -17 q 88 67 125 -17 q 79 342 51 151 q 119 521 94 453 q 187 626 144 589 q 281 677 229 664 q 413 690 332 690 q 631 674 510 690 q 643 803 635 747 l 643 807 l 425 807 l 433 860 l 651 860 l 667 972 l 756 972 l 740 860 l 843 860 l 836 807 m 564 229 l 615 611 q 442 617 471 617 q 243 565 293 617 q 168 335 193 514 q 163 122 144 183 q 257 61 181 61 q 564 229 392 61 z "},"Ē":{"ha":771,"x_min":86,"x_max":772,"o":"m 714 1131 l 336 1131 l 346 1199 l 724 1199 l 714 1131 m 760 882 l 374 882 q 263 779 275 882 l 229 543 l 658 543 l 649 472 l 219 472 l 179 175 q 263 76 164 76 l 646 76 l 646 7 q 250 -1 518 -1 q 118 46 161 -1 q 86 174 75 93 l 175 804 q 233 918 185 876 q 361 960 282 960 q 772 951 643 960 l 760 882 z "},"ē":{"ha":740,"x_min":74,"x_max":676,"o":"m 639 850 l 261 850 l 271 918 l 649 918 l 639 850 m 600 76 l 607 17 q 336 -17 511 -17 q 106 69 167 -17 q 74 349 46 154 q 181 619 101 549 q 435 690 260 690 q 640 640 581 690 q 676 478 699 589 q 603 349 658 388 q 432 299 549 310 l 156 272 q 193 103 147 147 q 353 58 239 58 q 600 76 453 58 m 164 340 l 432 367 q 542 399 508 375 q 588 485 575 424 q 567 591 606 567 q 428 615 528 615 q 321 606 361 615 q 248 567 281 596 q 197 485 215 538 q 164 346 178 433 l 164 340 z "},"Ė":{"ha":771,"x_min":86,"x_max":772,"o":"m 536 1092 l 508 1092 q 481 1124 476 1092 l 492 1203 q 522 1232 496 1232 l 551 1232 q 579 1200 583 1232 l 568 1121 q 536 1092 564 1092 m 760 882 l 374 882 q 263 779 275 882 l 229 543 l 658 543 l 649 472 l 219 472 l 179 175 q 263 76 164 76 l 646 76 l 646 7 q 250 -1 518 -1 q 118 46 161 -1 q 86 174 75 93 l 175 804 q 233 918 185 876 q 361 960 282 960 q 772 951 643 960 l 760 882 z "},"ė":{"ha":740,"x_min":74,"x_max":676,"o":"m 463 811 l 433 811 q 406 842 401 811 l 417 922 q 447 950 421 950 l 478 950 q 504 919 508 950 l 493 839 q 463 811 489 811 m 600 76 l 607 17 q 336 -17 511 -17 q 106 69 167 -17 q 74 349 46 154 q 181 619 101 549 q 435 690 260 690 q 640 640 581 690 q 676 478 699 589 q 603 349 658 388 q 432 299 549 310 l 156 272 q 193 103 147 147 q 353 58 239 58 q 600 76 453 58 m 164 340 l 432 367 q 542 399 508 375 q 588 485 575 424 q 567 591 606 567 q 428 615 528 615 q 321 606 361 615 q 248 567 281 596 q 197 485 215 538 q 164 346 178 433 l 164 340 z "},"Ę":{"ha":771,"x_min":86,"x_max":772,"o":"m 760 882 l 374 882 q 263 779 275 882 l 229 543 l 658 543 l 649 472 l 219 472 l 179 175 q 263 76 164 76 l 646 76 l 646 7 q 515 -161 561 -74 q 515 -232 486 -215 q 617 -224 543 -249 l 628 -262 q 455 -272 501 -308 q 449 -156 408 -235 q 593 4 489 -75 q 250 -1 481 -1 q 118 46 161 -1 q 86 174 75 93 l 175 804 q 233 918 185 876 q 361 960 282 960 q 772 951 643 960 l 760 882 z "},"ę":{"ha":740,"x_min":74,"x_max":676,"o":"m 579 -214 l 589 -253 q 416 -262 463 -300 q 410 -146 369 -225 q 538 0 447 -75 q 336 -17 439 -17 q 106 69 167 -17 q 74 349 46 154 q 181 619 101 549 q 435 690 260 690 q 640 640 581 690 q 676 478 699 589 q 603 349 658 388 q 432 299 549 310 l 156 272 q 193 103 147 147 q 353 58 239 58 q 600 76 453 58 l 607 17 q 476 -151 522 -67 q 476 -222 447 -206 q 579 -214 504 -239 m 164 340 l 432 367 q 542 399 508 375 q 588 485 575 424 q 567 591 606 567 q 428 615 528 615 q 321 606 361 615 q 248 567 281 596 q 197 485 215 538 q 164 346 178 433 l 164 340 z "},"Ě":{"ha":771,"x_min":86,"x_max":772,"o":"m 486 1067 l 322 1243 l 358 1278 l 517 1138 l 528 1138 l 732 1278 l 761 1239 l 550 1067 l 486 1067 m 760 882 l 374 882 q 263 779 275 882 l 229 543 l 658 543 l 649 472 l 219 472 l 179 175 q 263 76 164 76 l 646 76 l 646 7 q 250 -1 518 -1 q 118 46 161 -1 q 86 174 75 93 l 175 804 q 233 918 185 876 q 361 960 282 960 q 772 951 643 960 l 760 882 z "},"ě":{"ha":740,"x_min":74,"x_max":686,"o":"m 411 786 l 247 963 l 283 996 l 442 857 l 453 857 l 657 996 l 686 957 l 476 786 l 411 786 m 600 76 l 607 17 q 336 -17 511 -17 q 106 69 167 -17 q 74 349 46 154 q 181 619 101 549 q 435 690 260 690 q 640 640 581 690 q 676 478 699 589 q 603 349 658 388 q 432 299 549 310 l 156 272 q 193 103 147 147 q 353 58 239 58 q 600 76 453 58 m 164 340 l 432 367 q 542 399 508 375 q 588 485 575 424 q 567 591 606 567 q 428 615 528 615 q 321 606 361 615 q 248 567 281 596 q 197 485 215 538 q 164 346 178 433 l 164 340 z "},"Ğ":{"ha":864,"x_min":101,"x_max":819,"o":"m 725 1225 l 772 1213 q 705 1087 764 1133 q 553 1040 646 1040 q 405 1089 456 1040 q 369 1217 354 1138 l 418 1221 q 447 1138 411 1167 q 553 1108 483 1108 q 673 1140 626 1108 q 725 1225 719 1171 m 819 949 l 803 881 q 556 894 679 894 q 305 808 381 894 q 196 475 229 722 q 208 156 169 247 q 369 64 246 64 q 508 102 444 64 q 651 217 572 140 l 699 556 l 788 556 l 708 0 l 643 0 l 650 139 q 342 -17 513 -17 q 128 102 185 -17 q 101 483 71 221 q 183 783 126 675 q 324 933 239 892 q 546 975 410 975 q 819 949 704 975 z "},"ğ":{"ha":796,"x_min":24,"x_max":721,"o":"m 632 974 l 679 961 q 612 835 671 882 q 460 789 553 789 q 312 838 363 789 q 276 965 261 886 l 325 969 q 354 888 318 917 q 460 858 390 858 q 580 889 533 858 q 632 974 626 919 m 721 663 l 622 6 q 267 -297 585 -285 q 24 -282 131 -306 l 33 -222 q 264 -222 151 -228 q 533 -8 497 -208 q 583 174 557 126 q 426 35 515 88 q 247 -17 336 -17 q 91 65 131 -17 q 81 342 51 146 q 122 521 97 453 q 190 626 147 589 q 283 677 232 664 q 414 690 333 690 q 714 663 547 690 l 721 663 m 567 229 l 624 610 q 444 615 474 615 q 246 565 296 615 q 169 335 196 514 q 165 119 146 178 q 265 61 185 61 q 567 229 401 61 z "},"Ġ":{"ha":864,"x_min":101,"x_max":819,"o":"m 568 1061 l 539 1061 q 513 1093 508 1061 l 522 1172 q 553 1201 526 1201 l 583 1201 q 610 1169 614 1201 l 599 1090 q 568 1061 594 1061 m 819 949 l 803 881 q 556 894 679 894 q 305 808 381 894 q 196 475 229 722 q 208 156 169 247 q 369 64 246 64 q 508 102 444 64 q 651 217 572 140 l 699 556 l 788 556 l 708 0 l 643 0 l 650 139 q 342 -17 513 -17 q 128 102 185 -17 q 101 483 71 221 q 183 783 126 675 q 324 933 239 892 q 546 975 410 975 q 819 949 704 975 z "},"ġ":{"ha":796,"x_min":24,"x_max":721,"o":"m 475 811 l 446 811 q 419 842 415 811 l 429 922 q 460 950 433 950 l 490 950 q 517 919 521 950 l 506 839 q 475 811 501 811 m 721 663 l 622 6 q 267 -297 585 -285 q 24 -282 131 -306 l 33 -222 q 264 -222 151 -228 q 533 -8 497 -208 q 583 174 557 126 q 426 35 515 88 q 247 -17 336 -17 q 91 65 131 -17 q 81 342 51 146 q 122 521 97 453 q 190 626 147 589 q 283 677 232 664 q 414 690 333 690 q 714 663 547 690 l 721 663 m 567 229 l 624 610 q 444 615 474 615 q 246 565 296 615 q 169 335 196 514 q 165 119 146 178 q 265 61 185 61 q 567 229 401 61 z "},"Ģ":{"ha":864,"x_min":101,"x_max":819,"o":"m 819 949 l 803 881 q 556 894 679 894 q 305 808 381 894 q 196 475 229 722 q 208 156 169 247 q 369 64 246 64 q 508 102 444 64 q 651 217 572 140 l 699 556 l 788 556 l 708 0 l 643 0 l 650 139 q 342 -17 513 -17 q 128 102 185 -17 q 101 483 71 221 q 183 783 126 675 q 324 933 239 892 q 546 975 410 975 q 819 949 704 975 m 379 -83 l 406 -83 q 431 -114 436 -83 l 419 -193 q 357 -368 410 -269 l 317 -354 q 354 -212 343 -269 q 331 -186 326 -212 l 342 -112 q 352 -90 344 -96 q 379 -83 360 -83 z "},"ģ":{"ha":796,"x_min":24,"x_max":721,"o":"m 467 778 l 440 778 q 414 808 410 778 l 426 888 q 488 1061 436 964 l 529 1049 q 492 906 501 960 q 510 899 504 907 q 515 879 517 892 l 504 806 q 494 783 501 789 q 467 778 486 778 m 721 663 l 622 6 q 267 -297 585 -285 q 24 -282 131 -306 l 33 -222 q 264 -222 151 -228 q 533 -8 497 -208 q 583 174 557 126 q 426 35 515 88 q 247 -17 336 -17 q 91 65 131 -17 q 81 342 51 146 q 122 521 97 453 q 190 626 147 589 q 283 677 232 664 q 414 690 333 690 q 714 663 547 690 l 721 663 m 567 229 l 624 610 q 444 615 474 615 q 246 565 296 615 q 169 335 196 514 q 165 119 146 178 q 265 61 185 61 q 567 229 401 61 z "},"Ħ":{"ha":921,"x_min":71,"x_max":950,"o":"m 943 724 l 838 724 l 736 0 l 644 0 l 711 472 l 229 472 l 163 0 l 71 0 l 172 724 l 74 724 l 81 776 l 181 776 l 206 958 l 297 958 l 272 776 l 754 776 l 779 958 l 871 958 l 844 776 l 950 776 l 943 724 m 747 724 l 264 724 l 240 551 l 722 551 l 747 724 z "},"ħ":{"ha":797,"x_min":57,"x_max":701,"o":"m 260 807 l 244 690 q 213 522 232 606 q 542 690 407 690 q 672 642 631 690 q 701 503 714 593 l 629 0 l 542 0 l 610 485 q 598 585 619 556 q 517 614 576 614 q 383 575 453 614 q 208 450 314 536 l 146 0 l 57 0 l 171 807 l 67 807 l 75 860 l 179 860 l 194 972 l 282 972 l 267 860 l 483 860 l 476 807 l 260 807 z "},"Ī":{"ha":347,"x_min":71,"x_max":469,"o":"m 460 1100 l 82 1100 l 92 1168 l 469 1168 l 460 1100 m 163 0 l 71 0 l 206 958 l 297 958 l 163 0 z "},"ī":{"ha":328,"x_min":38,"x_max":425,"o":"m 415 850 l 38 850 l 47 918 l 425 918 l 415 850 m 151 0 l 63 0 l 158 672 l 246 672 l 151 0 z "},"Į":{"ha":347,"x_min":-43,"x_max":297,"o":"m 163 0 l 154 0 q 22 -168 71 -79 q 22 -239 -7 -222 q 125 -231 51 -256 l 136 -269 q -37 -278 10 -315 q -43 -162 -83 -242 q 104 0 -3 -82 l 71 0 l 206 958 l 297 958 l 163 0 z "},"į":{"ha":328,"x_min":-53,"x_max":281,"o":"m 224 950 l 254 950 q 281 919 285 950 l 269 839 q 239 811 265 811 l 210 811 q 182 842 178 811 l 193 922 q 224 950 197 950 m 158 672 l 246 672 l 151 0 l 144 0 q 14 -168 61 -81 q 14 -239 -15 -222 q 117 -231 43 -256 l 128 -269 q -45 -278 1 -315 q -53 -162 -92 -242 q 96 0 -8 -81 l 63 0 l 158 672 z "},"İ":{"ha":347,"x_min":71,"x_max":325,"o":"m 268 1201 l 299 1201 q 325 1169 329 1201 l 314 1090 q 283 1061 310 1061 l 254 1061 q 226 1093 222 1061 l 238 1172 q 268 1201 242 1201 m 163 0 l 71 0 l 206 958 l 297 958 l 163 0 z "},"ı":{"ha":328,"x_min":63,"x_max":246,"o":"m 151 0 l 63 0 l 158 672 l 246 672 l 151 0 z "},"Ĳ":{"ha":810,"x_min":71,"x_max":764,"o":"m 163 0 l 71 0 l 206 958 l 297 958 l 163 0 m 764 958 l 656 185 q 453 -11 628 -11 q 339 4 390 -11 l 356 67 l 426 67 q 565 186 549 67 l 674 958 l 764 958 z "},"ĳ":{"ha":656,"x_min":64,"x_max":614,"o":"m 219 956 l 260 956 q 286 925 290 956 l 275 843 q 244 817 271 817 l 204 817 q 176 847 172 817 l 189 929 q 219 956 190 956 m 546 956 l 588 956 q 614 925 618 956 l 603 843 q 572 817 599 817 l 532 817 q 504 847 500 817 l 515 929 q 546 956 519 956 m 151 0 l 64 0 l 158 672 l 246 672 l 151 0 m 574 672 l 474 -36 q 325 -286 453 -185 l 278 -246 q 386 -31 369 -147 l 486 672 l 574 672 z "},"Ķ":{"ha":807,"x_min":71,"x_max":833,"o":"m 429 501 l 428 496 q 467 438 449 472 l 719 0 l 617 0 l 351 463 l 219 463 q 211 353 217 389 l 161 0 l 71 0 l 206 958 l 296 958 l 253 647 q 231 538 240 572 l 360 538 l 722 958 l 833 958 l 488 556 q 429 501 460 522 m 363 -83 l 389 -83 q 414 -114 419 -83 l 403 -193 q 340 -368 393 -269 l 300 -354 q 338 -212 326 -269 q 314 -186 311 -212 l 325 -112 q 335 -90 328 -96 q 363 -83 343 -83 z "},"ķ":{"ha":707,"x_min":58,"x_max":674,"o":"m 583 672 l 674 672 q 431 372 607 488 q 469 297 453 333 l 608 0 l 514 0 l 363 332 q 182 253 297 297 l 146 0 l 58 0 l 194 972 l 283 972 l 215 476 q 181 328 207 410 q 436 473 329 385 q 583 672 543 561 m 311 -83 l 338 -83 q 363 -114 368 -83 l 351 -193 q 289 -368 339 -275 l 249 -354 q 286 -212 275 -269 q 263 -186 258 -212 l 274 -112 q 284 -90 276 -96 q 311 -83 292 -83 z "},"Ĺ":{"ha":703,"x_min":93,"x_max":626,"o":"m 479 1193 l 210 1015 l 179 1057 l 435 1261 l 479 1193 m 293 958 l 183 175 q 198 103 176 129 q 267 76 219 76 l 626 76 l 624 7 q 249 -1 500 -1 q 124 46 167 -1 q 93 178 82 93 l 201 958 l 293 958 z "},"ĺ":{"ha":393,"x_min":81,"x_max":475,"o":"m 475 1224 l 206 1046 l 175 1088 l 431 1292 l 475 1224 m 283 972 l 171 165 q 183 92 163 115 q 253 69 203 69 l 325 69 l 329 3 q 218 -11 296 -11 q 108 32 144 -11 q 81 153 71 75 l 196 972 l 283 972 z "},"Ļ":{"ha":703,"x_min":93,"x_max":626,"o":"m 293 958 l 183 175 q 198 103 176 129 q 267 76 219 76 l 626 76 l 624 7 q 249 -1 500 -1 q 124 46 167 -1 q 93 178 82 93 l 201 958 l 293 958 m 346 -92 l 372 -92 q 397 -122 403 -92 l 386 -201 q 324 -375 376 -281 l 283 -361 q 321 -219 310 -276 q 302 -213 308 -221 q 297 -193 296 -206 l 308 -119 q 319 -97 311 -103 q 346 -92 326 -92 z "},"ļ":{"ha":393,"x_min":81,"x_max":329,"o":"m 283 972 l 171 165 q 183 92 163 115 q 253 69 203 69 l 325 69 l 329 3 q 218 -11 296 -11 q 108 32 144 -11 q 81 153 71 75 l 196 972 l 283 972 m 168 -92 l 194 -92 q 221 -122 225 -92 l 208 -201 q 147 -375 199 -278 l 106 -361 q 143 -219 132 -276 q 124 -213 131 -221 q 119 -193 118 -206 l 131 -119 q 141 -97 133 -103 q 168 -92 149 -92 z "},"Ľ":{"ha":703,"x_min":93,"x_max":626,"o":"m 293 958 l 183 175 q 198 103 176 129 q 267 76 219 76 l 626 76 l 624 7 q 249 -1 500 -1 q 124 46 167 -1 q 93 178 82 93 l 201 958 l 293 958 m 463 957 l 489 957 q 515 926 519 957 l 503 847 q 442 674 493 771 l 400 686 q 438 829 428 775 q 419 835 425 828 q 414 856 413 843 l 425 929 q 435 951 428 946 q 463 957 443 957 z "},"ľ":{"ha":393,"x_min":81,"x_max":476,"o":"m 425 972 l 451 972 q 476 942 482 972 l 465 863 q 403 689 453 782 l 363 703 q 400 844 389 788 q 380 851 386 843 q 376 871 374 858 l 388 944 q 398 967 390 961 q 425 972 406 972 m 283 972 l 171 165 q 183 92 163 115 q 253 69 203 69 l 325 69 l 329 3 q 218 -11 296 -11 q 108 32 144 -11 q 81 153 71 75 l 196 972 l 283 972 z "},"Ŀ":{"ha":703,"x_min":93,"x_max":626,"o":"m 293 958 l 183 175 q 198 103 176 129 q 267 76 219 76 l 626 76 l 624 7 q 249 -1 500 -1 q 124 46 167 -1 q 93 178 82 93 l 201 958 l 293 958 m 536 467 l 506 467 q 479 497 475 467 l 490 578 q 522 606 494 606 l 550 606 q 578 575 582 606 l 567 494 q 536 467 563 467 z "},"ŀ":{"ha":442,"x_min":81,"x_max":461,"o":"m 283 972 l 171 165 q 183 92 163 115 q 253 69 203 69 l 325 69 l 329 3 q 218 -11 296 -11 q 108 32 144 -11 q 81 153 71 75 l 196 972 l 283 972 m 421 449 l 390 449 q 364 479 360 449 l 375 560 q 406 589 378 589 l 435 589 q 461 557 465 589 l 451 478 q 421 449 447 449 z "},"Ł":{"ha":703,"x_min":35,"x_max":625,"o":"m 625 76 l 622 7 q 247 -1 499 -1 q 124 47 167 -1 q 93 178 81 94 l 133 472 l 35 433 l 40 490 l 142 532 l 201 958 l 293 958 l 239 569 l 421 643 l 415 586 l 231 511 l 183 175 q 198 103 176 129 q 267 76 219 76 l 625 76 z "},"ł":{"ha":410,"x_min":32,"x_max":419,"o":"m 218 508 l 171 165 q 183 92 163 115 q 253 69 203 69 l 325 69 l 329 3 q 218 -11 296 -11 q 108 32 144 -11 q 81 153 71 75 l 125 471 l 32 433 l 39 490 l 133 529 l 196 972 l 283 972 l 226 567 l 419 643 l 411 586 l 218 508 z "},"Ń":{"ha":969,"x_min":71,"x_max":919,"o":"m 803 1193 l 533 1015 l 503 1057 l 758 1261 l 803 1193 m 919 958 l 789 36 q 749 0 785 0 l 657 0 q 617 32 629 0 l 344 761 q 307 874 315 840 l 279 874 q 267 754 275 814 l 163 0 l 71 0 l 200 922 q 242 958 206 958 l 329 958 q 371 926 360 958 l 636 215 q 681 85 665 133 l 711 85 q 726 218 715 129 l 829 958 l 919 958 z "},"ń":{"ha":797,"x_min":57,"x_max":701,"o":"m 399 764 l 368 807 l 624 1010 l 669 942 l 399 764 m 222 672 l 208 519 q 542 690 403 690 q 672 642 631 690 q 701 503 714 593 l 629 0 l 542 0 l 610 485 q 598 585 619 556 q 517 614 576 614 q 384 576 453 614 q 208 453 315 538 l 146 0 l 57 0 l 153 672 l 222 672 z "},"Ņ":{"ha":969,"x_min":71,"x_max":919,"o":"m 919 958 l 789 36 q 749 0 785 0 l 657 0 q 617 32 629 0 l 344 761 q 307 874 315 840 l 279 874 q 267 754 275 814 l 163 0 l 71 0 l 200 922 q 242 958 206 958 l 329 958 q 371 926 360 958 l 636 215 q 681 85 665 133 l 711 85 q 726 218 715 129 l 829 958 l 919 958 m 424 -83 l 450 -83 q 476 -114 482 -83 l 465 -193 q 403 -368 454 -268 l 361 -354 q 399 -212 388 -275 q 375 -186 372 -212 l 388 -112 q 398 -90 390 -96 q 424 -83 406 -83 z "},"ņ":{"ha":797,"x_min":57,"x_max":701,"o":"m 222 672 l 208 519 q 542 690 403 690 q 672 642 631 690 q 701 503 714 593 l 629 0 l 542 0 l 610 485 q 598 585 619 556 q 517 614 576 614 q 384 576 453 614 q 208 453 315 538 l 146 0 l 57 0 l 153 672 l 222 672 m 335 -83 l 361 -83 q 386 -114 392 -83 l 375 -193 q 313 -368 363 -275 l 272 -354 q 310 -212 299 -269 q 286 -186 282 -212 l 297 -112 q 308 -90 300 -96 q 335 -83 315 -83 z "},"Ň":{"ha":969,"x_min":71,"x_max":919,"o":"m 829 1208 l 618 1036 l 554 1036 l 390 1213 l 426 1247 l 585 1107 l 596 1107 l 800 1247 l 829 1208 m 919 958 l 789 36 q 749 0 785 0 l 657 0 q 617 32 629 0 l 344 761 q 307 874 315 840 l 279 874 q 267 754 275 814 l 163 0 l 71 0 l 200 922 q 242 958 206 958 l 329 958 q 371 926 360 958 l 636 215 q 681 85 665 133 l 711 85 q 726 218 715 129 l 829 958 l 919 958 z "},"ň":{"ha":797,"x_min":57,"x_max":701,"o":"m 419 786 l 256 963 l 292 996 l 450 857 l 461 857 l 665 996 l 694 957 l 483 786 l 419 786 m 222 672 l 208 519 q 542 690 403 690 q 672 642 631 690 q 701 503 714 593 l 629 0 l 542 0 l 610 485 q 598 585 619 556 q 517 614 576 614 q 384 576 453 614 q 208 453 315 538 l 146 0 l 57 0 l 153 672 l 222 672 z "},"Ŋ":{"ha":969,"x_min":71,"x_max":919,"o":"m 919 958 l 767 -122 q 702 -258 754 -211 q 567 -303 650 -304 q 454 -289 503 -303 l 469 -232 l 542 -232 q 682 -112 665 -232 l 699 0 l 658 0 q 628 29 642 0 l 344 747 q 307 863 321 803 l 281 863 q 267 747 278 821 l 163 0 l 71 0 l 200 922 q 242 958 206 958 l 321 958 q 363 926 350 958 l 636 228 q 682 99 668 140 l 711 99 q 726 232 715 158 l 828 958 l 919 958 z "},"ŋ":{"ha":797,"x_min":57,"x_max":701,"o":"m 219 672 l 208 519 q 540 690 404 690 q 672 642 631 690 q 701 503 714 593 l 618 -94 q 428 -287 589 -287 q 325 -272 382 -287 l 340 -217 l 400 -217 q 529 -96 511 -217 l 610 485 q 597 579 619 550 q 514 608 575 608 q 415 585 468 608 q 322 535 361 561 q 210 453 283 508 l 146 0 l 57 0 l 153 672 l 219 672 z "},"Ō":{"ha":922,"x_min":103,"x_max":840,"o":"m 751 1100 l 374 1100 l 382 1168 l 761 1168 l 751 1100 m 536 975 q 808 862 738 975 q 840 475 879 749 q 707 92 803 200 q 410 -17 611 -17 q 137 96 208 -17 q 103 483 65 208 q 236 866 140 757 q 536 975 332 975 m 533 894 q 303 804 375 894 q 196 475 231 714 q 210 153 164 243 q 411 64 257 64 q 640 155 567 64 q 746 483 713 246 q 735 806 781 718 q 533 894 689 894 z "},"ō":{"ha":781,"x_min":72,"x_max":689,"o":"m 640 850 l 261 850 l 271 918 l 649 918 l 640 850 m 178 611 q 217 651 178 611 q 425 690 257 690 q 655 608 593 690 q 689 332 717 525 q 583 62 663 140 q 338 -17 504 -17 q 107 65 168 -17 q 72 340 46 146 q 178 611 99 532 m 425 614 q 244 553 301 614 q 164 332 186 493 q 179 117 142 175 q 338 58 217 58 q 519 119 461 58 q 599 340 576 181 q 583 556 621 497 q 425 614 546 614 z "},"Ő":{"ha":922,"x_min":103,"x_max":851,"o":"m 851 1226 l 643 1008 l 604 1040 l 794 1268 l 851 1226 m 635 1226 l 428 1008 l 388 1040 l 578 1268 l 635 1226 m 536 975 q 808 862 738 975 q 840 475 879 749 q 707 92 803 200 q 410 -17 611 -17 q 137 96 208 -17 q 103 483 65 208 q 236 866 140 757 q 536 975 332 975 m 533 894 q 303 804 375 894 q 196 475 231 714 q 210 153 164 243 q 411 64 257 64 q 640 155 567 64 q 746 483 713 246 q 735 806 781 718 q 533 894 689 894 z "},"ő":{"ha":781,"x_min":72,"x_max":740,"o":"m 740 975 l 532 758 l 493 789 l 683 1017 l 740 975 m 524 975 l 315 758 l 276 789 l 467 1017 l 524 975 m 178 611 q 217 651 178 611 q 425 690 257 690 q 655 608 593 690 q 689 332 717 525 q 583 62 663 140 q 338 -17 504 -17 q 107 65 168 -17 q 72 340 46 146 q 178 611 99 532 m 425 614 q 244 553 301 614 q 164 332 186 493 q 179 117 142 175 q 338 58 217 58 q 519 119 461 58 q 599 340 576 181 q 583 556 621 497 q 425 614 546 614 z "},"Œ":{"ha":1261,"x_min":103,"x_max":1264,"o":"m 1251 882 l 878 882 q 803 856 832 882 q 768 779 774 829 l 735 544 l 1149 544 l 1139 472 l 725 472 l 685 175 q 768 76 669 76 l 1139 76 l 1136 7 q 756 -1 1013 -1 q 640 31 683 -1 q 414 -17 532 -17 q 132 92 200 -17 q 103 483 64 201 q 238 868 143 761 q 543 975 333 975 q 760 932 663 975 q 867 960 804 960 q 1264 951 1138 960 l 1251 882 m 592 174 l 679 804 q 701 871 686 842 q 542 894 626 894 q 305 804 379 894 q 197 475 231 714 q 210 153 164 243 q 417 64 257 64 q 597 93 511 64 q 592 174 585 126 z "},"œ":{"ha":1265,"x_min":71,"x_max":1200,"o":"m 1122 76 l 1129 17 q 860 -17 1036 -17 q 614 100 667 -17 q 336 -17 535 -17 q 106 65 168 -17 q 71 340 44 146 q 178 611 99 532 q 424 690 257 690 q 672 579 618 690 q 782 665 714 640 q 960 690 850 690 q 1164 640 1106 690 q 1200 478 1222 589 q 1128 349 1183 388 q 957 299 1074 310 l 681 272 q 718 105 672 150 q 879 60 764 60 q 1122 76 989 60 m 336 58 q 517 119 460 58 q 597 340 575 181 q 582 556 619 497 q 424 614 544 614 q 242 553 300 614 q 163 332 185 493 q 178 117 140 175 q 336 58 215 58 m 689 340 l 957 368 q 1067 400 1033 375 q 1113 485 1101 425 q 1090 591 1129 568 q 950 614 1051 614 q 772 565 826 614 q 692 364 718 517 l 689 340 z "},"Ŕ":{"ha":853,"x_min":71,"x_max":789,"o":"m 454 1015 l 424 1057 l 679 1261 l 725 1193 l 454 1015 m 71 0 l 206 958 q 524 969 324 969 q 746 909 682 969 q 789 692 810 849 q 722 517 772 575 q 575 446 672 460 l 574 439 q 671 303 650 417 l 732 0 l 639 0 l 581 303 q 541 385 569 361 q 461 411 513 410 q 365 412 418 411 q 278 413 313 413 q 219 414 243 414 l 161 0 l 71 0 m 229 490 l 457 490 q 627 535 575 492 q 696 696 679 579 q 675 851 713 810 q 522 892 638 892 q 286 889 397 892 l 229 490 z "},"ŕ":{"ha":546,"x_min":57,"x_max":588,"o":"m 318 764 l 288 807 l 543 1010 l 588 942 l 318 764 m 219 672 l 207 514 q 528 690 392 690 l 560 690 l 538 607 l 506 607 q 382 570 447 607 q 208 449 317 533 l 146 0 l 57 0 l 153 672 l 219 672 z "},"Ŗ":{"ha":853,"x_min":71,"x_max":789,"o":"m 71 0 l 206 958 q 524 969 324 969 q 746 909 682 969 q 789 692 810 849 q 722 517 772 575 q 575 446 672 460 l 574 439 q 671 303 650 417 l 732 0 l 639 0 l 581 303 q 541 385 569 361 q 461 411 513 410 q 365 412 418 411 q 278 413 313 413 q 219 414 243 414 l 161 0 l 71 0 m 229 490 l 457 490 q 627 535 575 492 q 696 696 679 579 q 675 851 713 810 q 522 892 638 892 q 286 889 397 892 l 229 490 m 397 -83 l 424 -83 q 449 -114 454 -83 l 438 -193 q 375 -368 428 -269 l 335 -354 q 372 -212 361 -269 q 349 -186 346 -212 l 360 -112 q 370 -90 363 -96 q 397 -83 378 -83 z "},"ŗ":{"ha":546,"x_min":13,"x_max":560,"o":"m 560 690 l 538 607 l 506 607 q 382 570 447 607 q 208 449 317 533 l 146 0 l 57 0 l 153 672 l 219 672 l 207 514 q 528 690 392 690 l 560 690 m 75 -83 l 101 -83 q 126 -114 132 -83 l 115 -193 q 53 -368 106 -269 l 13 -354 q 50 -212 39 -269 q 26 -186 24 -212 l 38 -112 q 48 -90 40 -96 q 75 -83 56 -83 z "},"Ř":{"ha":853,"x_min":71,"x_max":789,"o":"m 475 1036 l 311 1213 l 347 1247 l 506 1107 l 517 1107 l 721 1247 l 750 1208 l 539 1036 l 475 1036 m 71 0 l 206 958 q 524 969 324 969 q 746 909 682 969 q 789 692 810 849 q 722 517 772 575 q 575 446 672 460 l 574 439 q 671 303 650 417 l 732 0 l 639 0 l 581 303 q 541 385 569 361 q 461 411 513 410 q 365 412 418 411 q 278 413 313 413 q 219 414 243 414 l 161 0 l 71 0 m 229 490 l 457 490 q 627 535 575 492 q 696 696 679 579 q 675 851 713 810 q 522 892 638 892 q 286 889 397 892 l 229 490 z "},"ř":{"ha":546,"x_min":57,"x_max":613,"o":"m 339 786 l 175 963 l 211 996 l 369 857 l 381 857 l 583 996 l 613 957 l 403 786 l 339 786 m 219 672 l 207 514 q 528 690 392 690 l 560 690 l 538 607 l 506 607 q 382 570 447 607 q 208 449 317 533 l 146 0 l 57 0 l 153 672 l 219 672 z "},"Ś":{"ha":775,"x_min":42,"x_max":733,"o":"m 688 1193 l 418 1015 l 388 1057 l 643 1261 l 688 1193 m 478 407 l 281 483 q 147 582 182 522 q 125 743 113 642 q 163 869 136 821 q 235 939 189 917 q 331 968 282 961 q 458 974 381 975 q 733 950 607 974 l 722 885 q 447 893 568 893 q 387 892 407 893 q 337 887 367 892 q 292 872 307 882 q 259 845 276 863 q 232 800 242 828 q 217 733 222 772 q 230 625 208 660 q 322 561 251 590 l 517 486 q 657 387 624 444 q 676 222 690 329 q 640 97 665 144 q 568 25 615 50 q 467 -8 521 0 q 324 -15 413 -15 q 42 6 174 -15 l 54 74 q 331 65 222 65 q 516 97 463 67 q 585 232 569 128 q 573 343 594 310 q 478 407 551 376 z "},"ś":{"ha":699,"x_min":35,"x_max":642,"o":"m 626 942 l 357 764 l 326 807 l 581 1010 l 626 942 m 415 265 l 215 349 q 110 420 142 381 q 89 535 79 460 q 167 662 103 631 q 367 690 231 693 q 642 669 511 688 l 631 607 q 369 615 504 614 q 222 602 261 617 q 175 528 183 588 q 188 459 168 481 q 260 415 207 438 l 461 332 q 572 260 542 299 q 593 147 603 222 q 569 72 588 103 q 528 24 551 42 q 465 -2 506 7 q 386 -14 425 -11 q 286 -17 347 -17 q 35 3 190 -17 l 46 68 q 269 58 132 58 q 450 79 403 61 q 506 156 497 97 q 499 209 511 188 q 472 240 488 231 q 415 265 456 249 z "},"Ş":{"ha":775,"x_min":42,"x_max":733,"o":"m 478 407 l 281 483 q 147 582 182 522 q 125 743 113 642 q 163 869 136 821 q 235 939 189 917 q 331 968 282 961 q 458 974 381 975 q 733 950 607 974 l 722 885 q 447 893 568 893 q 387 892 407 893 q 337 887 367 892 q 292 872 307 882 q 259 845 276 863 q 232 800 242 828 q 217 733 222 772 q 230 625 208 660 q 322 561 251 590 l 517 486 q 657 387 624 444 q 676 222 690 329 q 640 97 665 144 q 568 25 615 50 q 467 -8 521 0 q 324 -15 413 -15 q 42 6 174 -15 l 54 74 q 331 65 222 65 q 516 97 463 67 q 585 232 569 128 q 573 343 594 310 q 478 407 551 376 m 272 -122 l 283 -79 q 390 -94 358 -72 q 411 -174 421 -115 q 333 -298 399 -254 q 172 -329 267 -342 l 189 -282 q 294 -251 250 -283 q 346 -171 338 -219 q 335 -132 350 -142 q 272 -122 321 -122 z "},"ş":{"ha":699,"x_min":35,"x_max":642,"o":"m 415 265 l 215 349 q 110 420 142 381 q 89 535 79 460 q 167 662 103 631 q 367 690 231 693 q 642 669 511 688 l 631 607 q 369 615 504 614 q 222 602 261 617 q 175 528 183 588 q 188 459 168 481 q 260 415 207 438 l 461 332 q 572 260 542 299 q 593 147 603 222 q 569 72 588 103 q 528 24 551 42 q 465 -2 506 7 q 386 -14 425 -11 q 286 -17 347 -17 q 35 3 190 -17 l 46 68 q 269 58 132 58 q 450 79 403 61 q 506 156 497 97 q 499 209 511 188 q 472 240 488 231 q 415 265 456 249 m 226 -121 l 238 -78 q 344 -92 313 -71 q 365 -172 375 -114 q 286 -297 351 -253 q 126 -329 221 -342 l 143 -281 q 248 -251 204 -282 q 300 -171 292 -219 q 290 -132 304 -142 q 226 -121 275 -122 z "},"Š":{"ha":775,"x_min":42,"x_max":733,"o":"m 714 1208 l 503 1036 l 439 1036 l 275 1213 l 311 1247 l 469 1107 l 481 1107 l 685 1247 l 714 1208 m 478 407 l 281 483 q 147 582 182 522 q 125 743 113 642 q 163 869 136 821 q 235 939 189 917 q 331 968 282 961 q 458 974 381 975 q 733 950 607 974 l 722 885 q 447 893 568 893 q 387 892 407 893 q 337 887 367 892 q 292 872 307 882 q 259 845 276 863 q 232 800 242 828 q 217 733 222 772 q 230 625 208 660 q 322 561 251 590 l 517 486 q 657 387 624 444 q 676 222 690 329 q 640 97 665 144 q 568 25 615 50 q 467 -8 521 0 q 324 -15 413 -15 q 42 6 174 -15 l 54 74 q 331 65 222 65 q 516 97 463 67 q 585 232 569 128 q 573 343 594 310 q 478 407 551 376 z "},"š":{"ha":699,"x_min":35,"x_max":651,"o":"m 651 957 l 442 786 l 378 786 l 213 963 l 250 996 l 408 857 l 419 857 l 622 996 l 651 957 m 415 265 l 215 349 q 110 420 142 381 q 89 535 79 460 q 167 662 103 631 q 367 690 231 693 q 642 669 511 688 l 631 607 q 369 615 504 614 q 222 602 261 617 q 175 528 183 588 q 188 459 168 481 q 260 415 207 438 l 461 332 q 572 260 542 299 q 593 147 603 222 q 569 72 588 103 q 528 24 551 42 q 465 -2 506 7 q 386 -14 425 -11 q 286 -17 347 -17 q 35 3 190 -17 l 46 68 q 269 58 132 58 q 450 79 403 61 q 506 156 497 97 q 499 209 511 188 q 472 240 488 231 q 415 265 456 249 z "},"Ţ":{"ha":789,"x_min":96,"x_max":836,"o":"m 825 878 l 506 878 l 382 0 l 290 0 l 414 878 l 96 878 l 108 958 l 836 958 l 825 878 m 260 -106 l 269 -62 q 376 -77 343 -56 q 399 -157 408 -99 q 319 -282 385 -237 q 160 -314 253 -326 l 176 -265 q 281 -235 236 -267 q 333 -156 325 -204 q 323 -117 338 -126 q 260 -106 308 -107 z "},"ţ":{"ha":507,"x_min":56,"x_max":511,"o":"m 274 603 l 213 165 q 225 92 206 114 q 296 69 244 69 l 407 69 l 411 3 q 271 -11 350 -11 q 151 33 188 -11 q 125 158 114 78 l 188 603 l 64 603 l 72 665 l 197 672 l 226 876 l 313 876 l 285 672 l 511 672 l 500 603 l 274 603 m 156 -117 l 165 -74 q 272 -88 239 -67 q 294 -168 304 -110 q 215 -292 281 -249 q 56 -324 149 -336 l 72 -276 q 176 -246 132 -278 q 229 -165 221 -214 q 219 -128 233 -137 q 156 -117 204 -118 z "},"Ť":{"ha":789,"x_min":96,"x_max":836,"o":"m 454 1036 l 289 1213 l 326 1247 l 485 1107 l 496 1107 l 699 1247 l 728 1208 l 518 1036 l 454 1036 m 825 878 l 506 878 l 382 0 l 290 0 l 414 878 l 96 878 l 108 958 l 836 958 l 825 878 z "},"ť":{"ha":507,"x_min":64,"x_max":511,"o":"m 431 775 l 390 789 q 428 931 417 874 q 408 937 415 929 q 404 957 401 944 l 415 1031 q 426 1053 418 1047 q 453 1058 433 1058 l 479 1058 q 504 1028 510 1058 l 493 949 q 431 775 483 874 m 274 603 l 213 165 q 225 92 206 114 q 296 69 244 69 l 407 69 l 411 3 q 271 -11 350 -11 q 151 33 188 -11 q 125 158 114 78 l 188 603 l 64 603 l 72 665 l 197 672 l 226 876 l 313 876 l 285 672 l 511 672 l 500 603 l 274 603 z "},"Ŧ":{"ha":789,"x_min":96,"x_max":836,"o":"m 506 878 l 464 583 l 674 583 l 667 529 l 457 529 l 382 0 l 290 0 l 365 529 l 175 529 l 182 583 l 372 583 l 414 878 l 96 878 l 108 958 l 836 958 l 825 878 l 506 878 z "},"ŧ":{"ha":507,"x_min":64,"x_max":511,"o":"m 274 603 l 254 463 l 453 463 l 446 410 l 247 410 l 213 165 q 225 92 206 114 q 296 69 244 69 l 407 69 l 411 3 q 271 -11 350 -11 q 151 33 188 -11 q 125 158 114 78 l 160 410 l 67 410 l 74 463 l 168 463 l 188 603 l 64 603 l 72 665 l 197 672 l 226 876 l 313 876 l 285 672 l 511 672 l 500 603 l 274 603 z "},"Ū":{"ha":924,"x_min":115,"x_max":881,"o":"m 750 1100 l 372 1100 l 381 1168 l 760 1168 l 750 1100 m 881 958 l 796 361 q 679 69 767 156 q 413 -17 592 -17 q 157 72 228 -17 q 115 365 86 161 l 199 958 l 290 958 l 206 361 q 228 129 183 194 q 410 64 274 64 q 616 131 549 64 q 706 365 683 199 l 789 958 l 881 958 z "},"ū":{"ha":782,"x_min":76,"x_max":706,"o":"m 642 853 l 264 853 l 272 921 l 651 921 l 642 853 m 706 672 l 611 0 l 543 0 l 557 157 q 236 -17 379 -17 q 105 32 146 -17 q 76 169 64 81 l 147 672 l 236 672 l 167 189 q 180 90 157 121 q 264 60 203 60 q 392 99 328 60 q 557 231 456 139 l 618 672 l 706 672 z "},"Ů":{"ha":924,"x_min":115,"x_max":881,"o":"m 575 1276 q 678 1235 639 1276 q 708 1131 717 1193 q 660 1034 701 1074 q 556 994 618 994 q 454 1036 492 994 q 424 1139 417 1078 q 472 1237 431 1197 q 575 1276 513 1276 m 576 1228 q 508 1201 535 1228 q 476 1135 481 1175 q 494 1069 471 1094 q 557 1043 518 1043 q 624 1070 597 1043 q 656 1138 651 1097 q 638 1202 660 1176 q 576 1228 617 1228 m 881 958 l 796 361 q 679 69 767 156 q 413 -17 592 -17 q 157 72 228 -17 q 115 365 86 161 l 199 958 l 290 958 l 206 361 q 228 129 183 194 q 410 64 274 64 q 616 131 549 64 q 706 365 683 199 l 789 958 l 881 958 z "},"ů":{"ha":782,"x_min":76,"x_max":706,"o":"m 447 747 q 346 789 383 747 q 315 892 308 831 q 363 990 322 950 q 467 1029 404 1029 q 569 988 531 1029 q 600 883 608 946 q 551 787 593 826 q 447 747 510 747 m 368 886 q 386 821 363 846 q 449 796 410 796 q 516 823 489 796 q 547 890 543 850 q 530 955 551 929 q 468 981 508 981 q 399 953 426 981 q 368 886 372 926 m 706 672 l 611 0 l 543 0 l 557 157 q 236 -17 379 -17 q 105 32 146 -17 q 76 169 64 81 l 147 672 l 236 672 l 167 189 q 180 90 157 121 q 264 60 203 60 q 392 99 328 60 q 557 231 456 139 l 618 672 l 706 672 z "},"Ű":{"ha":924,"x_min":115,"x_max":881,"o":"m 850 1226 l 642 1008 l 603 1040 l 793 1268 l 850 1226 m 633 1226 l 426 1008 l 386 1040 l 576 1268 l 633 1226 m 881 958 l 796 361 q 679 69 767 156 q 413 -17 592 -17 q 157 72 228 -17 q 115 365 86 161 l 199 958 l 290 958 l 206 361 q 228 129 183 194 q 410 64 274 64 q 616 131 549 64 q 706 365 683 199 l 789 958 l 881 958 z "},"ű":{"ha":782,"x_min":76,"x_max":742,"o":"m 318 761 l 278 793 l 468 1021 l 525 978 l 318 761 m 494 793 l 685 1021 l 742 978 l 533 761 l 494 793 m 618 672 l 706 672 l 611 0 l 543 0 l 557 157 q 236 -17 379 -17 q 105 32 146 -17 q 76 169 64 81 l 147 672 l 236 672 l 167 189 q 180 90 157 121 q 264 60 203 60 q 392 99 328 60 q 557 231 456 139 l 618 672 z "},"Ų":{"ha":924,"x_min":115,"x_max":881,"o":"m 881 958 l 796 361 q 690 81 768 168 q 456 -17 613 -7 q 329 -181 375 -96 q 329 -251 300 -235 q 432 -243 358 -268 l 442 -282 q 269 -292 315 -329 q 263 -175 222 -254 q 404 -17 303 -96 q 156 74 225 -15 q 115 365 86 163 l 199 958 l 290 958 l 206 361 q 228 129 183 194 q 410 64 274 64 q 616 131 549 64 q 706 365 683 199 l 789 958 l 881 958 z "},"ų":{"ha":782,"x_min":76,"x_max":706,"o":"m 706 672 l 611 0 q 481 -168 524 -85 q 480 -239 451 -222 q 582 -231 508 -256 l 593 -269 q 420 -279 467 -317 q 414 -162 374 -242 q 563 0 454 -81 l 543 0 l 557 157 q 236 -17 379 -17 q 105 32 146 -17 q 76 169 64 81 l 147 672 l 236 672 l 167 189 q 180 90 157 121 q 264 60 203 60 q 392 99 328 60 q 557 231 456 139 l 618 672 l 706 672 z "},"Ŵ":{"ha":1301,"x_min":117,"x_max":1336,"o":"m 965 1060 l 931 1024 l 767 1164 l 756 1164 l 550 1025 l 524 1064 l 731 1236 l 794 1236 l 965 1060 m 1336 958 l 989 26 q 949 0 979 0 l 840 0 q 806 32 808 0 l 740 782 l 732 888 l 700 888 l 661 778 l 389 28 q 349 0 378 0 l 240 0 q 216 9 226 0 q 204 31 206 18 l 117 958 l 210 958 l 276 179 q 282 69 279 144 l 318 69 l 357 182 l 629 929 q 669 958 640 958 l 774 958 q 797 949 788 958 q 807 925 806 939 l 878 179 q 885 69 883 103 l 921 69 l 958 182 l 1240 958 l 1336 958 z "},"ŵ":{"ha":1163,"x_min":69,"x_max":1135,"o":"m 864 810 l 829 774 l 665 914 l 654 914 l 449 775 l 422 814 l 631 986 l 693 986 l 864 810 m 264 71 l 282 71 q 342 113 317 71 q 435 311 386 181 q 528 650 488 453 q 554 672 531 675 l 650 672 q 676 650 671 672 l 753 71 l 769 71 q 825 110 800 71 q 935 311 896 217 q 1043 672 1001 458 l 1135 672 q 1003 274 1083 446 q 875 54 931 122 q 775 0 833 0 l 715 0 q 685 25 688 0 l 608 613 l 593 613 q 507 289 569 457 q 397 67 456 147 q 279 0 357 0 l 225 0 q 194 25 200 0 l 69 672 l 160 672 l 264 71 z "},"Ŷ":{"ha":769,"x_min":93,"x_max":826,"o":"m 283 1025 l 256 1065 l 464 1236 l 526 1236 l 697 1060 l 663 1024 l 499 1165 l 488 1165 l 283 1025 m 418 343 l 371 0 l 279 0 l 328 346 l 93 958 l 186 958 l 346 531 q 378 428 363 486 l 388 428 q 447 535 404 464 l 726 958 l 826 958 l 418 343 z "},"ŷ":{"ha":735,"x_min":51,"x_max":710,"o":"m 213 775 l 186 814 l 393 986 l 457 986 l 628 810 l 593 774 l 429 914 l 417 914 l 213 775 m 618 672 l 710 672 q 485 101 632 351 q 283 -175 378 -86 q 67 -287 188 -264 l 51 -226 q 331 0 207 -183 l 274 0 q 226 16 246 0 q 200 58 206 32 l 67 672 l 160 672 l 275 100 q 310 71 282 71 l 375 71 l 407 126 q 618 672 547 375 z "},"Ÿ":{"ha":769,"x_min":93,"x_max":826,"o":"m 369 1071 l 342 1071 q 317 1097 315 1071 l 329 1174 q 360 1201 333 1201 l 388 1201 q 411 1174 415 1201 l 400 1099 q 369 1071 396 1071 m 608 1071 l 581 1071 q 556 1097 554 1071 l 568 1174 q 599 1201 569 1201 l 626 1201 q 650 1174 654 1201 l 639 1099 q 608 1071 635 1071 m 418 343 l 371 0 l 279 0 l 328 346 l 93 958 l 186 958 l 346 531 q 378 428 363 486 l 388 428 q 447 535 404 464 l 726 958 l 826 958 l 418 343 z "},"Ź":{"ha":776,"x_min":10,"x_max":782,"o":"m 429 1015 l 399 1057 l 653 1261 l 699 1193 l 429 1015 m 782 958 l 769 881 l 122 78 l 667 78 l 654 0 l 10 0 l 21 78 l 668 881 l 139 881 l 150 958 l 782 958 z "},"ź":{"ha":690,"x_min":11,"x_max":657,"o":"m 340 764 l 310 807 l 564 1010 l 610 942 l 340 764 m 647 600 l 125 74 l 576 74 l 567 0 l 11 0 l 19 74 l 542 600 l 100 600 l 110 672 l 657 672 l 647 600 z "},"Ż":{"ha":776,"x_min":10,"x_max":782,"o":"m 500 1061 l 471 1061 q 444 1093 440 1061 l 454 1172 q 485 1201 458 1201 l 515 1201 q 542 1169 546 1201 l 531 1090 q 500 1061 526 1061 m 782 958 l 769 881 l 122 78 l 667 78 l 654 0 l 10 0 l 21 78 l 668 881 l 139 881 l 150 958 l 782 958 z "},"ż":{"ha":690,"x_min":11,"x_max":657,"o":"m 411 811 l 382 811 q 354 842 351 811 l 365 922 q 396 950 369 950 l 426 950 q 453 919 457 950 l 442 839 q 411 811 438 811 m 647 600 l 125 74 l 576 74 l 567 0 l 11 0 l 19 74 l 542 600 l 100 600 l 110 672 l 657 672 l 647 600 z "},"Ž":{"ha":776,"x_min":10,"x_max":782,"o":"m 450 1036 l 285 1213 l 321 1247 l 481 1107 l 492 1107 l 694 1247 l 724 1208 l 514 1036 l 450 1036 m 782 958 l 769 881 l 122 78 l 667 78 l 654 0 l 10 0 l 21 78 l 668 881 l 139 881 l 150 958 l 782 958 z "},"ž":{"ha":690,"x_min":11,"x_max":657,"o":"m 360 786 l 196 963 l 232 996 l 390 857 l 401 857 l 606 996 l 635 957 l 425 786 l 360 786 m 647 600 l 125 74 l 576 74 l 567 0 l 11 0 l 19 74 l 542 600 l 100 600 l 110 672 l 657 672 l 647 600 z "},"ƒ":{"ha":592,"x_min":-154,"x_max":647,"o":"m 233 546 l 289 781 q 365 924 310 876 q 517 972 419 972 q 647 964 594 972 l 631 897 l 535 897 q 428 869 464 897 q 375 768 392 840 l 322 546 l 532 546 l 515 475 l 306 475 l 193 -4 q 120 -147 171 -100 q -25 -194 69 -194 q -154 -186 -114 -194 l -139 -121 l -46 -121 q 56 -91 21 -121 q 107 8 90 -61 l 217 475 l 82 475 l 96 538 l 233 546 z "},"Ș":{"ha":775,"x_min":42,"x_max":733,"o":"m 478 407 l 281 483 q 147 582 182 522 q 125 743 113 642 q 163 869 136 821 q 235 939 189 917 q 331 968 282 961 q 458 974 381 975 q 733 950 607 974 l 722 885 q 447 893 568 893 q 387 892 407 893 q 337 887 367 892 q 292 872 307 882 q 259 845 276 863 q 232 800 242 828 q 217 733 222 772 q 230 625 208 660 q 322 561 251 590 l 517 486 q 657 387 624 444 q 676 222 690 329 q 640 97 665 144 q 568 25 615 50 q 467 -8 521 0 q 324 -15 413 -15 q 42 6 174 -15 l 54 74 q 331 65 222 65 q 516 97 463 67 q 585 232 569 128 q 573 343 594 310 q 478 407 551 376 m 347 -83 l 374 -83 q 400 -114 404 -83 l 389 -193 q 326 -368 378 -268 l 285 -354 q 322 -212 311 -275 q 299 -186 296 -212 l 311 -112 q 321 -90 314 -96 q 347 -83 328 -83 z "},"ș":{"ha":699,"x_min":35,"x_max":642,"o":"m 415 265 l 215 349 q 110 420 142 381 q 89 535 79 460 q 167 662 103 631 q 367 690 231 693 q 642 669 511 688 l 631 607 q 369 615 504 614 q 222 602 261 617 q 175 528 183 588 q 188 459 168 481 q 260 415 207 438 l 461 332 q 572 260 542 299 q 593 147 603 222 q 569 72 588 103 q 528 24 551 42 q 465 -2 506 7 q 386 -14 425 -11 q 286 -17 347 -17 q 35 3 190 -17 l 46 68 q 269 58 132 58 q 450 79 403 61 q 506 156 497 97 q 499 209 511 188 q 472 240 488 231 q 415 265 456 249 m 286 -83 l 313 -83 q 338 -114 343 -83 l 326 -193 q 264 -368 314 -275 l 224 -354 q 261 -212 250 -269 q 238 -186 233 -212 l 249 -112 q 259 -90 251 -96 q 286 -83 267 -83 z "},"Ț":{"ha":789,"x_min":96,"x_max":836,"o":"m 825 878 l 506 878 l 382 0 l 290 0 l 414 878 l 96 878 l 108 958 l 836 958 l 825 878 m 314 -83 l 340 -83 q 365 -114 371 -83 l 354 -193 q 292 -368 344 -269 l 251 -354 q 289 -212 278 -269 q 265 -186 263 -212 l 276 -112 q 287 -90 279 -96 q 314 -83 294 -83 z "},"ț":{"ha":507,"x_min":64,"x_max":511,"o":"m 274 603 l 213 165 q 225 92 206 114 q 296 69 244 69 l 407 69 l 411 3 q 271 -11 350 -11 q 151 33 188 -11 q 125 158 114 78 l 188 603 l 64 603 l 72 665 l 197 672 l 226 876 l 313 876 l 285 672 l 511 672 l 500 603 l 274 603 m 233 -83 l 260 -83 q 285 -114 290 -83 l 274 -193 q 211 -368 261 -275 l 171 -354 q 208 -212 197 -269 q 185 -186 181 -212 l 196 -112 q 206 -90 199 -96 q 233 -83 214 -83 z "},"ˆ":{"ha":569,"x_min":136,"x_max":576,"o":"m 576 810 l 543 774 l 379 914 l 367 914 l 163 775 l 136 814 l 343 986 l 407 986 l 576 810 z "},"ˇ":{"ha":569,"x_min":153,"x_max":592,"o":"m 592 957 l 382 786 l 317 786 l 153 961 l 189 996 l 347 857 l 358 857 l 563 996 l 592 957 z "},"˘":{"ha":511,"x_min":142,"x_max":544,"o":"m 497 965 l 544 953 q 477 827 536 874 q 325 781 418 781 q 177 829 228 781 q 142 957 126 878 l 190 961 q 219 878 183 907 q 325 849 256 849 q 445 880 399 849 q 497 965 492 911 z "},"˙":{"ha":299,"x_min":176,"x_max":275,"o":"m 218 947 l 247 947 q 275 917 279 947 l 264 836 q 232 808 260 808 l 204 808 q 176 839 172 808 l 188 919 q 218 947 192 947 z "},"˚":{"ha":413,"x_min":142,"x_max":426,"o":"m 293 1026 q 395 985 357 1026 q 426 881 433 943 q 377 784 418 824 q 274 744 336 744 q 172 786 210 744 q 142 889 135 828 q 190 987 149 947 q 293 1026 231 1026 m 356 952 q 344 965 356 952 q 293 978 333 978 q 226 951 253 978 q 194 883 199 924 q 213 818 189 843 q 275 793 236 793 q 342 820 315 793 q 374 888 369 847 q 356 952 378 926 z "},"˛":{"ha":350,"x_min":-1,"x_max":196,"o":"m 151 3 l 196 0 q 65 -168 113 -81 q 65 -239 36 -222 q 168 -231 94 -256 l 179 -269 q 6 -279 53 -317 q -1 -162 -42 -242 q 151 3 40 -81 z "},"˜":{"ha":572,"x_min":142,"x_max":588,"o":"m 185 817 l 142 821 q 180 932 146 894 q 264 965 214 969 q 363 924 308 961 q 454 882 418 886 q 516 897 496 878 q 543 960 536 915 l 588 957 q 550 849 583 886 q 465 817 517 813 q 356 859 413 821 q 274 901 300 897 q 185 817 197 908 z "},"˝":{"ha":610,"x_min":143,"x_max":607,"o":"m 607 964 l 399 747 l 360 778 l 550 1006 l 607 964 m 390 964 l 182 747 l 143 778 l 333 1006 l 390 964 z "},"Δ":{"ha":863,"x_min":-15,"x_max":772,"o":"m 772 44 l 767 0 l -15 0 l -10 44 l 464 958 l 557 958 l 772 44 m 675 75 l 518 768 q 500 868 504 836 q 453 764 479 819 l 101 75 l 675 75 z "},"Ω":{"ha":993,"x_min":17,"x_max":897,"o":"m 26 81 l 185 81 q 275 75 232 81 q 142 260 179 157 q 128 514 106 364 q 266 861 160 747 q 574 975 372 975 q 851 858 772 975 q 897 504 929 740 q 813 250 875 347 q 628 75 751 153 q 714 81 668 81 l 876 81 l 865 0 l 529 0 l 538 78 q 721 252 661 156 q 801 503 781 349 q 777 802 831 710 q 571 894 724 894 q 331 799 413 894 q 219 492 250 704 q 230 247 197 335 q 361 76 263 158 l 353 0 l 17 0 l 26 81 z "},"μ":{"ha":813,"x_min":28,"x_max":722,"o":"m 722 672 l 626 0 l 560 0 l 565 108 q 268 -17 397 -17 q 140 26 188 -17 q 136 -82 142 -28 l 107 -283 l 28 -283 l 93 182 l 163 672 l 250 672 l 181 189 q 199 96 172 125 q 289 67 225 67 q 410 92 349 67 q 564 172 472 117 l 633 672 l 722 672 z "},"π":{"ha":886,"x_min":65,"x_max":886,"o":"m 876 601 l 738 601 l 653 0 l 565 0 l 650 601 l 292 601 l 207 0 l 119 0 l 204 601 l 65 601 l 75 672 l 886 672 l 876 601 z "},"Ё":{"ha":771,"x_min":86,"x_max":772,"o":"m 417 1101 l 388 1101 q 364 1128 360 1101 l 375 1204 q 406 1232 379 1232 l 433 1232 q 458 1204 463 1232 l 446 1129 q 417 1101 444 1101 m 656 1101 l 626 1101 q 601 1128 600 1101 l 614 1204 q 644 1232 618 1232 l 672 1232 q 696 1204 700 1232 l 685 1129 q 656 1101 683 1101 m 760 882 l 374 882 q 263 779 275 882 l 229 543 l 658 543 l 649 472 l 219 472 l 179 175 q 263 76 164 76 l 646 76 l 646 7 q 250 -1 518 -1 q 118 46 161 -1 q 86 174 75 93 l 175 804 q 233 918 185 876 q 361 960 282 960 q 772 951 643 960 l 760 882 z "},"Ђ":{"ha":1036,"x_min":97,"x_max":958,"o":"m 506 878 l 454 507 q 761 610 607 610 q 928 543 876 610 q 958 315 981 476 q 832 65 932 138 q 561 -3 732 -8 l 558 63 q 774 125 703 72 q 867 315 846 178 q 853 485 886 440 q 738 529 819 529 q 594 506 657 529 q 443 426 532 483 l 382 0 l 292 0 l 415 878 l 97 878 l 108 958 l 836 958 l 826 878 l 506 878 z "},"Ѓ":{"ha":715,"x_min":68,"x_max":760,"o":"m 717 1193 l 447 1015 l 417 1057 l 672 1261 l 717 1193 m 68 0 l 179 794 q 239 918 190 876 q 360 960 288 960 q 760 951 632 960 l 747 882 l 385 882 q 303 858 332 882 q 267 775 275 833 l 158 0 l 68 0 z "},"Є":{"ha":792,"x_min":101,"x_max":801,"o":"m 801 949 l 785 879 q 561 893 672 893 q 318 819 396 893 q 204 543 240 746 l 624 543 l 614 472 l 193 472 q 210 156 163 242 q 415 65 257 69 q 676 82 544 63 l 683 13 q 415 -17 557 -19 q 134 101 203 -11 q 101 483 65 213 q 240 867 139 760 q 554 975 342 975 q 801 949 692 975 z "},"Ѕ":{"ha":775,"x_min":42,"x_max":733,"o":"m 478 407 l 281 483 q 147 582 182 522 q 125 743 113 642 q 163 869 136 821 q 235 939 189 917 q 331 968 282 961 q 458 974 381 975 q 733 950 607 974 l 722 885 q 447 893 568 893 q 387 892 407 893 q 337 887 367 892 q 292 872 307 882 q 259 845 276 863 q 232 800 242 828 q 217 733 222 772 q 230 625 208 660 q 322 561 251 590 l 517 486 q 657 387 624 444 q 676 222 690 329 q 640 97 665 144 q 568 25 615 50 q 467 -8 521 0 q 324 -15 413 -15 q 42 6 174 -15 l 54 74 q 331 65 222 65 q 516 97 463 67 q 585 232 569 128 q 573 343 594 310 q 478 407 551 376 z "},"І":{"ha":346,"x_min":71,"x_max":297,"o":"m 163 0 l 71 0 l 206 958 l 297 958 l 163 0 z "},"Ї":{"ha":347,"x_min":71,"x_max":443,"o":"m 151 1201 l 179 1201 q 204 1174 208 1201 l 192 1099 q 163 1071 190 1071 l 133 1071 q 110 1097 106 1071 l 121 1174 q 151 1201 125 1201 m 390 1201 l 418 1201 q 443 1174 447 1201 l 431 1099 q 401 1071 429 1071 l 372 1071 q 347 1097 346 1071 l 360 1174 q 390 1201 364 1201 m 163 0 l 71 0 l 206 958 l 297 958 l 163 0 z "},"Ј":{"ha":463,"x_min":-10,"x_max":417,"o":"m 417 958 l 308 185 q 106 -11 281 -11 q -10 4 43 -11 l 8 67 l 79 67 q 218 186 199 67 l 325 958 l 417 958 z "},"Љ":{"ha":1346,"x_min":-14,"x_max":1260,"o":"m 778 558 l 993 558 q 1223 493 1163 558 q 1260 268 1283 428 q 1166 48 1239 107 q 933 -11 1093 -11 q 608 0 724 -11 l 733 883 l 547 883 q 463 860 490 883 q 421 775 435 836 q 319 356 347 436 q 228 168 285 250 q -10 -1 129 19 l -14 79 q 147 201 75 103 q 236 385 207 288 q 333 796 265 482 q 399 920 353 882 q 525 958 444 958 l 833 958 l 778 558 m 767 482 l 708 71 q 894 69 763 69 q 1095 108 1040 69 q 1169 276 1150 147 q 1149 438 1186 393 q 988 482 1113 482 l 767 482 z "},"Њ":{"ha":1358,"x_min":72,"x_max":1272,"o":"m 789 557 l 1006 557 q 1235 492 1175 557 q 1272 268 1296 426 q 1178 48 1251 107 q 946 -11 1106 -11 q 621 0 736 -11 l 688 479 l 231 479 l 164 0 l 72 0 l 207 958 l 299 958 l 242 556 l 699 556 l 756 958 l 846 958 l 789 557 m 778 481 l 721 71 q 933 69 774 69 q 1112 112 1060 69 q 1182 276 1164 154 q 1162 436 1199 392 q 1000 481 1125 481 l 778 481 z "},"Ћ":{"ha":1076,"x_min":96,"x_max":994,"o":"m 506 878 l 451 492 q 806 610 628 610 q 994 396 1024 610 l 939 0 l 847 0 l 901 383 q 884 494 913 461 q 776 528 856 528 q 615 502 689 528 q 439 410 542 476 l 382 0 l 290 0 l 414 878 l 96 878 l 108 958 l 836 958 l 825 878 l 506 878 z "},"Ќ":{"ha":815,"x_min":71,"x_max":824,"o":"m 458 1015 l 428 1057 l 683 1261 l 728 1193 l 458 1015 m 442 501 l 439 497 q 567 423 515 489 q 639 289 618 357 q 697 63 660 221 q 713 -1 707 21 l 619 1 q 547 283 565 233 q 414 450 500 418 q 340 463 382 463 l 219 463 q 211 353 219 414 l 161 0 l 71 0 l 206 958 l 296 958 l 253 647 q 231 538 240 572 l 346 538 q 453 563 404 538 q 553 658 501 588 q 627 769 604 729 q 710 924 650 810 q 729 960 722 947 l 824 957 q 656 656 707 729 q 442 501 554 511 z "},"Ѝ":{"ha":953,"x_min":71,"x_max":901,"o":"m 629 1056 l 594 1015 l 363 1196 l 414 1260 l 629 1056 m 767 0 l 679 0 l 778 701 q 801 840 786 756 l 797 839 q 778 808 790 828 q 755 772 765 788 q 735 743 744 756 l 169 0 l 71 0 l 206 958 l 294 958 l 196 260 q 171 118 182 164 l 175 119 q 244 221 200 160 l 804 958 l 901 958 l 767 0 z "},"Ў":{"ha":767,"x_min":64,"x_max":819,"o":"m 647 1225 l 694 1213 q 628 1087 688 1133 q 475 1040 568 1040 q 328 1089 378 1040 q 293 1217 278 1138 l 340 1221 q 369 1138 333 1167 q 475 1108 406 1108 q 595 1140 549 1108 q 647 1225 642 1171 m 819 958 l 454 229 q 390 113 417 156 q 318 32 363 69 q 222 -8 274 -6 q 64 10 144 -15 l 78 75 q 154 67 126 69 q 210 72 182 65 q 251 85 238 78 q 286 117 265 92 q 320 164 307 142 q 360 235 333 186 l 385 281 l 332 281 q 253 343 265 281 l 111 958 l 203 958 l 329 381 q 360 358 335 358 l 424 358 l 722 958 l 819 958 z "},"Џ":{"ha":932,"x_min":72,"x_max":882,"o":"m 882 958 l 747 0 l 457 0 l 424 -210 l 360 -210 l 383 0 l 72 0 l 207 958 l 299 958 l 174 75 l 667 75 l 790 958 l 882 958 z "},"А":{"ha":850,"x_min":-37,"x_max":779,"o":"m 626 317 l 208 317 l 60 0 l -37 0 l 414 935 q 451 958 424 958 l 556 958 q 578 950 568 958 q 589 931 588 942 l 779 0 l 688 0 l 626 317 m 611 397 l 532 807 q 525 847 529 821 q 519 888 521 874 l 478 888 q 460 850 474 879 q 440 807 447 821 l 247 397 l 611 397 z "},"Б":{"ha":825,"x_min":71,"x_max":779,"o":"m 286 883 l 238 535 l 461 535 q 693 473 633 535 q 731 258 753 411 q 636 45 708 101 q 403 -11 564 -11 q 71 0 190 -11 l 206 958 q 492 965 325 965 q 779 958 619 965 l 761 883 l 286 883 m 226 461 l 172 69 q 393 67 281 67 q 571 108 519 67 q 639 268 622 149 q 619 421 654 381 q 457 461 583 461 l 226 461 z "},"В":{"ha":854,"x_min":71,"x_max":783,"o":"m 71 0 l 206 958 q 500 969 313 969 q 740 915 675 969 q 783 715 804 861 q 723 560 768 613 q 592 500 678 508 l 590 493 q 727 419 692 485 q 744 235 763 354 q 652 40 724 90 q 414 -11 581 -11 q 71 0 192 -11 m 236 532 l 460 532 q 628 571 578 533 q 694 714 679 608 q 667 857 710 822 q 496 892 625 892 q 286 890 338 892 l 236 532 m 225 461 l 171 69 q 403 67 285 67 q 586 106 532 67 q 656 256 640 144 q 630 417 672 375 q 456 461 588 458 l 225 461 z "},"Г":{"ha":715,"x_min":68,"x_max":760,"o":"m 68 0 l 179 794 q 239 918 190 876 q 360 960 288 960 q 760 951 632 960 l 747 882 l 385 882 q 303 858 332 882 q 267 775 275 833 l 158 0 l 68 0 z "},"Д":{"ha":938,"x_min":-56,"x_max":856,"o":"m 847 75 l 839 10 l 808 -210 l 739 -210 l 758 0 l 54 0 l 14 -210 l -56 -210 l -26 0 l -17 75 l 68 75 q 321 796 240 339 q 513 958 349 958 l 856 958 l 732 75 l 847 75 m 640 75 l 754 883 l 529 883 q 447 859 476 883 q 408 776 418 835 q 168 75 322 318 l 640 75 z "},"Е":{"ha":771,"x_min":86,"x_max":772,"o":"m 760 882 l 374 882 q 263 779 275 882 l 229 543 l 658 543 l 649 472 l 219 472 l 179 175 q 263 76 164 76 l 646 76 l 646 7 q 250 -1 518 -1 q 118 46 161 -1 q 86 174 75 93 l 175 804 q 233 918 185 876 q 361 960 282 960 q 772 951 643 960 l 760 882 z "},"Ж":{"ha":1247,"x_min":-6,"x_max":1253,"o":"m 900 501 l 900 497 q 973 468 942 492 q 1026 408 1004 444 q 1066 315 1047 372 q 1099 197 1085 257 q 1131 54 1113 138 q 1142 0 1138 18 l 1051 0 q 981 297 997 246 q 860 454 938 428 q 806 463 835 463 l 674 463 q 665 353 671 389 l 617 0 l 529 0 l 579 356 q 601 463 588 411 l 475 463 q 372 441 417 463 q 278 345 328 419 q 203 226 228 271 q 111 39 179 181 q 92 0 99 14 l -6 0 q 35 87 24 63 q 71 164 46 111 q 108 238 96 217 q 142 299 119 258 q 179 357 165 340 q 215 402 193 374 q 253 442 236 431 q 293 469 271 454 q 338 491 315 485 q 386 500 361 497 l 388 504 q 333 525 358 508 q 288 561 307 542 q 251 619 269 581 q 223 687 233 658 q 198 772 213 715 q 176 860 183 828 q 156 958 169 892 l 244 958 q 315 682 293 742 q 479 538 379 543 l 613 538 q 621 651 613 589 l 664 958 l 751 958 l 707 647 q 686 538 697 581 l 810 538 q 942 601 878 538 q 1042 726 1007 664 q 1146 931 1076 789 q 1160 958 1156 949 l 1253 958 q 1107 667 1146 731 q 900 501 1011 513 z "},"З":{"ha":757,"x_min":0,"x_max":685,"o":"m 151 881 l 147 949 q 401 969 265 969 q 638 914 571 969 q 685 715 706 858 q 625 560 669 611 q 493 500 581 508 l 490 493 q 626 419 590 483 q 644 235 661 354 q 555 40 625 92 q 317 -11 485 -11 q 0 17 129 -11 l 13 82 q 303 65 192 65 q 483 104 429 65 q 554 256 538 143 q 528 417 571 375 q 356 460 485 460 l 200 460 l 210 533 l 361 533 q 528 571 478 533 q 593 714 579 608 q 567 858 608 822 q 397 893 526 893 q 300 891 347 893 q 208 885 253 889 q 151 881 163 881 z "},"И":{"ha":953,"x_min":71,"x_max":901,"o":"m 767 0 l 679 0 l 778 701 q 801 840 786 756 l 797 839 q 778 808 790 828 q 755 772 765 788 q 735 743 744 756 l 169 0 l 71 0 l 206 958 l 294 958 l 196 260 q 171 118 182 164 l 175 119 q 244 221 200 160 l 804 958 l 901 958 l 767 0 z "},"Й":{"ha":953,"x_min":71,"x_max":901,"o":"m 719 1221 l 789 1221 q 722 1090 782 1140 q 569 1040 663 1040 q 422 1090 472 1040 q 388 1221 372 1140 l 457 1221 q 574 1092 436 1092 q 674 1124 636 1092 q 719 1221 713 1157 m 767 0 l 679 0 l 778 701 q 801 840 786 756 l 797 839 q 778 808 790 828 q 755 772 765 788 q 735 743 744 756 l 169 0 l 71 0 l 206 958 l 294 958 l 196 260 q 171 118 182 164 l 175 119 q 244 221 200 160 l 804 958 l 901 958 l 767 0 z "},"К":{"ha":815,"x_min":71,"x_max":824,"o":"m 442 501 l 439 497 q 567 423 515 489 q 639 289 618 357 q 697 63 660 221 q 713 -1 707 21 l 619 1 q 547 283 565 233 q 414 450 500 418 q 340 463 382 463 l 219 463 q 211 353 219 414 l 161 0 l 71 0 l 206 958 l 296 958 l 253 647 q 231 538 240 572 l 346 538 q 453 563 404 538 q 553 658 501 588 q 627 769 604 729 q 710 924 650 810 q 729 960 722 947 l 824 957 q 656 656 707 729 q 442 501 554 511 z "},"Л":{"ha":894,"x_min":-35,"x_max":843,"o":"m 843 958 l 708 0 l 618 0 l 742 883 l 526 883 q 441 860 469 883 q 400 775 413 836 q 301 369 333 476 q 210 168 269 263 q -29 -1 114 14 l -35 75 q 19 99 -3 88 q 70 136 40 110 q 126 203 100 163 q 216 392 185 289 q 314 799 247 494 q 379 920 332 882 q 508 958 426 958 l 843 958 z "},"М":{"ha":1207,"x_min":51,"x_max":1129,"o":"m 983 958 l 1092 958 q 1121 947 1111 958 q 1129 915 1131 935 l 1040 0 l 950 0 l 1038 882 l 1008 882 l 653 129 q 611 100 642 100 l 519 100 q 481 133 485 100 l 332 882 l 301 882 l 143 0 l 51 0 l 219 919 q 263 958 228 958 l 369 958 q 406 925 401 958 l 532 299 q 543 233 536 276 q 554 168 550 189 l 585 168 q 643 300 617 244 l 940 928 q 983 958 953 958 z "},"Н":{"ha":921,"x_min":71,"x_max":871,"o":"m 871 958 l 736 0 l 644 0 l 711 472 l 229 472 l 163 0 l 71 0 l 206 958 l 297 958 l 240 551 l 722 551 l 779 958 l 871 958 z "},"О":{"ha":922,"x_min":103,"x_max":840,"o":"m 536 975 q 808 862 738 975 q 840 475 879 749 q 707 92 803 200 q 410 -17 611 -17 q 137 96 208 -17 q 103 483 65 208 q 236 866 140 757 q 536 975 332 975 m 533 894 q 303 804 375 894 q 196 475 231 714 q 210 153 164 243 q 411 64 257 64 q 640 155 567 64 q 746 483 713 246 q 735 806 781 718 q 533 894 689 894 z "},"П":{"ha":925,"x_min":71,"x_max":875,"o":"m 875 958 l 740 0 l 649 0 l 772 883 l 288 883 l 163 0 l 71 0 l 206 958 l 875 958 z "},"Р":{"ha":813,"x_min":71,"x_max":783,"o":"m 71 0 l 206 958 q 524 969 324 969 q 747 904 688 969 q 783 674 807 839 q 688 442 758 501 q 453 383 617 383 q 218 394 335 383 l 163 0 l 71 0 m 226 463 l 451 463 q 624 508 572 464 q 693 681 675 553 q 673 848 710 804 q 522 892 636 892 q 288 889 399 892 l 226 463 z "},"С":{"ha":782,"x_min":103,"x_max":788,"o":"m 674 81 l 681 13 q 406 -17 568 -17 q 133 99 203 -17 q 103 483 64 215 q 236 865 140 756 q 533 975 332 975 q 788 949 678 975 l 771 881 q 533 893 669 893 q 303 805 375 893 q 196 475 231 717 q 209 154 164 243 q 406 65 254 65 q 674 81 554 64 z "},"Т":{"ha":789,"x_min":96,"x_max":836,"o":"m 825 878 l 506 878 l 382 0 l 290 0 l 414 878 l 96 878 l 108 958 l 836 958 l 825 878 z "},"У":{"ha":767,"x_min":64,"x_max":819,"o":"m 819 958 l 454 229 q 390 113 417 156 q 318 32 363 69 q 222 -8 274 -6 q 64 10 144 -15 l 78 75 q 154 67 126 69 q 210 72 182 65 q 251 85 238 78 q 286 117 265 92 q 320 164 307 142 q 360 235 333 186 l 385 281 l 332 281 q 253 343 265 281 l 111 958 l 203 958 l 329 381 q 360 358 335 358 l 424 358 l 722 958 l 819 958 z "},"Ф":{"ha":1138,"x_min":96,"x_max":1069,"o":"m 706 1038 l 686 896 q 1013 797 925 889 q 1069 486 1100 704 q 928 180 1039 269 q 571 83 817 90 l 551 -57 l 461 -57 l 479 83 q 152 183 239 90 q 96 494 65 276 q 238 801 126 711 q 594 897 350 890 l 614 1038 l 706 1038 m 672 819 l 579 161 q 864 240 776 168 q 978 494 951 313 q 936 745 1003 675 q 672 819 869 815 m 493 161 l 586 819 q 301 740 388 813 q 188 486 214 668 q 228 235 163 304 q 493 161 294 165 z "},"Х":{"ha":836,"x_min":-18,"x_max":858,"o":"m 529 497 l 742 0 l 647 0 l 454 464 l 411 464 l 88 0 l -18 0 l 336 499 l 136 958 l 231 958 l 410 535 l 454 535 l 757 958 l 858 958 l 529 497 z "},"Ц":{"ha":944,"x_min":72,"x_max":864,"o":"m 856 75 l 846 0 l 817 -210 l 746 -210 l 765 0 l 72 0 l 207 958 l 299 958 l 174 75 l 649 75 l 774 958 l 864 958 l 740 75 l 856 75 z "},"Ч":{"ha":854,"x_min":108,"x_max":804,"o":"m 804 958 l 669 0 l 579 0 l 646 478 q 293 357 465 357 q 140 408 185 357 q 108 571 94 458 l 163 958 l 254 958 l 203 583 q 219 472 192 504 q 322 439 246 439 q 484 469 407 439 q 657 558 561 499 l 714 958 l 804 958 z "},"Ш":{"ha":1275,"x_min":71,"x_max":1225,"o":"m 1225 958 l 1090 0 l 71 0 l 206 958 l 296 958 l 171 75 l 547 75 l 671 958 l 760 958 l 636 75 l 1011 75 l 1136 958 l 1225 958 z "},"Щ":{"ha":1296,"x_min":72,"x_max":1215,"o":"m 1092 75 l 1207 75 l 1196 0 l 1167 -210 l 1097 -210 l 1117 0 l 72 0 l 207 958 l 296 958 l 172 75 l 542 75 l 667 958 l 756 958 l 632 75 l 1001 75 l 1126 958 l 1215 958 l 1092 75 z "},"Ъ":{"ha":1025,"x_min":93,"x_max":940,"o":"m 451 558 l 674 558 q 903 493 843 558 q 940 268 963 428 q 846 48 918 107 q 613 -11 774 -11 q 282 0 400 -11 l 404 878 l 93 878 l 106 958 l 507 958 l 451 558 m 440 482 l 382 71 q 601 69 436 69 q 779 112 728 69 q 849 276 831 154 q 829 438 865 393 q 668 482 793 482 l 440 482 z "},"Ы":{"ha":1157,"x_min":71,"x_max":1106,"o":"m 242 558 l 464 558 q 694 493 635 558 q 732 268 754 428 q 638 48 710 107 q 404 -11 565 -11 q 71 0 190 -11 l 206 958 l 297 958 l 242 558 m 1106 958 l 971 0 l 879 0 l 1014 958 l 1106 958 m 231 482 l 172 71 q 393 69 226 69 q 571 112 519 69 q 640 276 622 154 q 621 438 657 393 q 460 482 585 482 l 231 482 z "},"Ь":{"ha":817,"x_min":71,"x_max":732,"o":"m 242 558 l 464 558 q 694 493 635 558 q 732 268 754 428 q 638 48 710 107 q 404 -11 565 -11 q 71 0 190 -11 l 206 958 l 297 958 l 242 558 m 231 482 l 172 71 q 393 69 226 69 q 571 112 519 69 q 640 276 622 154 q 621 438 657 393 q 460 482 585 482 l 231 482 z "},"Э":{"ha":793,"x_min":4,"x_max":713,"o":"m 146 879 l 140 949 q 386 975 249 975 q 677 864 603 975 q 713 475 751 753 q 578 95 676 203 q 269 -17 479 -12 q 4 14 121 -19 l 19 82 q 271 65 132 61 q 508 158 432 69 q 618 474 583 247 l 193 474 l 203 544 l 628 544 q 633 690 640 629 q 613 790 626 751 q 564 852 599 829 q 487 884 529 875 q 381 893 444 893 q 146 879 265 893 z "},"Ю":{"ha":1267,"x_min":72,"x_max":1186,"o":"m 239 536 l 472 536 q 606 878 514 781 q 881 975 697 975 q 1153 863 1081 975 q 1186 475 1225 750 q 1052 91 1147 199 q 753 -17 957 -17 q 493 90 560 -17 q 461 461 426 197 l 228 461 l 164 0 l 72 0 l 207 958 l 299 958 l 239 536 m 1092 483 q 1078 805 1124 715 q 881 894 1032 894 q 658 802 731 894 q 553 475 586 710 q 564 153 521 243 q 753 64 607 64 q 984 156 910 64 q 1092 483 1058 249 z "},"Я":{"ha":843,"x_min":7,"x_max":793,"o":"m 658 0 l 567 0 l 624 401 q 509 399 590 400 q 390 399 428 399 q 299 372 335 399 q 235 286 263 346 l 107 0 l 7 0 l 140 296 q 286 432 200 417 l 288 438 q 166 531 201 456 q 147 715 131 606 q 244 911 168 853 q 467 969 319 969 q 793 958 685 969 l 658 0 m 633 478 l 692 889 q 468 892 581 892 q 310 850 364 892 q 240 706 257 808 q 401 478 201 478 l 633 478 z "},"а":{"ha":794,"x_min":82,"x_max":715,"o":"m 621 0 l 553 0 l 565 151 q 416 29 499 75 q 251 -17 333 -17 q 90 65 128 -17 q 82 342 53 146 q 123 521 99 453 q 190 626 147 589 q 286 677 233 664 q 422 690 339 690 q 715 663 549 690 l 621 0 m 565 228 l 619 610 q 447 615 472 615 q 344 608 383 615 q 274 586 304 601 q 224 536 243 571 q 193 456 206 501 q 169 335 181 411 q 165 119 146 176 q 265 61 185 61 q 565 228 401 61 z "},"б":{"ha":788,"x_min":88,"x_max":744,"o":"m 733 1013 l 744 938 q 642 896 689 910 q 539 873 594 882 q 453 857 483 864 q 288 767 336 826 q 210 593 239 707 q 185 497 194 538 l 188 497 q 461 653 263 653 q 664 573 614 653 q 692 324 714 493 q 593 66 668 149 q 354 -17 518 -17 q 247 -5 293 -17 q 170 25 200 7 q 122 76 140 43 q 96 141 104 108 q 88 224 88 174 q 93 315 89 274 q 106 419 97 357 q 134 585 119 521 q 172 711 149 650 q 227 810 194 772 q 308 878 260 847 q 425 928 357 908 q 549 955 440 932 q 733 1013 657 978 m 442 576 q 256 515 310 576 q 185 322 201 453 q 201 117 164 175 q 357 60 239 60 q 524 119 468 60 q 600 333 579 179 q 587 525 621 474 q 442 576 553 576 z "},"в":{"ha":763,"x_min":65,"x_max":674,"o":"m 494 368 l 494 365 q 627 309 590 360 q 651 163 664 258 q 568 22 636 61 q 346 -17 500 -17 q 240 -11 283 -17 q 160 10 196 -6 q 105 51 125 25 q 74 117 85 76 q 65 213 64 157 q 78 346 67 269 q 121 526 94 458 q 192 631 147 594 q 288 678 236 667 q 425 690 340 690 q 533 684 489 690 q 616 661 576 678 q 670 608 656 644 q 674 515 685 571 q 494 368 649 388 m 167 363 l 376 390 q 533 433 489 404 q 589 515 578 461 q 564 598 601 578 q 415 618 526 618 q 316 611 351 618 q 249 578 281 604 q 199 501 217 551 q 167 363 181 450 m 374 326 l 158 297 q 151 205 151 243 q 159 140 151 167 q 178 97 167 113 q 215 71 190 81 q 266 58 239 61 q 335 56 293 56 q 503 83 453 56 q 564 186 553 110 q 533 306 575 271 q 374 326 492 342 z "},"г":{"ha":714,"x_min":42,"x_max":636,"o":"m 111 576 l 108 646 q 389 690 236 683 q 484 690 444 693 q 565 672 524 686 q 624 624 606 658 q 636 533 643 589 q 610 452 631 488 q 556 394 590 417 q 503 363 522 372 q 449 340 483 353 l 236 263 q 160 219 185 243 q 131 156 136 196 q 159 78 122 97 q 279 60 196 60 q 600 114 439 61 l 604 44 q 279 -17 460 -17 q 93 21 156 -17 q 42 156 31 58 q 91 265 50 224 q 217 340 132 307 l 421 413 q 515 463 486 435 q 550 532 544 490 q 520 603 558 588 q 379 615 482 619 q 111 576 264 610 z "},"д":{"ha":781,"x_min":81,"x_max":693,"o":"m 217 922 l 231 986 q 335 971 289 981 q 432 945 382 961 q 518 906 482 929 q 590 850 554 883 q 644 774 625 817 q 680 673 664 731 q 693 544 696 615 q 681 386 690 474 q 647 224 667 290 q 588 99 626 157 q 485 13 550 42 q 331 -17 421 -17 q 117 63 178 -17 q 81 310 57 142 q 393 621 121 621 q 604 533 531 621 q 596 651 606 599 q 569 741 586 704 q 523 807 553 778 q 463 854 493 836 q 389 886 433 872 q 307 908 344 900 q 217 922 269 915 m 333 58 q 513 140 458 58 q 592 403 567 221 q 601 474 594 424 q 407 546 529 546 q 242 483 296 546 q 171 301 188 421 q 192 114 153 169 q 333 58 231 58 z "},"е":{"ha":740,"x_min":74,"x_max":676,"o":"m 600 76 l 607 17 q 336 -17 511 -17 q 106 69 167 -17 q 74 349 46 154 q 181 619 101 549 q 435 690 260 690 q 640 640 581 690 q 676 478 699 589 q 603 349 658 388 q 432 299 549 310 l 156 272 q 193 103 147 147 q 353 58 239 58 q 600 76 453 58 m 164 340 l 432 367 q 542 399 508 375 q 588 485 575 424 q 567 591 606 567 q 428 615 528 615 q 321 606 361 615 q 248 567 281 596 q 197 485 215 538 q 164 346 178 433 l 164 340 z "},"ж":{"ha":1054,"x_min":-6,"x_max":1024,"o":"m 728 351 l 728 349 q 827 298 788 342 q 883 209 867 254 q 933 43 900 164 q 946 0 942 15 l 861 0 q 792 222 813 179 q 667 315 749 308 q 650 317 658 317 l 551 317 q 549 242 553 283 l 514 0 l 433 0 l 469 247 q 485 317 472 274 l 386 317 q 245 252 300 315 q 99 24 190 189 q 86 0 90 8 l -6 0 q 136 240 100 193 q 314 351 214 342 l 314 354 q 247 378 276 360 q 200 420 218 397 q 164 490 182 443 q 136 571 146 538 q 110 672 126 604 l 194 672 q 216 592 208 618 q 238 526 224 567 q 265 465 251 485 q 297 424 278 446 q 340 393 315 401 q 394 385 364 385 l 494 385 q 500 465 493 415 l 529 672 l 610 672 l 579 461 q 563 385 572 413 l 649 385 q 718 401 685 385 q 775 437 751 417 q 830 501 799 457 q 880 577 861 546 q 935 672 899 608 l 1024 672 q 967 569 985 600 q 916 488 949 538 q 860 416 883 438 q 801 375 836 394 q 728 351 767 356 z "},"з":{"ha":683,"x_min":0,"x_max":593,"o":"m 111 599 l 107 664 q 317 683 189 683 q 544 645 482 683 q 593 500 607 607 q 546 390 582 426 q 429 347 510 354 l 426 343 q 548 292 514 336 q 569 161 582 249 q 490 23 556 57 q 264 -11 425 -11 q 0 7 114 -11 l 13 75 q 260 64 150 64 q 428 88 383 64 q 482 188 472 111 q 454 285 492 260 q 304 311 417 310 l 151 313 l 158 378 l 308 378 q 455 403 413 378 q 507 497 497 428 q 478 588 517 567 q 313 608 440 608 q 111 599 192 608 z "},"и":{"ha":785,"x_min":78,"x_max":707,"o":"m 707 672 l 613 0 l 544 0 l 558 157 q 238 -17 381 -17 q 106 32 147 -17 q 78 169 65 81 l 149 672 l 238 672 l 168 189 q 181 90 158 121 q 265 60 204 60 q 393 99 329 60 q 558 231 457 139 l 619 672 l 707 672 z "},"й":{"ha":785,"x_min":78,"x_max":707,"o":"m 600 969 l 669 969 q 602 839 661 889 q 450 789 543 789 q 302 839 353 789 q 267 969 251 889 l 338 969 q 454 840 317 840 q 600 969 583 840 m 707 672 l 613 0 l 544 0 l 558 157 q 238 -17 381 -17 q 106 32 147 -17 q 78 169 65 81 l 149 672 l 238 672 l 168 189 q 181 90 158 121 q 265 60 204 60 q 393 99 329 60 q 558 231 457 139 l 619 672 l 707 672 z "},"к":{"ha":729,"x_min":58,"x_max":699,"o":"m 390 351 l 388 349 q 525 272 483 340 q 614 31 567 203 q 622 -1 619 10 l 533 1 q 461 217 482 175 q 335 314 418 303 q 304 315 321 315 l 185 315 q 181 242 185 269 l 146 0 l 58 0 l 154 672 l 242 672 l 213 463 q 194 385 204 422 l 303 385 q 381 401 344 385 q 442 437 417 417 q 500 501 468 457 q 551 578 532 546 q 604 674 569 610 l 699 672 q 627 544 653 588 q 562 451 601 500 q 482 379 522 401 q 390 351 442 357 z "},"л":{"ha":768,"x_min":-21,"x_max":690,"o":"m 690 672 l 594 0 l 507 0 l 593 603 l 426 603 q 356 582 381 603 q 318 510 331 561 q 193 132 260 257 q -12 -7 133 6 l -21 67 q 117 168 78 94 q 236 531 167 260 q 295 639 256 606 q 408 672 335 672 l 690 672 z "},"м":{"ha":1019,"x_min":43,"x_max":921,"o":"m 790 672 l 888 672 q 921 636 925 672 l 863 0 l 781 0 l 836 604 l 811 604 l 543 96 q 506 69 529 69 l 425 69 q 392 100 399 69 l 264 604 l 238 604 l 125 0 l 43 0 l 163 639 q 201 672 168 672 l 297 672 q 331 642 324 672 l 435 229 q 457 129 453 153 l 482 131 q 529 228 513 196 l 753 646 q 790 672 765 672 z "},"н":{"ha":797,"x_min":58,"x_max":719,"o":"m 719 672 l 624 0 l 538 0 l 583 324 l 192 324 l 146 0 l 58 0 l 154 672 l 240 672 l 201 393 l 593 393 l 632 672 l 719 672 z "},"о":{"ha":783,"x_min":74,"x_max":690,"o":"m 179 611 q 219 651 179 611 q 426 690 258 690 q 656 608 594 690 q 690 332 717 526 q 585 62 664 140 q 339 -17 506 -17 q 108 65 169 -17 q 74 340 47 146 q 179 611 100 532 m 426 614 q 245 553 303 614 q 164 332 188 493 q 180 117 142 175 q 339 58 218 58 q 520 119 463 58 q 600 340 578 181 q 585 556 622 497 q 426 614 547 614 z "},"п":{"ha":800,"x_min":58,"x_max":703,"o":"m 224 672 l 210 519 q 543 690 404 690 q 674 642 632 690 q 703 503 715 593 l 631 0 l 543 0 l 611 485 q 599 585 621 556 q 518 614 578 614 q 385 576 454 614 q 210 453 317 538 l 147 0 l 58 0 l 154 672 l 224 672 z "},"р":{"ha":794,"x_min":18,"x_max":694,"o":"m 224 672 l 210 515 q 368 639 279 589 q 526 689 457 689 q 685 609 649 689 q 694 331 722 529 q 653 152 678 221 q 585 47 628 83 q 492 -3 543 10 q 358 -17 440 -17 q 142 -1 256 -17 q 131 -131 140 -67 l 106 -290 l 18 -290 l 154 672 l 224 672 m 210 444 l 157 61 q 329 57 268 57 q 452 66 408 57 q 528 108 496 75 q 576 192 561 140 q 606 338 592 243 q 610 553 629 496 q 510 611 590 611 q 371 567 453 611 q 210 444 289 522 z "},"с":{"ha":671,"x_min":74,"x_max":638,"o":"m 558 75 l 565 14 q 344 -17 465 -17 q 108 65 169 -17 q 74 340 46 147 q 181 612 100 533 q 432 690 261 690 q 638 660 556 690 l 622 603 q 446 614 549 614 q 248 556 310 614 q 164 333 186 497 q 185 115 143 171 q 358 60 226 60 q 558 75 475 60 z "},"т":{"ha":1217,"x_min":58,"x_max":1118,"o":"m 221 672 l 208 521 q 510 690 385 690 q 633 648 592 690 q 669 529 674 606 q 961 690 838 690 q 1090 641 1050 690 q 1118 503 1131 592 l 1047 0 l 960 0 l 1028 485 q 1014 584 1038 554 q 931 614 990 614 q 817 578 875 614 q 660 451 758 542 l 596 0 l 511 0 l 579 485 q 566 583 589 553 q 481 614 543 614 q 367 578 425 614 q 210 453 310 542 l 146 0 l 58 0 l 154 672 l 221 672 z "},"у":{"ha":736,"x_min":-7,"x_max":710,"o":"m 619 672 l 710 672 q 624 399 685 560 q 492 99 564 239 q 353 -125 422 -37 q 226 -246 285 -212 q 106 -290 167 -279 q -7 -287 46 -301 l 3 -215 q 106 -214 58 -224 q 216 -151 153 -204 q 342 0 279 -99 l 275 0 q 227 16 247 0 q 201 58 207 32 l 68 672 l 161 672 l 276 100 q 311 71 283 71 l 383 71 l 411 122 q 540 409 482 254 q 619 672 599 564 z "},"ф":{"ha":983,"x_min":71,"x_max":892,"o":"m 613 972 l 574 689 q 844 598 771 681 q 892 332 918 515 q 772 69 867 150 q 474 -17 676 -11 l 436 -283 l 354 -283 l 390 -15 q 119 74 192 -8 q 71 340 46 157 q 192 603 97 524 q 490 689 288 683 l 531 972 l 613 972 m 560 614 l 482 60 q 713 129 640 67 q 806 340 786 192 q 772 549 826 489 q 560 614 718 608 m 404 60 l 482 614 q 251 544 324 607 q 157 332 178 482 q 191 124 136 183 q 404 60 246 64 z "},"х":{"ha":718,"x_min":-21,"x_max":703,"o":"m 439 349 l 625 0 l 535 0 l 369 315 l 333 315 l 81 0 l -21 0 l 265 350 l 93 672 l 183 672 l 332 386 l 372 386 l 606 672 l 703 672 l 439 349 z "},"ц":{"ha":815,"x_min":78,"x_max":722,"o":"m 714 0 l 683 -207 l 607 -207 l 649 0 l 646 0 q 572 28 599 0 q 551 113 546 57 l 554 144 q 238 -17 381 -17 q 106 32 147 -17 q 78 169 65 81 l 149 672 l 238 672 l 168 189 q 181 90 158 121 q 265 60 204 60 q 394 97 329 60 q 557 221 458 135 l 619 672 l 707 672 l 629 113 q 667 68 624 68 l 722 68 l 714 0 z "},"ч":{"ha":735,"x_min":76,"x_max":657,"o":"m 657 672 l 563 0 l 474 0 l 519 324 q 235 242 364 242 q 76 389 56 239 l 117 672 l 204 672 l 168 413 q 181 336 161 357 q 263 315 201 315 q 531 401 376 315 l 568 672 l 657 672 z "},"ш":{"ha":1192,"x_min":78,"x_max":1114,"o":"m 1114 672 l 1019 0 l 951 0 l 964 149 q 667 -17 800 -17 q 551 24 590 -17 q 515 140 511 65 q 228 -17 357 -17 q 104 32 143 -17 q 78 169 65 81 l 149 672 l 236 672 l 168 189 q 181 93 158 122 q 261 64 204 64 q 372 97 318 64 q 525 221 425 131 l 589 672 l 674 672 l 606 189 q 618 94 596 124 q 699 64 640 64 q 811 98 757 64 q 964 219 865 132 l 1026 672 l 1114 672 z "},"щ":{"ha":1222,"x_min":78,"x_max":1129,"o":"m 1129 68 l 1119 0 l 1089 -207 l 1013 -207 l 1057 0 l 1053 0 q 978 28 1006 0 q 957 113 951 57 l 961 146 q 667 -17 799 -17 q 551 24 590 -17 q 515 140 511 65 q 228 -17 357 -17 q 104 32 143 -17 q 78 169 65 81 l 149 672 l 236 672 l 168 189 q 181 93 158 122 q 261 64 204 64 q 372 97 318 64 q 525 221 425 131 l 589 672 l 674 672 l 606 189 q 618 94 596 124 q 699 64 640 64 q 811 98 757 64 q 964 219 865 132 l 1026 672 l 1114 672 l 1036 113 q 1072 68 1029 68 l 1129 68 z "},"ъ":{"ha":868,"x_min":60,"x_max":774,"o":"m 464 672 l 382 374 q 536 403 456 403 q 740 356 689 403 q 774 190 790 310 q 696 30 757 72 q 503 -12 635 -12 q 401 -6 444 -12 q 313 22 358 1 q 250 90 267 43 q 251 210 233 138 l 361 601 l 60 601 l 69 672 l 464 672 m 364 306 l 333 196 q 333 124 324 153 q 369 82 343 96 q 424 63 396 68 q 488 58 451 58 q 630 88 589 58 q 685 203 671 117 q 665 308 696 281 q 533 336 635 336 q 364 306 442 336 z "},"ы":{"ha":968,"x_min":76,"x_max":890,"o":"m 236 672 l 190 364 q 371 403 278 403 q 574 356 522 403 q 610 190 625 310 q 533 31 593 74 q 339 -12 474 -12 q 264 -10 294 -12 q 192 2 233 -8 q 126 31 150 13 q 86 84 101 49 q 76 169 71 119 l 150 672 l 236 672 m 890 672 l 794 0 l 706 0 l 801 672 l 890 672 m 182 300 l 163 168 q 168 110 157 133 q 206 76 179 86 q 259 62 232 65 q 324 58 286 58 q 467 88 425 58 q 521 203 508 118 q 501 308 532 281 q 367 336 469 336 q 182 300 268 336 z "},"ь":{"ha":703,"x_min":76,"x_max":610,"o":"m 236 672 l 190 364 q 371 403 278 403 q 574 356 522 403 q 610 190 625 310 q 533 31 593 74 q 339 -12 474 -12 q 264 -10 294 -12 q 192 2 233 -8 q 126 31 150 13 q 86 84 101 49 q 76 169 71 119 l 150 672 l 236 672 m 182 300 l 163 168 q 168 110 157 133 q 206 76 179 86 q 259 62 232 65 q 324 58 286 58 q 467 88 425 58 q 521 203 508 118 q 501 308 532 281 q 367 336 469 336 q 182 300 268 336 z "},"э":{"ha":689,"x_min":6,"x_max":593,"o":"m 106 596 l 100 660 q 306 681 182 681 q 554 603 489 681 q 593 329 619 526 q 486 60 568 135 q 224 -12 404 -15 q 6 11 96 -12 l 19 74 q 215 64 107 64 q 417 113 356 61 q 501 311 479 164 l 154 311 l 164 376 l 510 376 q 478 560 522 514 q 303 606 433 606 q 106 596 204 606 z "},"ю":{"ha":1088,"x_min":60,"x_max":994,"o":"m 201 382 l 390 382 q 496 623 419 556 q 728 690 572 690 q 960 612 899 690 q 994 333 1022 533 q 888 64 967 139 q 639 -11 810 -11 q 417 60 476 -11 q 381 313 358 131 l 190 313 l 147 0 l 60 0 l 154 672 l 242 672 l 201 382 m 822 126 q 851 157 822 126 q 903 343 881 188 q 885 556 925 499 q 725 614 846 614 q 547 554 603 614 q 468 335 490 494 q 482 122 446 179 q 636 64 518 64 q 822 126 764 64 z "},"я":{"ha":739,"x_min":13,"x_max":661,"o":"m 661 669 l 567 0 l 481 0 l 517 258 l 322 258 q 168 181 196 258 l 103 0 l 13 0 l 83 196 q 142 267 101 244 q 225 290 182 289 l 226 294 q 126 360 154 306 q 107 486 97 415 q 189 642 121 604 q 418 679 257 679 q 661 669 540 679 m 526 325 l 565 604 q 388 606 515 606 q 242 581 282 606 q 192 474 201 556 q 209 365 182 404 q 321 325 236 325 l 526 325 z "},"ё":{"ha":740,"x_min":74,"x_max":676,"o":"m 342 819 l 313 819 q 289 846 285 819 l 300 922 q 332 950 304 950 l 358 950 q 383 922 388 950 l 371 847 q 342 819 369 819 m 581 819 l 551 819 q 528 846 524 819 l 539 922 q 569 950 543 950 l 597 950 q 622 922 626 950 l 610 847 q 581 819 608 819 m 600 76 l 607 17 q 336 -17 511 -17 q 106 69 167 -17 q 74 349 46 154 q 181 619 101 549 q 435 690 260 690 q 640 640 581 690 q 676 478 699 589 q 603 349 658 388 q 432 299 549 310 l 156 272 q 193 103 147 147 q 353 58 239 58 q 600 76 453 58 m 164 340 l 432 367 q 542 399 508 375 q 588 485 575 424 q 567 591 606 567 q 428 615 528 615 q 321 606 361 615 q 248 567 281 596 q 197 485 215 538 q 164 346 178 433 l 164 340 z "},"ђ":{"ha":793,"x_min":78,"x_max":708,"o":"m 271 697 l 246 521 q 224 404 238 460 q 546 554 406 554 q 708 367 733 554 l 656 0 l 568 0 l 618 349 q 601 445 626 417 q 510 474 576 474 q 382 440 447 474 q 218 332 317 407 l 172 0 l 83 0 l 182 697 l 78 697 l 86 750 l 189 750 l 221 972 l 308 972 l 278 750 l 557 750 l 549 697 l 271 697 z "},"ѓ":{"ha":714,"x_min":42,"x_max":636,"o":"m 603 942 l 332 764 l 301 807 l 557 1010 l 603 942 m 111 576 l 108 646 q 389 690 236 683 q 484 690 444 693 q 565 672 524 686 q 624 624 606 658 q 636 533 643 589 q 610 452 631 488 q 556 394 590 417 q 503 363 522 372 q 449 340 483 353 l 236 263 q 160 219 185 243 q 131 156 136 196 q 159 78 122 97 q 279 60 196 60 q 600 114 439 61 l 604 44 q 279 -17 460 -17 q 93 21 156 -17 q 42 156 31 58 q 91 265 50 224 q 217 340 132 307 l 421 413 q 515 463 486 435 q 550 532 544 490 q 520 603 558 588 q 379 615 482 619 q 111 576 264 610 z "},"є":{"ha":686,"x_min":74,"x_max":653,"o":"m 653 658 l 639 596 q 446 606 547 606 q 253 558 313 606 q 169 375 194 511 l 517 375 l 508 311 l 160 311 q 185 116 142 165 q 367 64 229 67 q 571 74 463 63 l 578 11 q 351 -12 481 -12 q 114 67 181 -12 q 74 338 47 146 q 183 606 100 532 q 443 681 265 681 q 653 658 571 681 z "},"ѕ":{"ha":701,"x_min":36,"x_max":643,"o":"m 417 265 l 217 349 q 112 420 143 381 q 90 535 81 460 q 168 662 104 631 q 368 690 232 693 q 643 669 513 688 l 632 607 q 371 615 506 614 q 224 602 263 617 q 176 528 185 588 q 189 459 169 481 q 261 415 208 438 l 463 332 q 574 260 543 299 q 594 147 604 222 q 571 72 589 103 q 530 24 553 42 q 467 -2 507 7 q 388 -14 426 -11 q 288 -17 349 -17 q 36 3 192 -17 l 47 68 q 271 58 133 58 q 451 79 404 61 q 507 156 499 97 q 501 209 513 188 q 473 240 489 231 q 417 265 457 249 z "},"і":{"ha":331,"x_min":65,"x_max":288,"o":"m 219 956 l 261 956 q 288 925 292 956 l 276 843 q 246 817 272 817 l 206 817 q 178 847 174 817 l 190 929 q 219 956 192 956 m 153 0 l 65 0 l 160 672 l 247 672 l 153 0 z "},"ї":{"ha":328,"x_min":63,"x_max":399,"o":"m 107 950 l 135 950 q 160 922 164 950 l 147 847 q 118 819 146 819 l 89 819 q 65 846 61 819 l 76 922 q 107 950 81 950 m 346 950 l 374 950 q 399 922 403 950 l 386 847 q 357 819 385 819 l 328 819 q 303 846 301 819 l 315 922 q 346 950 319 950 m 151 0 l 63 0 l 158 672 l 246 672 l 151 0 z "},"ј":{"ha":331,"x_min":-49,"x_max":288,"o":"m 219 956 l 261 956 q 288 925 292 956 l 276 843 q 246 817 272 817 l 206 817 q 178 847 174 817 l 190 929 q 219 956 192 956 m 247 672 l 147 -36 q -1 -286 126 -185 l -49 -246 q 60 -31 43 -147 l 160 672 l 247 672 z "},"љ":{"ha":1094,"x_min":-19,"x_max":1000,"o":"m 644 672 l 599 361 q 785 403 681 403 q 969 354 922 403 q 1000 190 1015 306 q 927 30 983 71 q 740 -12 871 -11 q 640 -6 682 -12 q 558 18 597 0 q 501 74 518 36 q 490 169 483 113 l 554 606 l 415 606 q 318 521 336 606 q 250 260 274 333 q 182 124 226 188 q -12 -3 113 14 l -19 69 q 106 156 53 89 q 170 278 149 213 q 240 544 192 344 q 390 672 269 672 l 644 672 m 590 299 l 571 168 q 603 81 561 103 q 722 58 644 58 q 861 88 821 58 q 913 203 901 117 q 894 308 922 281 q 774 336 865 336 q 590 299 672 336 z "},"њ":{"ha":1113,"x_min":58,"x_max":1018,"o":"m 665 672 l 621 364 q 792 403 703 403 q 985 356 936 403 q 1018 190 1033 310 q 946 31 1003 74 q 760 -12 889 -12 q 688 -10 718 -12 q 619 2 658 -8 q 556 31 579 13 q 517 84 532 49 q 508 169 503 119 l 533 339 l 189 339 l 140 0 l 58 0 l 154 672 l 236 672 l 199 404 l 543 404 l 582 672 l 665 672 m 611 300 l 592 168 q 594 119 588 139 q 615 87 601 99 q 651 69 628 75 q 694 60 674 63 q 744 58 715 58 q 880 88 840 58 q 931 203 919 118 q 912 308 940 281 q 788 336 883 336 q 611 300 694 336 z "},"ћ":{"ha":793,"x_min":78,"x_max":708,"o":"m 269 697 l 247 536 q 222 404 236 457 q 546 554 407 554 q 708 367 733 554 l 653 -36 q 503 -286 631 -187 l 457 -246 q 565 -31 549 -144 l 618 349 q 602 444 628 415 q 510 474 576 474 q 382 441 447 474 q 217 332 317 408 l 172 0 l 83 0 l 182 697 l 78 697 l 86 750 l 189 750 l 221 972 l 308 972 l 278 750 l 557 750 l 549 697 l 269 697 z "},"ќ":{"ha":729,"x_min":58,"x_max":699,"o":"m 382 764 l 351 807 l 606 1010 l 651 942 l 382 764 m 390 351 l 388 349 q 525 272 483 340 q 614 31 567 203 q 622 -1 619 10 l 533 1 q 461 217 482 175 q 335 314 418 303 q 304 315 321 315 l 185 315 q 181 242 185 269 l 146 0 l 58 0 l 154 672 l 242 672 l 213 463 q 194 385 204 422 l 303 385 q 381 401 344 385 q 442 437 417 417 q 500 501 468 457 q 551 578 532 546 q 604 674 569 610 l 699 672 q 627 544 653 588 q 562 451 601 500 q 482 379 522 401 q 390 351 442 357 z "},"ѝ":{"ha":785,"x_min":78,"x_max":707,"o":"m 475 764 l 243 946 l 294 1008 l 510 804 l 475 764 m 707 672 l 613 0 l 544 0 l 558 157 q 238 -17 381 -17 q 106 32 147 -17 q 78 169 65 81 l 149 672 l 238 672 l 168 189 q 181 90 158 121 q 265 60 204 60 q 393 99 329 60 q 558 231 457 139 l 619 672 l 707 672 z "},"ў":{"ha":736,"x_min":-7,"x_max":710,"o":"m 556 969 l 625 969 q 558 839 618 889 q 406 789 499 789 q 259 839 310 789 q 222 969 208 889 l 293 969 q 410 840 272 840 q 556 969 539 840 m 619 672 l 710 672 q 624 399 685 560 q 492 99 564 239 q 353 -125 422 -37 q 226 -246 285 -212 q 106 -290 167 -279 q -7 -287 46 -301 l 3 -215 q 106 -214 58 -224 q 216 -151 153 -204 q 342 0 279 -99 l 275 0 q 227 16 247 0 q 201 58 207 32 l 68 672 l 161 672 l 276 100 q 311 71 283 71 l 383 71 l 411 122 q 540 409 482 254 q 619 672 599 564 z "},"џ":{"ha":785,"x_min":78,"x_max":707,"o":"m 707 672 l 613 0 l 544 0 l 558 157 q 238 -17 381 -17 q 106 32 147 -17 q 78 169 65 81 l 149 672 l 238 672 l 168 189 q 181 90 158 121 q 265 60 204 60 q 393 99 329 60 q 558 231 457 139 l 619 672 l 707 672 m 332 -56 l 390 -56 l 365 -303 l 289 -303 l 332 -56 z "},"Ґ":{"ha":719,"x_min":68,"x_max":799,"o":"m 763 944 l 751 882 l 386 882 q 305 858 333 882 q 268 775 276 835 l 160 0 l 68 0 l 179 794 q 240 918 192 876 q 361 960 288 960 q 693 951 586 960 l 736 1168 l 799 1168 l 763 944 z "},"ґ":{"ha":619,"x_min":56,"x_max":653,"o":"m 611 603 l 318 603 q 246 582 271 603 q 214 510 221 561 l 143 0 l 56 0 l 131 536 q 288 675 150 675 q 551 671 464 675 l 592 875 l 653 875 l 621 667 l 611 603 z "},"Ұ":{"ha":790,"x_min":107,"x_max":840,"o":"m 456 376 l 651 376 l 642 318 l 429 318 l 385 0 l 293 0 l 338 318 l 122 318 l 131 376 l 331 376 l 107 958 l 201 958 l 361 531 q 392 428 378 481 l 403 431 q 463 535 450 515 l 742 958 l 840 958 l 456 376 z "},"ұ":{"ha":796,"x_min":67,"x_max":800,"o":"m 415 93 l 613 93 l 604 35 l 389 35 l 343 -286 l 251 -286 l 297 35 l 83 35 l 92 93 l 289 93 l 67 672 l 160 672 l 319 246 q 351 142 343 175 l 361 142 q 421 249 382 189 l 700 672 l 800 672 l 415 93 z "},"Ҷ":{"ha":893,"x_min":108,"x_max":813,"o":"m 804 65 l 796 0 l 765 -210 l 696 -210 l 715 0 l 586 0 l 653 475 q 294 357 468 357 q 108 571 79 357 l 164 958 l 254 958 l 203 583 q 220 472 192 506 q 331 438 249 438 q 487 466 411 438 q 665 557 563 494 l 721 958 l 813 958 l 686 65 l 804 65 z "},"ҷ":{"ha":763,"x_min":76,"x_max":657,"o":"m 649 7 l 619 -199 l 542 -199 l 576 0 l 474 0 l 519 324 q 235 242 364 242 q 76 389 56 239 l 117 672 l 204 672 l 168 413 q 181 336 161 357 q 263 315 201 315 q 531 403 378 315 l 569 672 l 657 672 l 571 72 l 657 72 l 649 7 z "},"Һ":{"ha":863,"x_min":71,"x_max":774,"o":"m 297 958 l 231 483 q 589 601 422 601 q 774 388 807 601 l 719 0 l 628 0 l 682 375 q 664 488 693 454 q 554 521 635 521 q 399 493 475 521 q 219 401 324 465 l 163 0 l 71 0 l 206 958 l 297 958 z "},"Ӏ":{"ha":349,"x_min":72,"x_max":299,"o":"m 164 0 l 72 0 l 207 958 l 299 958 l 164 0 z "},"Ẁ":{"ha":1301,"x_min":117,"x_max":1336,"o":"m 801 1054 l 767 1014 l 535 1196 l 586 1258 l 801 1054 m 1336 958 l 989 26 q 949 0 979 0 l 840 0 q 806 32 808 0 l 740 782 l 732 888 l 700 888 l 661 778 l 389 28 q 349 0 378 0 l 240 0 q 216 9 226 0 q 204 31 206 18 l 117 958 l 210 958 l 276 179 q 282 69 279 144 l 318 69 l 357 182 l 629 929 q 669 958 640 958 l 774 958 q 797 949 788 958 q 807 925 806 939 l 878 179 q 885 69 883 103 l 921 69 l 958 182 l 1240 958 l 1336 958 z "},"ẁ":{"ha":1163,"x_min":69,"x_max":1135,"o":"m 700 804 l 665 764 l 433 946 l 485 1008 l 700 804 m 264 71 l 282 71 q 342 113 317 71 q 435 311 386 181 q 528 650 488 453 q 554 672 531 675 l 650 672 q 676 650 671 672 l 753 71 l 769 71 q 825 110 800 71 q 935 311 896 217 q 1043 672 1001 458 l 1135 672 q 1003 274 1083 446 q 875 54 931 122 q 775 0 833 0 l 715 0 q 685 25 688 0 l 608 613 l 593 613 q 507 289 569 457 q 397 67 456 147 q 279 0 357 0 l 225 0 q 194 25 200 0 l 69 672 l 160 672 l 264 71 z "},"Ẃ":{"ha":1301,"x_min":117,"x_max":1336,"o":"m 957 1192 l 688 1014 l 657 1057 l 911 1260 l 957 1192 m 1336 958 l 989 26 q 949 0 979 0 l 840 0 q 806 32 808 0 l 740 782 l 732 888 l 700 888 l 661 778 l 389 28 q 349 0 378 0 l 240 0 q 216 9 226 0 q 204 31 206 18 l 117 958 l 210 958 l 276 179 q 282 69 279 144 l 318 69 l 357 182 l 629 929 q 669 958 640 958 l 774 958 q 797 949 788 958 q 807 925 806 939 l 878 179 q 885 69 883 103 l 921 69 l 958 182 l 1240 958 l 1336 958 z "},"ẃ":{"ha":1163,"x_min":69,"x_max":1135,"o":"m 856 942 l 586 764 l 556 807 l 810 1010 l 856 942 m 264 71 l 282 71 q 342 113 317 71 q 435 311 386 181 q 528 650 488 453 q 554 672 531 675 l 650 672 q 676 650 671 672 l 753 71 l 769 71 q 825 110 800 71 q 935 311 896 217 q 1043 672 1001 458 l 1135 672 q 1003 274 1083 446 q 875 54 931 122 q 775 0 833 0 l 715 0 q 685 25 688 0 l 608 613 l 593 613 q 507 289 569 457 q 397 67 456 147 q 279 0 357 0 l 225 0 q 194 25 200 0 l 69 672 l 160 672 l 264 71 z "},"Ẅ":{"ha":1301,"x_min":117,"x_max":1336,"o":"m 628 1200 l 656 1200 q 679 1172 683 1200 l 668 1099 q 638 1069 664 1069 l 608 1069 q 585 1097 581 1069 l 596 1172 q 628 1200 600 1200 m 867 1200 l 893 1200 q 918 1172 922 1200 l 906 1099 q 876 1069 904 1069 l 847 1069 q 824 1097 819 1069 l 835 1172 q 867 1200 839 1200 m 1336 958 l 989 26 q 949 0 979 0 l 840 0 q 806 32 808 0 l 740 782 l 732 888 l 700 888 l 661 778 l 389 28 q 349 0 378 0 l 240 0 q 216 9 226 0 q 204 31 206 18 l 117 958 l 210 958 l 276 179 q 282 69 279 144 l 318 69 l 357 182 l 629 929 q 669 958 640 958 l 774 958 q 797 949 788 958 q 807 925 806 939 l 878 179 q 885 69 883 103 l 921 69 l 958 182 l 1240 958 l 1336 958 z "},"ẅ":{"ha":1163,"x_min":69,"x_max":1135,"o":"m 526 950 l 554 950 q 578 922 582 950 l 567 847 q 536 819 563 819 l 508 819 q 483 846 482 819 l 494 922 q 526 950 499 950 m 765 950 l 792 950 q 817 922 821 950 l 804 847 q 775 819 803 819 l 746 819 q 722 846 718 819 l 733 922 q 765 950 738 950 m 264 71 l 282 71 q 342 113 317 71 q 435 311 386 181 q 528 650 488 453 q 554 672 531 675 l 650 672 q 676 650 671 672 l 753 71 l 769 71 q 825 110 800 71 q 935 311 896 217 q 1043 672 1001 458 l 1135 672 q 1003 274 1083 446 q 875 54 931 122 q 775 0 833 0 l 715 0 q 685 25 688 0 l 608 613 l 593 613 q 507 289 569 457 q 397 67 456 147 q 279 0 357 0 l 225 0 q 194 25 200 0 l 69 672 l 160 672 l 264 71 z "},"Ỳ":{"ha":769,"x_min":93,"x_max":826,"o":"m 500 1015 l 268 1196 l 319 1260 l 533 1056 l 500 1015 m 418 343 l 371 0 l 279 0 l 328 346 l 93 958 l 186 958 l 346 531 q 378 428 363 486 l 388 428 q 447 535 404 464 l 726 958 l 826 958 l 418 343 z "},"ỳ":{"ha":735,"x_min":51,"x_max":710,"o":"m 429 764 l 197 946 l 249 1008 l 464 804 l 429 764 m 618 672 l 710 672 q 485 101 632 351 q 283 -175 378 -86 q 67 -287 188 -264 l 51 -226 q 331 0 207 -183 l 274 0 q 226 16 246 0 q 200 58 206 32 l 67 672 l 160 672 l 275 100 q 310 71 282 71 l 375 71 l 407 126 q 618 672 547 375 z "},"–":{"ha":836,"x_min":93,"x_max":726,"o":"m 717 315 l 93 315 l 103 385 l 726 385 l 717 315 z "},"—":{"ha":1261,"x_min":93,"x_max":1151,"o":"m 1142 315 l 93 315 l 103 385 l 1151 385 l 1142 315 z "},"‘":{"ha":290,"x_min":143,"x_max":265,"o":"m 199 699 l 171 699 q 143 732 138 699 l 156 819 q 222 1010 165 900 l 265 994 q 225 839 239 913 q 246 832 239 840 q 251 811 253 824 l 239 731 q 228 706 236 713 q 199 699 219 699 z "},"’":{"ha":288,"x_min":147,"x_max":271,"o":"m 214 997 l 243 997 q 271 964 275 997 l 258 878 q 192 688 246 792 l 147 701 q 188 858 178 799 q 167 865 174 857 q 163 886 160 872 l 175 967 q 185 991 178 985 q 214 997 193 997 z "},"‚":{"ha":306,"x_min":35,"x_max":161,"o":"m 104 142 l 133 142 q 161 108 167 142 l 149 21 q 81 -169 138 -61 l 35 -154 q 76 1 65 -62 q 56 8 64 0 q 50 29 49 17 l 63 110 q 75 135 67 129 q 104 142 83 142 z "},"“":{"ha":483,"x_min":143,"x_max":458,"o":"m 199 699 l 171 699 q 143 732 138 699 l 156 819 q 222 1010 165 900 l 265 994 q 225 839 239 913 q 246 832 239 840 q 251 811 253 824 l 239 731 q 228 706 236 713 q 199 699 219 699 m 392 699 l 363 699 q 336 732 331 699 l 349 819 q 415 1010 358 900 l 458 994 q 418 839 432 913 q 438 832 431 840 q 444 811 446 824 l 432 731 q 419 706 428 713 q 392 699 411 699 z "},"”":{"ha":481,"x_min":147,"x_max":464,"o":"m 214 997 l 243 997 q 271 964 275 997 l 258 878 q 192 688 246 792 l 147 701 q 188 858 178 799 q 167 865 174 857 q 163 886 160 872 l 175 967 q 185 991 178 985 q 214 997 193 997 m 407 997 l 436 997 q 464 964 468 997 l 451 878 q 385 688 439 792 l 340 701 q 381 858 369 799 q 360 865 367 857 q 356 886 353 872 l 367 967 q 378 991 371 985 q 407 997 386 997 z "},"„":{"ha":496,"x_min":35,"x_max":351,"o":"m 103 140 l 131 140 q 158 107 164 140 l 146 21 q 79 -169 133 -65 l 35 -156 q 75 0 65 -58 q 50 29 46 0 l 63 110 q 74 134 65 128 q 103 140 82 140 m 294 140 l 324 140 q 351 107 357 140 l 339 21 q 272 -169 326 -65 l 228 -156 q 268 0 258 -58 q 243 29 239 0 l 256 110 q 266 134 258 128 q 294 140 274 140 z "},"†":{"ha":611,"x_min":88,"x_max":588,"o":"m 267 -153 l 186 -153 l 297 618 l 304 667 l 342 960 l 424 960 l 379 667 l 372 618 l 267 -153 m 88 593 l 99 672 l 282 672 l 272 604 l 88 593 m 588 672 l 576 593 l 394 604 l 404 672 l 588 672 z "},"‡":{"ha":667,"x_min":50,"x_max":615,"o":"m 408 671 l 332 136 l 296 -153 l 214 -153 l 258 136 l 333 671 l 369 960 l 451 960 l 408 671 m 603 593 l 422 604 l 432 672 l 615 672 l 603 593 m 299 604 l 115 593 l 126 672 l 310 672 l 299 604 m 243 203 l 233 135 l 50 135 l 61 214 l 243 203 m 539 135 l 356 135 l 365 203 l 550 214 l 539 135 z "},"•":{"ha":497,"x_min":128,"x_max":360,"o":"m 251 488 l 267 488 q 347 463 325 488 q 360 379 368 438 l 357 360 q 325 277 350 299 q 239 256 300 256 l 224 256 q 140 281 163 256 q 128 367 118 306 l 131 386 q 164 467 139 446 q 251 488 189 488 z "},"…":{"ha":1133,"x_min":67,"x_max":1007,"o":"m 115 149 l 146 149 q 176 113 183 149 l 165 32 q 129 0 161 0 l 99 0 q 67 36 63 0 l 78 115 q 115 149 82 149 m 531 149 l 561 149 q 592 113 599 149 l 581 32 q 544 0 576 0 l 514 0 q 482 36 475 0 l 493 115 q 531 149 497 149 m 946 149 l 976 149 q 1007 113 1011 149 l 996 32 q 960 0 992 0 l 929 0 q 897 36 890 0 l 908 115 q 946 149 913 149 z "},"‰":{"ha":1744,"x_min":110,"x_max":1653,"o":"m 360 975 q 524 908 482 975 q 543 688 565 840 q 465 472 522 536 q 292 408 408 408 q 130 476 171 408 q 110 696 89 543 q 186 911 131 847 q 360 975 242 975 m 275 0 l 203 0 l 975 958 l 1046 958 l 275 0 m 364 918 q 234 867 272 918 q 178 688 196 817 q 185 515 161 565 q 289 465 208 465 q 419 517 379 465 q 475 696 458 568 q 469 869 492 821 q 364 918 446 918 m 961 556 q 1126 488 1085 556 q 1144 268 1167 421 q 1067 52 1124 117 q 893 -12 1010 -12 q 731 55 772 -12 q 711 276 690 122 q 788 492 732 428 q 961 556 843 556 m 1469 556 q 1633 488 1592 556 q 1653 268 1675 421 q 1575 52 1632 117 q 1401 -12 1518 -12 q 1240 55 1281 -12 q 1219 276 1199 122 q 1296 492 1240 428 q 1469 556 1351 556 m 965 499 q 835 448 874 499 q 779 268 797 397 q 786 94 763 144 q 890 44 810 44 q 1020 96 981 44 q 1076 276 1060 147 q 1070 449 1093 400 q 965 499 1047 499 m 1474 499 q 1344 448 1382 499 q 1288 268 1306 397 q 1294 94 1271 144 q 1399 44 1318 44 q 1528 96 1489 44 q 1585 276 1568 147 q 1578 449 1601 400 q 1474 499 1556 499 z "},"‹":{"ha":410,"x_min":54,"x_max":356,"o":"m 356 601 l 132 347 l 289 89 l 244 58 l 54 342 l 57 364 l 318 635 l 356 601 z "},"›":{"ha":410,"x_min":38,"x_max":339,"o":"m 339 353 l 338 331 l 74 58 l 38 92 l 263 347 l 106 606 l 150 635 l 339 353 z "},"⁄":{"ha":222,"x_min":-299,"x_max":540,"o":"m -226 0 l -299 0 l 468 958 l 540 958 l -226 0 z "},"€":{"ha":885,"x_min":72,"x_max":872,"o":"m 872 949 l 856 879 q 656 893 764 896 q 445 827 522 890 q 329 614 368 764 l 701 614 l 682 556 l 315 556 q 310 521 315 551 q 301 474 304 490 l 296 428 l 628 428 l 608 369 l 292 369 q 339 138 283 207 q 526 65 394 68 q 753 82 651 63 l 760 13 q 529 -17 660 -17 q 265 78 343 -17 q 197 369 188 172 l 72 369 l 81 428 l 203 428 l 210 483 q 221 556 214 515 l 100 556 l 108 614 l 233 614 q 377 888 278 801 q 658 975 476 975 q 872 949 779 975 z "},"™":{"ha":1321,"x_min":163,"x_max":1265,"o":"m 1167 967 l 1240 967 q 1260 958 1253 967 q 1265 938 1267 950 l 1218 439 l 1157 439 l 1200 915 l 1183 915 l 983 517 q 954 497 975 497 l 899 497 q 872 521 875 497 l 779 915 l 763 915 l 675 439 l 613 439 l 706 942 q 732 967 710 967 l 803 967 q 829 943 826 967 l 906 614 q 913 578 908 603 q 919 540 917 553 l 939 540 q 972 615 953 578 l 1139 947 q 1167 967 1149 967 m 606 911 l 417 911 l 350 439 l 285 439 l 350 911 l 163 911 l 169 967 l 613 967 l 606 911 z "},"∂":{"ha":790,"x_min":68,"x_max":722,"o":"m 261 907 l 265 975 q 430 969 363 976 q 556 941 497 961 q 649 885 615 921 q 703 792 683 849 q 722 654 724 735 q 703 464 721 574 q 569 102 663 221 q 310 -17 475 -17 q 97 76 157 -17 q 68 314 36 168 q 179 539 97 457 q 392 619 261 621 q 618 494 547 619 q 635 665 635 597 q 617 783 635 733 q 552 858 599 832 q 437 897 506 885 q 261 907 368 908 m 311 63 q 505 162 436 63 q 608 443 574 261 q 407 544 532 544 q 154 306 207 544 q 169 126 129 189 q 311 63 208 63 z "},"∅":{"ha":951,"x_min":79,"x_max":892,"o":"m 199 760 q 258 820 199 760 q 486 879 318 879 q 773 760 654 879 q 892 474 892 642 q 773 186 892 306 q 486 67 654 67 q 198 186 317 67 q 79 474 79 306 q 199 760 79 642 m 443 335 l 518 335 q 538 424 518 383 q 583 489 558 465 q 628 549 608 513 q 649 628 649 586 q 486 757 649 757 q 317 742 417 757 l 321 679 q 486 692 404 692 q 578 628 578 692 q 557 566 578 599 q 510 507 536 533 q 464 435 485 481 q 443 335 443 389 m 508 238 l 454 238 q 444 226 444 238 l 444 175 q 454 165 444 165 l 508 165 q 519 175 519 165 l 519 226 q 508 238 519 238 z "},"∏":{"ha":1003,"x_min":119,"x_max":1021,"o":"m 1011 883 l 858 883 l 714 -147 l 625 -147 l 771 883 l 360 883 l 215 -147 l 128 -147 l 272 883 l 119 883 l 129 958 l 1021 958 l 1011 883 z "},"∑":{"ha":810,"x_min":-7,"x_max":800,"o":"m 790 883 l 249 883 l 439 488 l 104 -64 l 671 -64 l 660 -139 l -7 -139 l 4 -64 l 342 490 l 154 883 l 164 958 l 800 958 l 790 883 z "},"−":{"ha":815,"x_min":104,"x_max":713,"o":"m 701 376 l 104 376 l 114 444 l 713 444 l 701 376 z "},"√":{"ha":774,"x_min":89,"x_max":850,"o":"m 850 1217 l 307 10 q 292 0 303 0 l 190 0 q 177 3 183 0 q 172 13 171 7 l 89 672 l 163 672 l 238 63 l 257 63 l 772 1217 l 850 1217 z "},"∞":{"ha":1085,"x_min":93,"x_max":997,"o":"m 835 615 q 964 567 918 615 q 997 429 1010 519 q 922 286 985 336 q 774 236 860 236 q 669 260 717 236 q 600 308 622 283 q 544 376 578 332 q 406 273 469 310 q 268 236 343 236 q 131 289 181 236 q 93 438 81 342 q 164 571 106 526 q 306 615 222 615 q 435 578 383 615 q 546 468 486 542 q 835 615 706 615 m 168 428 q 189 335 158 367 q 281 303 219 303 q 365 322 324 303 q 431 363 406 342 q 504 429 456 383 q 419 520 457 492 q 318 549 381 549 q 168 428 186 549 m 921 436 q 819 549 939 549 q 779 545 799 549 q 740 532 760 542 q 706 516 719 522 q 672 492 693 510 q 644 469 651 475 q 613 441 636 463 q 586 415 590 419 q 660 332 635 350 q 763 303 701 303 q 870 337 828 303 q 921 436 913 371 z "},"∫":{"ha":522,"x_min":-46,"x_max":550,"o":"m 179 -107 l 249 808 q 422 992 264 992 q 550 986 496 992 l 539 922 l 450 922 q 362 892 392 922 q 326 793 332 863 l 257 -125 q 207 -264 249 -219 q 79 -308 165 -308 q -46 -303 -7 -308 l -33 -239 l 54 -239 q 143 -208 113 -239 q 179 -107 174 -178 z "},"≈":{"ha":817,"x_min":82,"x_max":735,"o":"m 179 461 l 119 465 q 258 614 126 617 q 425 572 313 613 q 590 529 538 531 q 647 544 628 528 q 674 608 667 561 l 735 604 q 697 494 731 529 q 592 460 663 458 q 420 502 531 460 q 263 546 310 544 q 206 528 225 546 q 179 461 186 510 m 142 196 l 82 200 q 122 316 85 281 q 221 349 158 351 q 388 306 275 347 q 553 264 500 265 q 610 279 590 263 q 636 343 629 296 l 697 340 q 660 228 693 264 q 556 194 626 193 q 383 238 494 196 q 225 281 272 279 q 168 263 188 281 q 142 196 149 244 z "},"≠":{"ha":850,"x_min":100,"x_max":747,"o":"m 519 518 l 351 293 l 707 293 l 699 225 l 300 225 l 172 53 l 140 69 l 257 225 l 100 225 l 110 293 l 307 293 l 476 518 l 140 518 l 150 586 l 526 586 l 639 736 l 671 719 l 571 586 l 747 586 l 739 518 l 519 518 z "},"≤":{"ha":794,"x_min":64,"x_max":721,"o":"m 711 657 l 206 493 l 667 343 l 656 274 l 122 457 l 132 529 l 721 731 l 711 657 m 654 122 l 64 122 l 74 189 l 664 189 l 654 122 z "},"≥":{"ha":792,"x_min":63,"x_max":693,"o":"m 693 529 l 683 457 l 97 274 l 108 347 l 610 500 l 153 664 l 163 731 l 693 529 m 651 122 l 63 122 l 72 189 l 661 189 l 651 122 z "},"◊":{"ha":803,"x_min":64,"x_max":760,"o":"m 65 493 l 468 963 q 489 960 479 974 l 760 489 q 760 468 764 478 l 357 -4 q 336 -1 344 -17 l 64 472 q 65 493 60 483 m 139 479 l 356 92 l 688 483 l 471 868 l 139 479 z "},"ﬁ":{"ha":808,"x_min":-171,"x_max":768,"o":"m 728 672 l 632 0 l 544 0 l 629 601 l 278 601 l 181 -92 q -24 -283 153 -283 q -171 -275 -89 -283 l -158 -210 l -51 -210 q 51 -181 18 -210 q 93 -79 83 -153 l 189 601 l 68 601 l 76 665 l 199 672 l 217 794 q 281 945 231 896 q 429 994 331 994 q 594 986 524 994 l 589 921 l 457 921 q 348 890 383 921 q 303 782 313 858 l 288 672 l 728 672 m 700 956 l 740 956 q 768 925 772 956 l 757 843 q 726 817 753 817 l 685 817 q 657 847 653 817 l 669 929 q 700 956 671 956 z "},"ﬂ":{"ha":894,"x_min":-171,"x_max":832,"o":"m 828 60 l 832 3 q 722 -11 799 -11 q 610 30 647 -11 q 582 143 572 71 l 692 921 l 457 921 q 349 890 385 922 q 303 782 314 858 l 288 672 l 501 672 l 492 601 l 278 601 l 181 -92 q -24 -283 153 -283 q -171 -275 -89 -283 l -158 -210 l -51 -210 q 51 -181 18 -210 q 93 -79 83 -153 l 189 601 l 68 601 l 76 665 l 199 672 l 217 794 q 281 945 231 896 q 429 994 331 994 q 786 981 710 992 l 672 156 q 754 60 660 60 l 828 60 z "}}}
